<svg width="41" height="40" viewBox="0 0 41 40" fill="none" xmlns="http://www.w3.org/2000/svg">
<path d="M17.2392 0.124361C10.5516 1.20856 5.04474 5.26623 2.1464 11.2883C-0.945164 17.6862 -0.419169 25.2218 3.5419 31.1044C7.97529 37.7169 15.8974 41.0768 23.7337 39.6921C28.0382 38.9299 32.3214 36.5254 35.1768 33.2621C38.118 29.9129 39.8034 25.9303 40.1683 21.454C40.4582 18.0833 39.7819 14.4873 38.2898 11.3957C37.2593 9.24877 36.2502 7.77813 34.683 6.14647C31.7954 3.14078 28.2959 1.18709 24.2275 0.328318C23.1111 0.092157 22.5958 0.038484 20.567 0.00628023C18.8602 -0.015189 17.937 0.0170148 17.2392 0.124361ZM21.7478 2.11026C25.8484 2.49671 29.5304 4.14983 32.3965 6.87642C34.1677 8.56175 35.2519 10.0217 36.2395 12.0398C38.2576 16.1404 38.644 20.6596 37.3666 25.0501C35.4988 31.4586 30.0241 36.3644 23.358 37.5988C22.5421 37.7599 21.78 37.8028 20.1376 37.8028C17.7223 37.8028 16.8957 37.674 14.8347 37.0406C5.34531 34.0886 0.106827 23.9766 3.14472 14.455C4.04642 11.6318 5.61367 9.15216 7.84647 7.01597C11.5928 3.41988 16.6703 1.63794 21.7478 2.11026Z" fill="#A09C9C"/>
<path d="M23.519 9.40979V10.8053H19.6009H15.6827V12.1471V13.4889L11.7968 13.5104L7.90015 13.5426V19.2319C7.90015 24.7817 7.91088 24.9535 8.14704 26.0914C8.49055 27.6693 9.00581 29.1507 9.84311 30.8682C10.8951 33.0474 12.3765 35.4519 12.5912 35.3231C12.8595 35.1514 14.2658 32.8327 15.0387 31.2547C15.8974 29.505 16.4019 28.2061 16.6488 27.0897C16.724 26.7569 16.8206 26.4778 16.8528 26.4778C16.885 26.4778 17.0031 26.7032 17.1212 26.9931C17.5076 27.9592 18.785 30.3423 19.5472 31.5231L20.3201 32.7039L20.6099 32.3067C22.1342 30.1598 23.5619 27.3366 24.2167 25.136C24.7213 23.4506 24.6569 23.5795 24.8179 24.0088C25.1292 24.8676 26.267 27.0145 27.1365 28.41C27.6518 29.2366 28.1027 29.9129 28.1349 29.9129C28.1671 29.9129 28.5106 29.4191 28.897 28.8072C30.6468 26.1236 31.849 23.4184 32.4609 20.8421C32.6649 19.9297 32.6863 19.5218 32.7185 13.9398L32.7615 8.01429H28.1456H23.519V9.40979ZM31.2479 14.4443C31.2479 19.919 31.2157 20.2517 30.5394 22.2054C30.3247 22.8066 29.9597 23.6868 29.7236 24.1591C29.1654 25.2863 28.2529 26.7998 28.1349 26.7998C27.845 26.7998 26.1919 23.6546 25.6874 22.1303C25.0111 20.1229 25.0004 20.0048 24.9467 14.5302L24.893 9.51714H28.0705H31.2479V14.4443ZM23.4653 17.1924C23.4653 21.5614 23.4438 22.2376 23.2721 23.0427C22.8534 24.975 22.0913 26.8428 20.9319 28.7213L20.3737 29.623L20.1591 29.3654C19.3218 28.3241 18.0014 25.5117 17.4969 23.6868C17.2607 22.7958 17.25 22.6241 17.207 17.4822L17.1748 12.2008L20.3201 12.2223L23.4653 12.2545V17.1924ZM15.6827 19.7365C15.6827 24.9857 15.6183 25.7264 15.0279 27.4976C14.8454 28.0236 14.4912 28.9146 14.2336 29.4728C13.772 30.4496 12.7307 32.2315 12.559 32.3389C12.4409 32.4033 11.3245 30.5677 10.7985 29.4298C10.3262 28.4315 9.91825 27.2614 9.60695 26.0484C9.44593 25.458 9.41372 24.5885 9.38152 20.1659L9.33858 14.9918H12.5053H15.6827V19.7365Z" fill="#A09C9C"/>
<path d="M25.3654 9.92506C25.4835 10.2364 30.7434 19.5111 30.8293 19.5647C30.883 19.5969 30.9259 17.654 30.9259 14.7342V9.83919H28.1242C26.5891 9.83919 25.3439 9.88212 25.3654 9.92506Z" fill="#A09C9C"/>
<path d="M25.2687 16.763C25.3116 18.7811 25.3761 19.7687 25.5049 20.3376C25.7088 21.2393 26.1919 22.6885 26.5998 23.5687C26.9648 24.3524 28.049 26.2631 28.1241 26.2631C28.3066 26.2631 30.0671 22.8173 30.0671 22.4738C30.0671 22.3128 25.5263 14.2726 25.3224 14.0794C25.2472 14.0042 25.2258 14.8093 25.2687 16.763Z" fill="#A09C9C"/>
<path d="M17.5827 12.6087C17.5613 12.6516 18.0336 13.5534 18.6347 14.6161C19.2251 15.6788 20.4703 17.8794 21.3828 19.5003L23.0359 22.4523L23.1111 21.5399C23.1433 21.0354 23.1755 18.8348 23.1862 16.6449C23.1969 13.0274 23.1755 12.6516 23.0144 12.5872C22.7783 12.4906 17.6257 12.5121 17.5827 12.6087Z" fill="#A09C9C"/>
<path d="M17.5399 19.7687C17.5935 23.0105 17.6365 23.3218 18.3235 25.1467C18.667 26.0591 19.5258 27.8196 19.9874 28.5281C20.2987 29.0111 20.3416 29.0433 20.4597 28.8716C20.8139 28.3563 21.6405 26.7891 21.9733 26.0269L22.3275 25.1896L20.8247 22.5274C19.9874 21.0675 18.9676 19.2749 18.5489 18.5342C18.1303 17.7935 17.7224 17.0957 17.6472 16.9777C17.5184 16.7952 17.4969 17.1816 17.5399 19.7687Z" fill="#A09C9C"/>
<path d="M10.0042 15.9257C10.3691 16.5483 11.0776 17.8257 13.7505 22.5812C15.0065 24.8247 15.2104 25.136 15.2641 24.8891C15.307 24.7281 15.3392 22.506 15.35 19.9512L15.3607 15.3138H12.5053H9.66064L10.0042 15.9257Z" fill="#A09C9C"/>
<path d="M9.69282 22.3986C9.74649 25.1574 9.76796 25.4151 10.0256 26.3704C10.4872 28.0665 11.2493 29.7733 12.2799 31.4479L12.5375 31.8665L12.9883 31.0937C13.5143 30.2134 14.5019 28.206 14.5019 28.0128C14.5019 27.9377 14.2443 27.4332 13.9223 26.8857C13.6002 26.3382 12.5375 24.4597 11.5499 22.7207C10.5623 20.9817 9.73576 19.5325 9.70355 19.5003C9.67135 19.4681 9.67135 20.7777 9.69282 22.3986Z" fill="#A09C9C"/>
</svg>
