<svg width="274" height="40" viewBox="0 0 274 40" fill="none" xmlns="http://www.w3.org/2000/svg">
<path fill-rule="evenodd" clip-rule="evenodd" d="M233.91 0.903015L201.25 38.717H217.252L249.846 0.93362L233.91 0.903015ZM256.459 0.903015L223.799 38.717H239.801L272.395 0.93362L256.459 0.903015Z" fill="#A09C9C"/>
<path fill-rule="evenodd" clip-rule="evenodd" d="M68.9419 9.99299C64.3043 9.97911 48.0293 10.3891 48.0293 17.8314C48.0293 23.0681 55.6432 24.5764 61.9291 25.2541C66.3788 25.7339 70.1508 25.711 70.1508 25.711C70.1508 25.711 73.6867 25.852 77.9702 25.6093C84.6158 25.2312 93.0757 23.7337 93.0757 17.8293C93.0757 10.0335 70.9859 10.0058 70.1355 10.0058C70.0295 10.0058 69.6043 9.99496 68.9419 9.99299ZM25.2519 10.2107L3.67251 10.2192C3.67295 10.2192 2.66147 10.1327 2.059 10.6036C1.49643 11.0427 1.49118 12.0341 1.49118 12.0341L1.33105 23.7534C1.33105 25.5689 3.39117 25.4257 3.39117 25.4257L26.0046 25.4082C26.0046 25.4082 33.4371 25.5929 38.5065 23.8758C41.8292 22.7511 43.5376 20.5946 43.5376 17.8555C43.5376 14.7907 40.5854 12.6746 36.585 11.5641C31.5593 10.1704 25.2519 10.2107 25.2519 10.2107ZM121.46 10.2107L99.8885 10.2192C99.8885 10.2192 98.8764 10.1327 98.2741 10.6036C97.7112 11.0427 97.7068 12.0341 97.7068 12.0341L97.544 23.7534C97.544 25.5689 99.6043 25.4257 99.6043 25.4257L122.225 25.4082C122.225 25.4082 129.647 25.5929 134.719 23.8758C138.041 22.7511 139.757 20.5946 139.757 17.8555C139.757 14.7907 136.806 12.6746 132.795 11.5641C127.778 10.1704 121.46 10.2107 121.46 10.2107ZM186.025 10.2278C185.828 10.2278 160.995 10.247 160.995 10.247C160.995 10.247 159.136 10.2365 156.666 10.4584C151.715 10.9019 144.282 12.4123 144.282 17.8314C144.282 20.353 145.649 22.139 148.01 23.267C153.147 25.5908 162.088 25.417 162.088 25.417H184.429C186.385 25.417 186.582 24.2606 186.582 23.4801C186.582 22.7008 186.637 19.6098 186.637 17.8314C186.637 16.0542 184.713 16.205 184.713 16.205H164.831C163.957 16.205 163.957 16.9166 163.957 16.9166C163.957 16.9166 163.913 17.8325 163.913 18.6457C163.913 19.4611 164.744 19.4393 164.744 19.4393H176.209C176.964 19.4393 177.051 20.0481 177.051 20.0481V21.4253C177.051 22.1336 176.297 22.1806 176.297 22.1806H163.137C161.104 22.1806 153.977 22.1806 153.977 17.8314C153.977 13.4834 162.394 13.443 162.394 13.443H185.904C186.855 13.443 186.724 12.2986 186.724 12.2986V10.8661C186.724 10.2436 186.221 10.2278 186.025 10.2278ZM193.741 10.2385C191.982 10.2385 191.413 10.5256 191.359 12.151C191.315 13.4364 191.173 21.4668 191.173 23.3249C191.173 25.1809 192.2 25.417 193.424 25.417H229.45C230.259 25.417 230.226 24.7896 230.226 24.6464V22.8571C230.226 22.1762 229.232 22.1806 229.232 22.1806H201.983C200.922 22.1806 200.955 21.5226 200.955 21.5226C200.955 21.5226 200.966 20.8995 200.966 20.2033C200.966 19.5092 201.6 19.3966 201.906 19.3966H227.548C228.303 19.3966 228.292 18.6884 228.292 18.6884V16.9166C228.292 16.1504 227.363 16.1799 227.363 16.1799H201.819C200.966 16.1799 200.955 15.3153 200.955 15.3153L200.977 14.3502C200.977 13.5129 201.819 13.443 201.819 13.443H228.838C229.636 13.443 229.745 12.867 229.745 12.2986V10.8661C229.745 10.1764 228.794 10.2385 228.794 10.2385H193.741ZM70.2087 13.2211C72.4669 13.2211 83.385 13.4178 83.385 17.885C83.3971 22.6844 73.197 22.4068 70.2087 22.4068C67.2193 22.4068 57.7975 22.2232 57.7975 17.885C57.7975 13.0845 67.9495 13.2211 70.2087 13.2211ZM25.453 13.443C25.453 13.443 28.4872 13.5599 30.8066 14.4398C32.6243 15.1295 33.8518 16.3734 33.8518 17.838C33.8518 19.0709 33.0528 20.3137 31.6078 20.9761C29.1365 22.1073 25.4421 22.1762 25.4421 22.1762L11.5193 22.1849C11.5193 22.1849 10.7336 22.2046 10.7336 21.4756C10.7336 21.4756 10.8575 14.2649 10.8575 14.1709C10.8575 14.0758 10.8484 13.4517 11.6789 13.4517C12.6341 13.4517 25.453 13.443 25.453 13.443ZM121.662 13.443C121.662 13.443 124.701 13.5599 127.018 14.4398C128.844 15.1295 130.068 16.3734 130.068 17.838C130.068 19.0709 129.27 20.3137 127.816 20.9761C125.346 22.1073 121.652 22.1762 121.652 22.1762L107.732 22.1849C107.732 22.1849 106.949 22.2046 106.949 21.4756C106.949 21.4756 107.071 14.2649 107.071 14.1709C107.071 14.0758 107.062 13.4517 107.893 13.4517C108.847 13.4517 121.662 13.443 121.662 13.443Z" fill="#A09C9C"/>
</svg>
