<svg width="40" height="38" viewBox="0 0 40 38" fill="none" xmlns="http://www.w3.org/2000/svg">
<path d="M19.9137 0C13.0072 0.057554 0 1.3813 0 18.7626C0 36.1439 13.295 37.3525 19.8561 37.5827C26.4748 37.4101 39.7698 36.259 39.7698 18.7626C39.7698 1.26619 26.8201 0.057554 19.9137 0ZM18.9928 1.3813C19.5108 1.3813 20.3165 1.3813 20.8345 1.3813V14.9065H18.9928V1.3813ZM2.2446 18.7626C2.2446 5.0072 11.2806 1.3813 18.4748 1.3813L12.5468 18.2446L9.95683 34.0719C9.26619 33.9568 2.18705 30.5612 2.2446 18.7626ZM19.9712 36.3741C16.7482 36.3166 12.0288 35.2806 10.8777 34.5324L18.7626 17.2662H21.0648L28.8921 34.6475C27.741 35.3957 23.1367 36.3741 19.9712 36.3741ZM29.813 34.1871L27.4532 18.2446L21.3525 1.3813C28.5468 1.3813 37.5827 5.06475 37.5827 18.7626C37.6403 30.5612 30.5036 34.0719 29.813 34.1871Z" fill="#A09C9C"/>
</svg>
