<svg width="41" height="41" viewBox="0 0 41 41" fill="none" xmlns="http://www.w3.org/2000/svg">
<path d="M20.4813 0.0462046C9.43636 0.0845377 0.511411 9.07115 0.549745 20.1161C0.588078 31.161 9.57469 40.0826 20.618 40.046C31.6629 40.0076 40.5878 31.0227 40.5495 19.9778C40.5112 8.93282 31.5262 0.00787146 20.4813 0.0462046ZM20.5496 3.60285C22.7098 3.59705 24.8497 4.01978 26.8454 4.84655C28.8411 5.67333 30.653 6.88774 32.1762 8.41949C33.708 9.94265 34.9225 11.7545 35.7493 13.7503C36.5761 15.746 36.9988 17.8859 36.9929 20.0461C36.9988 22.2063 36.5761 24.3462 35.7493 26.3419C34.9225 28.3376 33.708 30.1495 32.1762 31.6727C30.653 33.2044 28.8411 34.4188 26.8454 35.2456C24.8497 36.0724 22.7098 36.4951 20.5496 36.4893C18.3895 36.495 16.2496 36.0723 14.2539 35.2455C12.2582 34.4187 10.4463 33.2044 8.92303 31.6727C7.39121 30.1495 6.17675 28.3376 5.34997 26.3419C4.52318 24.3462 4.1005 22.2063 4.10639 20.0461C4.1005 17.8859 4.52318 15.746 5.34997 13.7503C6.17675 11.7545 7.39121 9.94265 8.92303 8.41949C10.4463 6.88782 12.2582 5.67345 14.2539 4.84668C16.2496 4.01991 18.3895 3.59714 20.5496 3.60285ZM20.7396 5.59284C19.3155 5.59168 17.8988 5.79887 16.5346 6.20784C16.4232 6.23694 16.3203 6.29238 16.2347 6.3695C16.1701 6.43095 16.1303 6.51399 16.123 6.60283C16.1113 6.77117 16.213 6.93116 16.3613 7.05783C17.6563 8.16616 19.3946 9.82615 20.623 11.8845C19.9346 11.8978 19.3913 11.5178 18.923 11.0678C17.4871 9.71838 15.8893 8.55226 14.1663 7.59616C13.918 7.45783 13.6497 7.39283 13.388 7.54283C11.9627 8.34008 10.6956 9.39191 9.64969 10.6461C9.53636 10.7778 9.50803 10.9145 9.54969 11.0295C9.599 11.1404 9.68738 11.2294 9.79802 11.2795C11.0813 11.9628 13.088 13.2528 14.9413 14.9228C14.759 15.0377 14.5398 15.0794 14.328 15.0394C14.0313 14.9961 13.6663 14.8578 13.2297 14.6295C11.7776 13.88 10.2435 13.3017 8.65803 12.9061C8.3697 12.8311 8.04803 12.9145 7.89137 13.1828C7.09304 14.5711 6.54138 16.2294 6.28304 17.9111C6.25814 18.0818 6.30158 18.2554 6.40393 18.3943C6.50628 18.5332 6.65928 18.626 6.82971 18.6528C8.27137 18.9061 10.273 19.3694 12.018 20.5078C13.7613 21.6427 15.248 23.4461 15.673 26.396C15.6906 26.5038 15.6792 26.6144 15.64 26.7163C15.6007 26.8183 15.535 26.9079 15.4497 26.976C15.2847 27.1027 15.043 27.1427 14.7497 27.006L12.1463 25.7844C12.0453 25.7336 11.9344 25.7051 11.8213 25.7011H7.72637C7.41304 25.7011 7.17637 25.8544 7.07971 26.0744C6.98304 26.2944 7.02637 26.5744 7.22971 26.8077C8.21303 27.9377 9.11303 29.1577 9.88302 30.451C9.91642 30.5114 9.96583 30.5614 10.0258 30.5955C10.0858 30.6296 10.154 30.6465 10.223 30.6444H12.0113C12.1404 30.6455 12.2673 30.6109 12.378 30.5444L14.0647 29.5577C14.1513 29.5044 14.2363 29.506 14.3597 29.506H27.8329C27.9079 29.506 27.9729 29.5294 28.0179 29.5694C28.0413 29.5895 28.0599 29.6146 28.0723 29.6429C28.0847 29.6712 28.0906 29.7018 28.0896 29.7327V30.396C28.0896 30.6794 28.3462 30.896 28.6246 30.8527C30.2956 30.5855 31.848 29.8232 33.0812 28.6644C33.134 28.6151 33.1761 28.5555 33.2049 28.4893C33.2337 28.423 33.2485 28.3516 33.2485 28.2794C33.2485 28.2072 33.2337 28.1357 33.2049 28.0695C33.1761 28.0033 33.134 27.9436 33.0812 27.8944C31.8487 26.7356 30.2968 25.9733 28.6262 25.7061C28.56 25.6957 28.4923 25.6998 28.4278 25.7181C28.3634 25.7364 28.3036 25.7684 28.2526 25.8119C28.2016 25.8554 28.1607 25.9095 28.1325 25.9703C28.1044 26.0311 28.0897 26.0974 28.0896 26.1644V26.771C28.0875 26.8495 28.0606 26.9254 28.0129 26.9877C27.9663 27.0477 27.9063 27.0844 27.8413 27.0844C27.7096 27.0844 27.5796 27.0877 27.4496 27.0844C27.2446 27.081 27.1379 26.9644 27.0763 26.796C27.0193 26.6219 27.0135 26.4351 27.0596 26.2577C28.0529 22.6944 28.2963 20.5278 28.2846 18.9494C28.2729 17.2778 28.2296 15.5994 27.4746 13.3878C26.7496 11.2678 26.0746 9.17115 22.563 5.9895C22.3335 5.77442 22.0354 5.64748 21.7213 5.63117C21.3946 5.60685 21.0672 5.59296 20.7396 5.59284ZM23.2863 21.7661C23.7729 21.7865 24.2329 21.9943 24.57 22.3458C24.9071 22.6974 25.0953 23.1656 25.0953 23.6527C25.0953 24.1398 24.9071 24.6081 24.57 24.9596C24.2329 25.3112 23.7729 25.5189 23.2863 25.5394C22.7859 25.5394 22.306 25.3406 21.9522 24.9868C21.5984 24.633 21.3996 24.1531 21.3996 23.6527C21.3996 23.1524 21.5984 22.6725 21.9522 22.3187C22.306 21.9648 22.7859 21.7661 23.2863 21.7661Z" fill="#A09C9C"/>
</svg>
