<svg width="128" height="40" viewBox="0 0 128 40" fill="none" xmlns="http://www.w3.org/2000/svg">
<path fill-rule="evenodd" clip-rule="evenodd" d="M68.4344 38.6319C68.1349 39.9988 66.0364 40.3845 65.3149 39.0249C65.1433 40.2956 62.4068 40.2956 62.2352 39.024C61.5146 40.3836 59.4152 39.9979 59.1166 38.631C58.2534 39.8881 56.2548 39.3017 56.0642 37.9784C55.2282 38.8896 53.57 38.5248 53.1942 37.3448C47.044 34.8152 42.5412 30.2389 40.7804 24.7749C40.4182 24.6197 40.0915 24.3855 39.8319 24.0479C39.5899 24.1048 39.3442 24.169 39.0982 24.2333L39.0981 24.2333L39.098 24.2333L39.098 24.2334L39.0979 24.2334L39.0978 24.2334L39.0978 24.2334L39.0977 24.2334L39.0976 24.2334L39.0976 24.2335L39.0975 24.2335L39.0974 24.2335L39.0974 24.2335L39.0973 24.2335L39.0972 24.2335C37.4097 24.6745 35.704 25.1203 35.0205 23.2646C34.9185 23.2918 34.8098 23.3217 34.6952 23.3532C32.9234 23.8405 29.7559 24.7116 28.755 22.0347C26.2935 22.3706 22.7128 22.5938 22.2654 20.0207C20.1397 20.0207 16.4474 19.6839 16.4474 17.2233C14.3217 17.2233 10.6294 15.7693 11.0769 14.0901C9.17445 13.8669 6.60128 11.8528 6.60128 10.5104C4.69977 9.95128 2.57317 8.49724 3.02154 6.59482C2.81269 6.46964 2.57656 6.34055 2.3306 6.20608L2.3306 6.20608C1.25861 5.62001 0 4.93192 0 4.02165C0 2.90343 0.89312 2.00759 1.9006 2.00759C2.36826 2.00759 3.43847 2.05727 4.58533 2.1105H4.58533C5.90917 2.17195 7.33514 2.23813 8.05442 2.23813C8.30325 2.23813 9.06339 2.23043 10.161 2.21931L10.161 2.21931C14.9848 2.17043 26.326 2.0555 29.4249 2.23813C33.2297 2.46141 38.0402 2.56761 40.3901 2.34342C42.1219 2.17914 48.0197 1.84149 51.5595 2.78726C59.0603 -0.929539 68.4916 -0.928632 75.9906 2.78726C79.5313 1.84059 85.4282 2.17823 87.1591 2.34523C89.509 2.56852 94.3204 2.46323 98.1243 2.23995C101.223 2.05731 112.566 2.17225 117.388 2.22113C118.486 2.23225 119.245 2.23995 119.494 2.23995C120.213 2.23995 121.639 2.17376 122.963 2.11231C124.11 2.05908 125.18 2.00941 125.648 2.00941C126.655 2.00941 127.55 2.90525 127.55 4.02347C127.55 4.932 126.294 5.61945 125.224 6.20555L125.223 6.20563C124.976 6.34087 124.739 6.47071 124.529 6.59663C124.978 8.49814 122.851 9.95309 120.95 10.5122C120.95 11.8546 118.376 13.8687 116.473 14.0919C116.921 15.7702 113.229 17.2251 111.103 17.2251C111.103 19.6867 107.411 20.0225 105.286 20.0225C104.837 22.5956 101.258 22.3724 98.796 22.0365C97.7958 24.7108 94.6325 23.8425 92.8595 23.3559L92.8592 23.3558L92.8589 23.3557L92.8587 23.3557C92.7431 23.3239 92.6334 23.2938 92.5305 23.2664C91.8469 25.1217 90.1406 24.676 88.4527 24.235C88.2067 24.1708 87.9611 24.1066 87.7191 24.0497C87.4712 24.37 87.1443 24.6205 86.7706 24.7767C85.0098 30.2398 80.5079 34.8161 74.3568 37.3457C73.981 38.5257 72.3228 38.8906 71.4868 37.9793C71.2962 39.3026 69.2976 39.8899 68.4344 38.6319ZM48.4019 25.2188C47.1566 25.6881 45.0772 26.0012 44.4191 24.4973C43.8686 24.7606 43.2776 24.9294 42.671 24.9965C44.3846 29.5066 48.273 33.3368 53.5255 35.625L56.2275 31.045C52.8257 29.8024 50.0628 27.7457 48.4019 25.2188ZM53.1343 36.814C47.3354 34.3652 43.0731 30.0811 41.3077 24.9457C41.5991 25.0092 41.9013 25.0337 42.2036 25.0282C43.9326 29.6999 47.9253 33.6699 53.3258 36.0271C53.2171 36.2764 53.1523 36.5426 53.1343 36.814ZM56.1686 36.951C56.1678 36.9538 56.1669 36.9565 56.1658 36.9592C55.3063 39.074 52.7567 37.8505 53.9103 35.8537L56.6578 31.1975C57.1615 31.3681 57.678 31.5206 58.2062 31.6568C58.2138 31.7065 57.2458 34.1859 56.6413 35.7341C56.374 36.4189 56.1777 36.9215 56.1686 36.951ZM59.0739 37.6091C58.542 39.7248 55.9916 39.0795 56.5915 37.099L58.7753 31.7929C59.2945 31.9109 59.8236 32.0107 60.3619 32.0915C60.3673 32.1115 59.0739 37.6091 59.0739 37.6091ZM62.0682 37.9431C61.8785 40.2195 59.0839 39.8246 59.5849 37.5573C59.5849 37.5579 59.7173 36.987 59.8959 36.2162C60.2658 34.6199 60.8344 32.1666 60.8375 32.1587C61.3621 32.2249 61.894 32.2758 62.434 32.3066C62.4494 32.3462 62.2033 35.9576 62.1065 37.3784L62.1064 37.3795L62.1062 37.3817C62.0831 37.7209 62.0686 37.9343 62.0682 37.9431ZM62.5547 37.9086L62.5634 37.7482C62.6125 36.8415 62.8529 32.3969 62.857 32.3847C63.3798 32.4065 64.1522 32.4219 64.6904 32.3674C64.7094 32.4027 64.9077 35.4464 65.0091 37.002L65.0093 37.0043C65.0435 37.5296 65.0666 37.8847 65.068 37.8959C65.2368 40.1242 62.4213 40.1695 62.5547 37.9086ZM1.8407 3.34648C2.05061 3.18601 2.46317 3.16701 2.99242 3.14264H2.99243H2.99243L2.99244 3.14264L2.99245 3.14264H2.99245H2.99246C3.09481 3.13792 3.20153 3.13301 3.31199 3.12683C5.38605 3.12683 9.10106 3.20701 12.0876 3.27147L12.0877 3.27147L12.0877 3.27147L12.0878 3.27148H12.0878C14.0951 3.3148 15.7732 3.35102 16.4029 3.35102C17.9695 3.35102 29.0464 4.58178 30.78 5.1418C31.5633 5.36599 31.7312 6.14837 30.78 6.20465C29.8288 6.26092 18.004 6.42974 16.3258 6.42974C15.0242 6.42974 8.2541 6.40705 4.34125 5.63102C2.22463 5.21078 1.08826 3.92011 1.8407 3.34648ZM5.65007 7.48987C7.66413 7.54614 17.7335 7.60242 18.9089 7.54614C19.6995 7.50826 24.0902 7.26803 27.2 7.09787L27.2022 7.09775L27.2022 7.09775C28.7111 7.01519 29.9181 6.94915 30.2653 6.93076C32.5644 6.81004 33.3087 7.83387 30.8807 8.38571C29.65 8.66617 18.2935 9.9523 9.67819 9.78439C8.05533 9.84066 5.87426 9.00109 5.31425 8.2178C4.78808 7.48065 5.30208 7.48626 5.59747 7.48948C5.61597 7.48968 5.6336 7.48987 5.65007 7.48987ZM9.56655 11.1831C10.9652 11.1831 27.468 9.9523 30.937 9.22528C33.954 8.76601 33.2733 10.3163 32.0552 10.5677C31.0314 10.7792 18.7964 13.1409 12.5872 13.2525C10.5169 13.1971 8.1116 11.2384 9.56655 11.1831ZM13.7617 14.6512C15.7204 14.427 28.755 12.3576 32.2794 11.4063C35.467 10.5804 34.8235 12.6988 33.6781 13.0292C32.6579 13.3233 21.5492 16.0272 19.0206 16.1624C17.9484 16.2188 16.8733 16.1463 15.8184 15.9464C12.2459 15.2321 13.7617 14.6512 13.7617 14.6512ZM19.0206 17.5602C20.4192 17.2806 31.7757 14.7065 35.0205 13.4767C36.6016 12.9257 37.0772 14.4787 36.0833 14.9307C35.4679 15.2103 26.741 18.8463 22.6012 19.0705C21.0909 19.0705 18.2972 18.2572 19.0206 17.5602ZM37.5374 15.2103C36.2512 15.8257 28.4192 19.1268 25.3977 19.7984C24.9783 19.91 24.5354 20.0952 24.5708 20.3285C24.8395 22.1147 30.3997 20.5953 30.7854 20.4719C32.9238 19.7866 37.2832 18.1864 39.1321 16.3848C38.6846 16.1615 37.6499 15.4345 37.5374 15.2103ZM39.8873 17.1127C39.0486 17.6718 33.5655 20.5263 31.0486 21.3087C29.7335 21.7471 31.1176 23.0995 33.6862 22.367C36.5254 21.9268 40.6706 18.5676 41.3422 17.9523C41.121 17.8417 40.73 17.6097 40.3769 17.4002L40.3766 17.4001L40.3766 17.4001L40.3751 17.3992C40.1928 17.291 40.0206 17.189 39.8873 17.1127ZM39.0819 20.8904L39.0811 20.891C38.7864 21.0873 38.5073 21.2734 38.2571 21.4403C38.1802 21.4917 38.0871 21.5507 37.9846 21.6156C37.4069 21.9817 36.5302 22.5372 36.5526 22.9951C36.5653 23.2529 37.0554 23.7421 39.2946 22.9289C40.6869 22.3589 42.3724 21.1998 43.8037 19.1277C43.5242 19.0423 42.7963 18.7909 42.4613 18.6239C41.6524 19.1772 40.2465 20.1142 39.0819 20.8904ZM44.9782 19.4626C44.7397 19.7011 44.4694 19.9794 44.1833 20.2742L44.183 20.2744L44.1822 20.2753L44.182 20.2754L44.1816 20.2758C43.8389 20.6288 43.4734 21.0052 43.1121 21.365C42.9219 21.6103 42.6589 21.8343 42.401 22.0538C41.8308 22.5394 41.2856 23.0036 41.6082 23.6305C42.1155 24.6162 43.713 23.1975 44.2884 22.6548C45.1017 21.886 45.8868 20.8703 46.1818 19.8538C46.1181 19.8357 46.053 19.8175 45.987 19.7992C45.6466 19.7044 45.2831 19.6032 44.9782 19.4626ZM29.214 3.05841C27.6689 2.97902 26.1999 2.90355 25.5102 2.90355C25.1181 2.95891 25.1181 3.23847 25.6781 3.29746C26.3886 3.38972 28.5754 3.86754 30.6641 4.32391C32.3563 4.69367 33.9841 5.04934 34.7101 5.17447C35.8939 5.3784 38.7611 5.44661 41.5068 5.51192C42.5249 5.53614 43.5264 5.55997 44.4191 5.59017C45.4892 5.62647 46.3651 5.75173 47.0758 5.94324C50.8675 6.96657 49.6035 9.15036 48.4092 11.2138C48.1841 11.6028 47.9614 11.9875 47.7756 12.3594C47.1749 13.6102 47.8721 13.8767 48.506 14.119C48.5809 14.1476 48.655 14.176 48.7259 14.2055C48.8293 10.5768 51.0466 9.01367 52.0389 8.31409C52.1176 8.2586 52.1886 8.20855 52.2503 8.16334L52.275 8.14521C52.9867 7.62383 53.9702 6.90329 53.9702 5.7127C53.9702 4.7869 53.5436 3.92555 50.5693 3.31471C47.2884 2.64072 42.9841 2.85557 38.944 3.05724C37.0919 3.14969 35.2952 3.23937 33.6781 3.23937C32.7362 3.23937 30.9282 3.14648 29.214 3.05841ZM38.4432 6.3054C38.6667 6.3054 38.978 6.30451 39.3438 6.30347H39.3439C40.9003 6.29903 43.4443 6.29177 44.421 6.33807C47.7574 6.49691 50.14 8.1225 47.7302 11.1731C47.2582 11.7694 45.9966 13.0192 45.4929 13.4667C45.0454 13.8025 44.2058 13.2425 44.9329 12.4038C43.9817 12.963 42.8072 12.8513 43.3663 11.5652C42.5267 12.2368 41.1289 12.2922 41.9676 10.5586C41.4085 11.0061 39.8419 10.9507 40.8485 9.6074C40.0098 9.88696 39.0586 9.38321 39.674 8.54455C38.6111 8.71337 37.9958 7.92917 39.1149 7.3147C38.052 7.59153 37.7725 6.36076 38.4432 6.3054ZM34.9671 5.69353L34.967 5.69352C34.3089 5.62908 32.7483 5.47625 32.7904 6.42158C32.8376 7.4817 35.0205 7.08143 35.4689 6.99793C36.2948 6.84454 36.9547 6.59221 36.9356 6.25003C36.9166 5.89877 36.0561 5.76716 35.1612 5.71089C35.1125 5.70777 35.0463 5.70129 34.9671 5.69353ZM35.2411 7.52708C35.1808 7.53167 35.1007 7.53433 35.0073 7.53743C34.3617 7.55888 33.0811 7.60142 33.315 8.44834C33.3994 8.75331 34.0303 9.37051 36.1405 8.85769C37.0654 8.63259 37.5447 8.13702 37.5447 7.7431C37.5447 7.39911 36.3012 7.4463 35.2411 7.52708ZM36.5962 9.10094C36.5619 9.10662 36.511 9.1131 36.4475 9.12118C35.8826 9.1931 34.3222 9.39176 34.6184 10.2836C34.7933 10.8083 35.0393 10.809 35.4098 10.8101C35.5276 10.8105 35.6581 10.8109 35.8029 10.8282C36.1986 10.8754 39.1303 10.0494 38.6719 9.10911C38.5358 8.82955 37.6735 8.92395 36.5962 9.10094ZM37.5692 10.5069C35.6177 11.2992 35.6431 11.8357 35.7321 12.1252C35.8201 12.4156 36.7151 12.7742 38.5667 11.8692C39.5043 11.4109 39.5161 10.8899 39.2855 10.5214C38.9978 10.0594 38.2699 10.2219 37.5692 10.5069ZM38.9352 11.8393C36.9039 12.5473 37.02 13.1935 37.1807 13.5729C37.3577 13.9922 37.9994 14.4388 39.6949 13.3587C40.7187 12.707 41.3849 12.1606 41.2024 11.7267C41.0373 11.3328 40.0688 11.4354 38.9352 11.8393ZM39.7303 13.8742C39.1975 14.1973 38.9551 14.6348 39.291 15.1331C39.8918 16.0263 41.6635 14.4506 42.1083 13.9686C42.4387 13.611 42.6501 13.2352 42.4632 12.9602C42.2698 12.677 41.669 12.6988 39.7303 13.8742ZM42.9379 14.0258C40.5725 15.2321 40.7995 15.8166 41.1289 16.0662C41.4929 16.3421 42.3506 16.6316 43.7847 14.9743C44.4137 14.2482 44.0679 13.4531 42.9379 14.0258ZM44.1187 15.2911C44.0332 15.3866 43.9281 15.4905 43.817 15.6002C43.2797 16.1311 42.6047 16.798 43.3554 17.3178C44.0462 17.7959 44.4783 17.3663 44.8327 17.0139L44.8328 17.0138C44.87 16.9769 44.9063 16.9408 44.9419 16.9067C47.1148 14.8164 46.396 13.493 44.1187 15.2911ZM51.899 7.25206C53.6044 6.04671 52.9174 5.16448 51.2564 4.33399C51.0286 4.21963 51.2282 3.81936 51.457 3.93372C53.6299 4.9176 54.0338 6.29268 52.1568 7.61784C51.948 7.76488 51.6902 7.3991 51.899 7.25206ZM74.0545 23.2701C74.0545 21.4857 72.2166 19.7013 70.1753 19.0859C69.6298 18.9625 69.716 18.4778 70.1408 18.2863C70.5492 18.1011 72.9318 16.4401 72.8982 14.348C72.8982 12.3176 70.5147 9.24071 63.5713 9.24071C59.4869 9.24071 56.0832 10.1638 54.041 11.8874C54.5166 12.2568 55.0621 12.8105 55.0621 13.4259V24.687C54.994 25.3641 54.6537 25.9177 54.1082 26.5331C55.9416 27.8347 59.2246 29.0763 63.938 29.0609C68.9754 28.9375 74.0545 27.4544 74.0545 23.2701ZM67.839 14.7165C67.839 16.4469 66.0827 17.8497 63.9162 17.8497C61.7497 17.8497 59.9934 16.4469 59.9934 14.7165C59.9934 12.9861 61.7497 11.5833 63.9162 11.5833C66.0827 11.5833 67.839 12.9861 67.839 14.7165ZM64.4217 26.5159C66.8504 26.5159 68.8193 25.0351 68.8193 23.2084C68.8193 21.3818 66.8504 19.901 64.4217 19.901C61.993 19.901 60.0242 21.3818 60.0242 23.2084C60.0242 25.0351 61.993 26.5159 64.4217 26.5159ZM47.6022 15.5878C47.2737 16.3003 47.0277 17.0419 46.8743 17.8052C46.1745 18.4896 44.7767 18.0294 45.5682 16.8867C47.0014 14.8154 47.5832 15.5597 47.6022 15.5878ZM46.084 22.1612C46.3168 21.9034 46.5692 21.6239 46.828 21.3232C46.9809 22.1874 47.2474 23.0276 47.6204 23.822C46.5439 25.1871 44.5462 24.0035 45.3141 23.0432C45.5203 22.7856 45.7859 22.4914 46.0835 22.1618L46.0836 22.1616L46.0839 22.1613L46.084 22.1612ZM75.357 2.97979C75.0119 3.09506 74.6788 3.24339 74.3623 3.42271C67.7873 0.559102 59.8209 0.533688 53.1879 3.42271C52.9001 3.25571 52.5661 3.10867 52.194 2.97979C59.3562 -0.396645 68.1939 -0.396645 75.357 2.97979ZM77.6597 12.3058C76.9251 9.75047 75.1862 8.57963 74.2972 7.98105L74.2971 7.98099C74.213 7.92433 74.1364 7.87279 74.0691 7.8257C72.5034 6.73199 72.5887 5.11548 73.9266 3.72225C67.534 1.02746 59.9416 1.05832 53.6244 3.72225C54.9623 5.11548 55.0467 6.73199 53.4819 7.8257C53.4144 7.87288 53.3377 7.92452 53.2534 7.98132C52.3641 8.57997 50.6249 9.75084 49.8913 12.3058C56.7195 5.26887 70.8315 5.26796 77.6597 12.3058ZM83.1319 24.4973C82.4729 26.0012 80.3935 25.6881 79.1491 25.2189C77.4882 27.7457 74.7253 29.8024 71.3225 31.045L74.0255 35.625C79.278 33.3368 83.1655 29.5066 84.8809 24.9965C84.274 24.9296 83.6827 24.7609 83.1319 24.4973ZM86.2433 24.9457C84.4789 30.0811 80.2157 34.3652 74.4167 36.814C74.3987 36.5426 74.3339 36.2764 74.2252 36.0271C79.6257 33.6699 83.6184 29.6999 85.3475 25.0282C85.6483 25.0355 85.9489 25.0078 86.2433 24.9457ZM71.3852 36.9592L71.3816 36.951C71.3723 36.9204 71.1611 36.3792 70.878 35.6535L70.8774 35.6521L70.8756 35.6474L70.8748 35.6455L70.8732 35.6413C70.2674 34.0889 69.3374 31.7055 69.3448 31.6568C69.874 31.5206 70.3895 31.3681 70.8933 31.1975L73.6407 35.8537C74.7943 37.8505 72.2448 39.074 71.3852 36.9592ZM70.9586 37.099C71.5586 39.0795 69.009 39.7248 68.4762 37.6091C68.4762 37.6091 67.1837 32.1115 67.1892 32.0915C67.7274 32.0107 68.2566 31.9109 68.7748 31.7929C68.8892 32.0679 70.9586 37.099 70.9586 37.099ZM67.9652 37.5573C68.4662 39.8246 65.6725 40.2195 65.4828 37.9431C65.4825 37.9348 65.4695 37.7448 65.4487 37.439L65.4469 37.4121L65.4455 37.3924L65.4446 37.3787L65.4437 37.3655L65.4437 37.3651C65.3462 35.9353 65.1015 32.346 65.1161 32.3066C65.6553 32.2758 66.188 32.2249 66.7127 32.1587C66.7181 32.1705 67.9661 37.5592 67.9652 37.5573ZM124.559 3.14264C125.088 3.16701 125.5 3.18601 125.71 3.34648C126.464 3.92011 125.327 5.21078 123.209 5.63102C119.297 6.40705 112.527 6.42974 111.224 6.42974C109.546 6.42974 97.7223 6.26092 96.7711 6.20465C95.8199 6.14837 95.9878 5.36599 96.7711 5.1418C98.5047 4.58178 109.582 3.35102 111.148 3.35102C111.778 3.35102 113.456 3.3148 115.463 3.27148C118.45 3.20702 122.165 3.12683 124.239 3.12683C124.35 3.13301 124.456 3.13792 124.559 3.14264ZM108.642 7.54614C109.818 7.60242 119.886 7.54614 121.9 7.48987L121.934 7.48968L121.953 7.48948C122.249 7.48626 122.763 7.48067 122.236 8.2178C121.676 9.00109 119.494 9.84066 117.872 9.78439C109.257 9.9523 97.9002 8.66617 96.6703 8.38571C94.2415 7.83387 94.9866 6.81004 97.2857 6.93076C97.6329 6.94915 98.84 7.01519 100.349 7.09775C103.459 7.26792 107.851 7.50825 108.642 7.54614ZM96.614 9.22528C100.083 9.9523 116.586 11.1831 117.984 11.1831C119.439 11.2384 117.033 13.1971 114.964 13.2525C108.754 13.1409 96.5196 10.7792 95.4958 10.5677C94.2778 10.3163 93.597 8.76601 96.614 9.22528ZM95.2726 11.4063C98.796 12.3576 111.832 14.427 113.789 14.6512C113.789 14.6512 115.305 15.2321 111.733 15.9464C110.678 16.1463 109.603 16.2188 108.53 16.1624C106.002 16.0272 94.8932 13.3233 93.8739 13.0292C92.7275 12.6988 92.0849 10.5804 95.2726 11.4063ZM92.5306 13.4767C95.7754 14.7065 107.132 17.2806 108.53 17.5602C109.254 18.2572 106.46 19.0705 104.95 19.0705C100.81 18.8463 92.0831 15.2103 91.4677 14.9307C90.4738 14.4787 90.9503 12.9257 92.5306 13.4767ZM102.152 19.7984C99.1318 19.1268 91.2989 15.8257 90.0128 15.2103C89.9011 15.4345 88.8664 16.1615 88.418 16.3848C90.2669 18.1864 94.6272 19.7866 96.7647 20.4719C97.1505 20.5953 102.711 22.1147 102.979 20.3285C103.015 20.0952 102.572 19.91 102.152 19.7984ZM96.5015 21.3087C93.9846 20.5263 88.5015 17.6718 87.6629 17.1127C87.5325 17.1874 87.3649 17.2869 87.1868 17.3926L87.1865 17.3928C86.8303 17.6042 86.4324 17.8403 86.2079 17.9523C86.8796 18.5676 91.0248 21.9268 93.8639 22.367C96.4325 23.0995 97.8167 21.7471 96.5015 21.3087ZM88.4421 20.8718C87.2828 20.0993 85.8924 19.1728 85.0906 18.6239C84.7539 18.7909 84.0268 19.0423 83.7482 19.1277C85.1796 21.1998 86.8651 22.3589 88.2574 22.9289C90.4965 23.7421 90.9867 23.2529 90.9994 22.9951C91.0217 22.5372 90.1451 21.9817 89.5673 21.6156C89.4649 21.5507 89.3718 21.4917 89.2948 21.4403C89.0366 21.268 88.7473 21.0752 88.4421 20.8718ZM83.3666 20.2735C83.0805 19.979 82.8103 19.7009 82.5719 19.4626C82.2676 19.6033 81.904 19.7045 81.5635 19.7993L81.5623 19.7997L81.5618 19.7998L81.5583 19.8008L81.5572 19.8011C81.4936 19.8188 81.4307 19.8363 81.3693 19.8538C81.6643 20.8703 82.4503 21.886 83.2635 22.6548C83.8381 23.1975 85.4355 24.6162 85.9429 23.6305C86.2662 23.0033 85.7206 22.539 85.1499 22.0533C84.8921 21.8339 84.6292 21.6101 84.4389 21.365C84.0769 21.0044 83.7102 20.6271 83.3666 20.2735ZM102.041 2.90355C101.351 2.90355 99.8822 2.97902 98.337 3.05841C96.6228 3.14648 94.8148 3.23937 93.873 3.23937C92.2555 3.23937 90.4585 3.14968 88.6061 3.05722C84.5658 2.85556 80.262 2.64074 76.9817 3.31471C74.0074 3.92555 73.5808 4.7869 73.5808 5.7127C73.5808 6.90391 74.5645 7.62458 75.2762 8.14603L75.2999 8.16334C75.3613 8.20835 75.432 8.25816 75.5103 8.31335L75.5104 8.31342C76.503 9.01267 78.7217 10.5757 78.8252 14.2055C78.8961 14.176 78.9702 14.1476 79.0451 14.119C79.6789 13.8767 80.3762 13.6101 79.7764 12.3594C79.5906 11.988 79.3681 11.6037 79.1432 11.2152C77.9483 9.15136 76.6836 6.96681 80.4762 5.94324C81.1868 5.75173 82.0627 5.62647 83.1337 5.59017C84.0264 5.55997 85.0278 5.53615 86.0459 5.51193C88.7916 5.44661 91.6587 5.3784 92.8419 5.17447C93.5678 5.04934 95.1957 4.69366 96.8879 4.3239L96.8881 4.32386C98.9767 3.86751 101.163 3.38972 101.874 3.29746C102.433 3.23847 102.433 2.95891 102.041 2.90355ZM88.2063 6.30347C88.5721 6.30451 88.8834 6.3054 89.1069 6.3054C89.7786 6.36076 89.499 7.59153 88.4343 7.3147C89.5544 7.92917 88.939 8.71337 87.8752 8.54455C88.4915 9.38321 87.5403 9.88696 86.7008 9.6074C87.7082 10.9507 86.1416 11.0061 85.5825 10.5586C86.4212 12.2922 85.0225 12.2368 84.1839 11.5652C84.743 12.8513 83.5685 12.963 82.6164 12.4038C83.3443 13.2425 82.5047 13.8025 82.0573 13.4667C81.5535 13.0192 80.2919 11.7694 79.8199 11.1731C77.4101 8.1225 79.7927 6.49691 83.1292 6.33807C84.1059 6.29177 86.6499 6.29903 88.2063 6.30347ZM92.584 5.69352C92.5047 5.70129 92.4386 5.70777 92.3899 5.71089C91.4949 5.76716 90.6345 5.89877 90.6154 6.25003C90.5964 6.59221 91.2562 6.84454 92.0822 6.99793C92.5305 7.08143 94.7134 7.4817 94.7606 6.42158C94.8027 5.47625 93.2421 5.62908 92.584 5.69352ZM92.5444 7.53743C92.4511 7.53433 92.3711 7.53167 92.3109 7.52708C91.2499 7.4463 90.0073 7.39911 90.0073 7.7431C90.0073 8.13702 90.4856 8.63259 91.4114 8.85769C93.5217 9.37051 94.1516 8.75331 94.236 8.44834C94.4707 7.60147 93.1897 7.55888 92.5444 7.53743ZM91.1026 9.12118L91.1026 9.12118L91.102 9.1211C91.0388 9.11306 90.9881 9.1066 90.954 9.10094C89.8775 8.92395 89.0152 8.82955 88.8782 9.10911C88.4198 10.0494 91.3515 10.8754 91.7472 10.8282C91.892 10.8109 92.0225 10.8105 92.1404 10.8101C92.5109 10.809 92.7568 10.8083 92.9317 10.2836C93.2279 9.39176 91.6675 9.1931 91.1026 9.12118ZM91.8189 12.1252C91.907 11.8357 91.9324 11.2992 89.9819 10.5069C89.2812 10.2219 88.5532 10.0594 88.2646 10.5214C88.0341 10.8899 88.0468 11.4109 88.9844 11.8692C90.836 12.7742 91.73 12.4156 91.8189 12.1252ZM90.3694 13.5729C90.5301 13.1935 90.6463 12.5473 88.615 11.8393C87.4813 11.4354 86.5138 11.3328 86.3477 11.7267C86.1643 12.1606 86.8305 12.707 87.8544 13.3587C89.5507 14.4388 90.1925 13.9922 90.3694 13.5729ZM88.2592 15.1331C88.595 14.6348 88.3527 14.1973 87.8199 13.8742C85.882 12.6988 85.2803 12.677 85.087 12.9602C84.9 13.2352 85.1124 13.611 85.4418 13.9686C85.8866 14.4506 87.6592 16.0263 88.2592 15.1331ZM86.4221 16.0662C86.7516 15.8166 86.9785 15.2321 84.6132 14.0258C83.4832 13.4531 83.1373 14.2482 83.7663 14.9743C85.2004 16.6316 86.0581 16.3421 86.4221 16.0662ZM83.7332 15.6004C83.6221 15.4906 83.5169 15.3867 83.4314 15.2911C81.1551 13.493 80.4362 14.8164 82.6091 16.9067C82.6444 16.9406 82.6804 16.9764 82.7173 17.0131C83.0712 17.3656 83.5035 17.7963 84.1957 17.3178C84.9455 16.7981 84.2706 16.1313 83.7332 15.6004ZM76.2946 4.33399C74.6336 5.16448 73.9465 6.04671 75.6529 7.25206C75.8608 7.3991 75.603 7.76488 75.3942 7.61784C73.5181 6.29268 73.922 4.9176 76.0949 3.93372C76.3227 3.81936 76.5224 4.21963 76.2946 4.33399ZM79.9479 15.5879C80.2774 16.3004 80.5224 17.0419 80.6767 17.8052C81.3765 18.4896 82.7743 18.0294 81.9819 16.8867C80.5487 14.8154 79.9669 15.5597 79.9479 15.5879ZM81.4686 22.1636C81.235 21.9051 80.9817 21.6248 80.7221 21.3232C80.5723 22.1855 80.3037 23.0224 79.9306 23.822C81.0071 25.1871 83.0048 24.0035 82.237 23.0432C82.0311 22.7861 81.7658 22.4925 81.4686 22.1636Z" fill="#A09C9C"/>
</svg>
