<svg width="41" height="40" viewBox="0 0 41 40" fill="none" xmlns="http://www.w3.org/2000/svg">
<g clip-path="url(#clip0_413_241)">
<path d="M20.6973 21.46C20.6373 21.46 20.5223 21.3833 20.3273 21.0266C19.5112 19.5071 18.3907 18.1721 17.0356 17.105C15.9723 16.271 14.7918 15.5982 13.5323 15.1083C13.3414 15.0308 13.1497 14.9552 12.9573 14.8816C11.2706 14.215 9.52231 13.5266 7.89897 12.5866C7.71903 12.4848 7.54121 12.3792 7.36564 12.27C7.68897 11.7033 8.06564 11.1616 8.48231 10.6666C9.087 9.94389 9.78993 9.30939 10.5706 8.78164C11.4089 8.22121 12.315 7.7698 13.2673 7.43831C15.2973 6.71498 17.729 6.35998 20.6973 6.35664C23.669 6.35998 26.099 6.71498 28.129 7.43998C29.0819 7.77033 29.9887 8.22121 30.8273 8.78164C31.6123 9.31331 32.314 9.94664 32.9156 10.665C33.3323 11.1616 33.7073 11.7033 34.0323 12.27C33.8606 12.3766 33.679 12.485 33.499 12.59C31.8723 13.53 30.1273 14.2183 28.4373 14.8833L27.8623 15.11C26.604 15.6003 25.4247 16.273 24.3623 17.1066C23.0067 18.1739 21.8861 19.5096 21.0706 21.03C20.8756 21.385 20.759 21.46 20.6973 21.46ZM20.6973 33.2483C18.124 33.245 16.034 33.0333 14.314 32.6033C12.6256 32.1833 11.2223 31.5366 10.0206 30.6233C9.09951 29.9159 8.31358 29.0481 7.70064 28.0616C7.12643 27.1412 6.67272 26.1509 6.35064 25.115C5.84834 23.505 5.58608 21.8298 5.57231 20.1433C5.57231 19.02 5.65064 17.955 5.79731 16.975C7.64064 17.9683 9.38564 18.4666 10.9306 18.9083L11.289 19.0083C13.439 19.6266 15.1456 20.4366 16.514 21.4883C17.3056 22.1016 17.9973 22.81 18.564 23.595C19.179 24.4416 19.669 25.4083 20.0256 26.47C20.1856 26.9516 20.359 27.25 20.6973 27.25C21.0423 27.25 21.2106 26.95 21.3723 26.47C22.0085 24.4911 23.2336 22.7537 24.884 21.49C26.2506 20.4366 27.959 19.6266 30.109 19.0083L30.469 18.9083C32.0123 18.4666 33.7573 17.9683 35.599 16.975C35.749 17.9566 35.8256 19.02 35.8256 20.1416C35.8256 20.905 35.749 22.915 35.0506 25.115C34.7288 26.1507 34.2756 27.141 33.7023 28.0616C33.0875 29.0488 32.2992 29.9166 31.3756 30.6233C30.1706 31.5366 28.7673 32.1833 27.0856 32.6033C25.3606 33.0333 23.2723 33.245 20.6973 33.2483ZM36.8506 8.98831C33.669 5.57164 28.534 4.00498 20.6973 3.99664C12.864 4.00498 7.72897 5.56998 4.54731 8.98664C2.18231 11.5216 0.698975 15.03 0.698975 19.79C0.698975 22.4216 1.34897 29.1233 6.63897 32.5833C9.80564 34.6533 13.8956 35.9933 20.6973 36.0033C27.5023 35.9933 31.5906 34.6533 34.759 32.5833C40.0473 29.1233 40.699 22.42 40.699 19.79C40.699 15.0433 39.204 11.51 36.849 8.98498L36.8506 8.98831Z" fill="#A09C9C"/>
</g>
<defs>
<clipPath id="clip0_413_241">
<rect width="40" height="40" fill="white" transform="translate(0.698975)"/>
</clipPath>
</defs>
</svg>
