<svg width="172" height="52" viewBox="0 0 172 52" fill="none" xmlns="http://www.w3.org/2000/svg">
<path d="M4.26822 4.26442H42.4038V9.59238H45.6682V1H1V9.59238H4.26822V4.26442Z" fill="#FF2501" stroke="#FF2501"/>
<path d="M42.4076 40.363C36.4678 45.6606 29.8174 48.0358 23.3341 48.0016C16.8509 48.0358 10.2004 45.6568 4.26062 40.363V36.844H1V41.2485C1 41.2485 8.87794 51 23.2999 51H23.3645C37.7865 51 45.653 41.2599 45.6644 41.2485V36.844H42.4038V40.363H42.4076Z" fill="#FF2501" stroke="#FF2501"/>
<path d="M1 12.8607V33.5759H45.672V12.8607H1ZM42.4038 30.3115H4.26822V16.1289H42.4038V30.3115Z" fill="#FF2501" stroke="#FF2501"/>
<path d="M61.0862 24.5121C59.7561 24.5121 58.5932 24.2765 57.6052 23.8052C56.6171 23.334 55.8001 22.7184 55.154 21.9583C54.508 21.1983 54.0253 20.3774 53.7023 19.4957C53.3793 18.6141 53.2159 17.7552 53.2159 16.923V16.4783C53.2159 15.5625 53.3793 14.658 53.7099 13.765C54.0405 12.8719 54.5384 12.0586 55.2034 11.3328C55.8685 10.6069 56.6893 10.0255 57.666 9.58847C58.6427 9.15145 59.7827 8.93103 61.0862 8.93103C62.3897 8.93103 63.5146 9.15145 64.4988 9.58847C65.4793 10.0255 66.304 10.6069 66.9614 11.3328C67.6189 12.0586 68.1167 12.8719 68.4549 13.765C68.7893 14.6618 68.9604 15.5663 68.9604 16.4783V16.923C68.9604 17.759 68.8007 18.6141 68.4777 19.4957C68.1547 20.3774 67.6721 21.1983 67.026 21.9583C66.38 22.7184 65.5629 23.334 64.5749 23.8052C63.5868 24.2765 62.4239 24.5121 61.0938 24.5121H61.0862ZM61.0862 21.4035C61.7855 21.4035 62.4163 21.2819 62.9749 21.0387C63.5336 20.7954 64.0086 20.461 64.4 20.0278C64.7915 19.5984 65.0879 19.1005 65.2969 18.5343C65.5059 17.968 65.6085 17.3638 65.6085 16.7178C65.6085 16.0299 65.5021 15.4029 65.2969 14.829C65.0879 14.259 64.7839 13.7612 64.3886 13.3469C63.9934 12.9289 63.5146 12.6059 62.9559 12.3779C62.3973 12.1498 61.7741 12.0358 61.09 12.0358C60.406 12.0358 59.7637 12.1498 59.2127 12.3779C58.6617 12.6059 58.1866 12.9289 57.7914 13.3469C57.3962 13.765 57.0959 14.259 56.8945 14.829C56.6931 15.4029 56.5905 16.0299 56.5905 16.7178C56.5905 17.3638 56.6931 17.968 56.8945 18.5343C57.0959 19.1005 57.3962 19.5984 57.7914 20.0278C58.1866 20.4572 58.6617 20.7954 59.2127 21.0387C59.7637 21.2819 60.3908 21.4035 61.09 21.4035H61.0862Z" fill="black"/>
<path d="M69.8265 12.2829V9.37573H81.4515V12.2829H69.8265ZM73.984 24.1093V11.8801H77.294V24.1131H73.984V24.1093Z" fill="black"/>
<path d="M82.4205 12.2829V9.37573H94.0455V12.2829H82.4205ZM86.578 24.1093V11.8801H89.888V24.1131H86.578V24.1093Z" fill="black"/>
<path d="M102.786 24.5121C101.456 24.5121 100.293 24.2765 99.3051 23.8052C98.317 23.334 97.4999 22.7184 96.8539 21.9583C96.2079 21.1983 95.7252 20.3774 95.4022 19.4957C95.0792 18.6141 94.9158 17.7552 94.9158 16.923V16.4783C94.9158 15.5625 95.0792 14.658 95.4098 13.765C95.7404 12.8719 96.2383 12.0586 96.9033 11.3328C97.5684 10.6069 98.3892 10.0255 99.3659 9.58847C100.343 9.15145 101.483 8.93103 102.786 8.93103C104.09 8.93103 105.214 9.15145 106.199 9.58847C107.179 10.0255 108.004 10.6069 108.661 11.3328C109.319 12.0586 109.817 12.8719 110.155 13.765C110.489 14.6618 110.66 15.5663 110.66 16.4783V16.923C110.66 17.759 110.501 18.6141 110.178 19.4957C109.855 20.3774 109.372 21.1983 108.726 21.9583C108.08 22.7184 107.263 23.334 106.275 23.8052C105.287 24.2765 104.124 24.5121 102.794 24.5121H102.786ZM102.786 21.4035C103.485 21.4035 104.116 21.2819 104.675 21.0387C105.233 20.7954 105.709 20.461 106.1 20.0278C106.491 19.5984 106.788 19.1005 106.997 18.5343C107.206 17.968 107.308 17.3638 107.308 16.7178C107.308 16.0299 107.202 15.4029 106.997 14.829C106.788 14.259 106.484 13.7612 106.089 13.3469C105.693 12.9289 105.214 12.6059 104.656 12.3779C104.097 12.1498 103.474 12.0358 102.79 12.0358C102.106 12.0358 101.464 12.1498 100.913 12.3779C100.362 12.6059 99.8865 12.9289 99.4913 13.3469C99.0961 13.765 98.7958 14.259 98.5944 14.829C98.393 15.4029 98.2904 16.0299 98.2904 16.7178C98.2904 17.3638 98.393 17.968 98.5944 18.5343C98.7958 19.1005 99.0961 19.5984 99.4913 20.0278C99.8865 20.4572 100.362 20.7954 100.913 21.0387C101.464 21.2819 102.091 21.4035 102.79 21.4035H102.786Z" fill="black"/>
<path d="M60.7818 41.9249C59.4517 41.9249 58.3078 41.6893 57.3502 41.2181C56.3963 40.7469 55.6096 40.135 54.9978 39.3826C54.3859 38.6301 53.9337 37.8092 53.6449 36.92C53.3561 36.0307 53.2117 35.1719 53.2117 34.3358V33.8912C53.2117 32.9753 53.3599 32.0709 53.6563 31.1778C53.9527 30.2847 54.4088 29.4715 55.0282 28.7456C55.6476 28.0198 56.4229 27.4383 57.3578 27.0013C58.2926 26.5643 59.3985 26.3439 60.6792 26.3439C61.9599 26.3439 63.1873 26.5947 64.2096 27.0925C65.2319 27.5904 66.0489 28.282 66.6608 29.1713C67.2726 30.0605 67.6336 31.0866 67.7401 32.2609H64.411C64.316 31.668 64.0994 31.1626 63.7536 30.7484C63.4116 30.3303 62.9783 30.0111 62.4501 29.7907C61.9257 29.5703 61.3328 29.4563 60.6754 29.4563C60.0179 29.4563 59.4289 29.5665 58.9197 29.7907C58.4066 30.0111 57.981 30.3341 57.639 30.7484C57.2969 31.1664 57.0347 31.6604 56.8523 32.2305C56.6699 32.8043 56.5787 33.439 56.5787 34.1382C56.5787 34.8374 56.6699 35.4531 56.8523 36.0269C57.0347 36.597 57.3045 37.0948 57.658 37.5204C58.0152 37.9461 58.456 38.2691 58.9805 38.4895C59.5049 38.7099 60.1053 38.8239 60.778 38.8239C61.8003 38.8239 62.6667 38.5769 63.3736 38.0791C64.0804 37.5812 64.506 36.8934 64.6542 36.0193H67.9643C67.8427 37.0948 67.4816 38.0829 66.885 38.9759C66.2846 39.8728 65.4713 40.5872 64.4414 41.1269C63.4116 41.6665 62.1917 41.9325 60.778 41.9325L60.7818 41.9249Z" fill="black"/>
<path d="M73.1364 41.8033C72.3422 41.8033 71.6467 41.6626 71.0463 41.3776C70.4458 41.0964 69.9784 40.6898 69.644 40.1577C69.3096 39.6257 69.1385 38.9911 69.1385 38.25C69.1385 37.4444 69.3476 36.7793 69.7656 36.2625C70.1836 35.7456 70.7689 35.3618 71.5213 35.111C72.2738 34.864 73.144 34.7386 74.1245 34.7386H76.4845V36.5361H74.1017C73.5354 36.5361 73.1022 36.6729 72.7982 36.9503C72.4942 37.2277 72.3422 37.6002 72.3422 38.0714C72.3422 38.516 72.4942 38.8771 72.7982 39.1507C73.1022 39.4243 73.5354 39.5649 74.1017 39.5649C74.4665 39.5649 74.7895 39.5003 75.0822 39.3749C75.371 39.2457 75.6104 39.0291 75.7966 38.7174C75.9866 38.4096 76.093 37.9764 76.1196 37.4254L76.8873 38.231C76.8189 38.9987 76.6365 39.6447 76.3324 40.1691C76.0284 40.6936 75.6142 41.0964 75.0822 41.3814C74.5501 41.6626 73.9003 41.8071 73.1326 41.8071L73.1364 41.8033ZM76.6669 41.522V38.2538H76.1234V34.7234C76.1234 34.1457 75.9904 33.7163 75.7206 33.4427C75.4508 33.1691 75.0213 33.0285 74.4285 33.0285C74.1321 33.0285 73.7407 33.0361 73.258 33.0475C72.7716 33.0627 72.2738 33.0779 71.7531 33.0969C71.2363 33.1159 70.7689 33.1425 70.3508 33.1691V30.4443C70.6739 30.4177 71.0425 30.3911 71.4605 30.3645C71.8785 30.3379 72.308 30.3189 72.7526 30.3037C73.1972 30.2885 73.6153 30.2847 74.0029 30.2847C75.1316 30.2847 76.0854 30.4443 76.8607 30.7673C77.6359 31.0903 78.2212 31.5768 78.6278 32.2304C79.0306 32.884 79.232 33.7201 79.232 34.7424V41.5258H76.6669V41.522Z" fill="black"/>
<path d="M81.957 41.5221V30.4596H84.5411V35.2213H84.4803C84.4803 33.648 84.8148 32.4357 85.4798 31.5883C86.1449 30.7408 87.1101 30.3152 88.3756 30.3152H88.8012V33.1198H87.9956C87.1063 33.1198 86.4223 33.3554 85.9358 33.8266C85.4494 34.2979 85.21 34.9819 85.21 35.8864V41.5183H81.9608L81.957 41.5221Z" fill="black"/>
<path d="M100.02 41.9251C98.6857 41.9251 97.5646 41.7085 96.6487 41.279C95.7329 40.8496 95.0374 40.2682 94.5586 39.5347C94.0797 38.8013 93.8403 37.9576 93.8403 37H97.0706C97.0706 37.3762 97.1732 37.7258 97.3822 38.0488C97.5912 38.3718 97.9104 38.6303 98.3398 38.8241C98.7693 39.0179 99.3279 39.1167 100.016 39.1167C100.635 39.1167 101.152 39.0369 101.57 38.8735C101.988 38.7101 102.304 38.4859 102.52 38.197C102.737 37.9082 102.843 37.5738 102.843 37.1976C102.843 36.7263 102.642 36.3539 102.239 36.0765C101.836 35.7991 101.182 35.6205 100.282 35.5407L99.1721 35.4608C97.7052 35.3278 96.5347 34.8642 95.6607 34.0776C94.7866 33.2909 94.3496 32.2458 94.3496 30.9385C94.3496 29.9847 94.5738 29.1638 95.026 28.476C95.4782 27.7881 96.1053 27.2637 96.9147 26.8913C97.7204 26.5226 98.6781 26.3364 99.7801 26.3364C100.882 26.3364 101.931 26.5378 102.756 26.9407C103.58 27.3435 104.219 27.9059 104.663 28.6242C105.108 29.3424 105.329 30.1823 105.329 31.1362H102.098C102.098 30.7713 102.011 30.4407 101.836 30.1367C101.661 29.8327 101.403 29.5932 101.061 29.4108C100.719 29.2284 100.289 29.1372 99.7801 29.1372C99.2975 29.1372 98.8871 29.2132 98.5603 29.369C98.2296 29.5248 97.9864 29.7377 97.823 30.0151C97.6634 30.2925 97.5798 30.5965 97.5798 30.9347C97.5798 31.3376 97.728 31.6948 98.0244 32.0026C98.3208 32.3104 98.8035 32.4928 99.4761 32.546L100.605 32.6487C101.68 32.7437 102.63 32.9755 103.451 33.3441C104.272 33.7127 104.914 34.2182 105.378 34.8566C105.842 35.495 106.073 36.2741 106.073 37.1862C106.073 38.0982 105.826 38.9571 105.336 39.6677C104.846 40.3784 104.15 40.9332 103.246 41.3246C102.345 41.7161 101.27 41.9099 100.016 41.9099L100.02 41.9251Z" fill="black"/>
<path d="M113.222 41.925C112.279 41.925 111.447 41.7654 110.729 41.4386C110.01 41.1156 109.406 40.6785 108.923 40.1275C108.441 39.5765 108.072 38.9608 107.825 38.2806C107.574 37.6003 107.453 36.9049 107.453 36.1904V35.7876C107.453 35.0465 107.578 34.3397 107.825 33.6594C108.076 32.9792 108.437 32.3712 108.916 31.8315C109.395 31.2919 109.984 30.8663 110.691 30.5508C111.397 30.2354 112.199 30.0758 113.104 30.0758C114.289 30.0758 115.285 30.3418 116.102 30.8739C116.915 31.4059 117.539 32.0975 117.968 32.9526C118.398 33.8077 118.614 34.7387 118.614 35.7496V36.8403H108.825V35.0047H116.657L115.589 35.8712C115.589 35.1986 115.498 34.6285 115.315 34.1649C115.133 33.7013 114.859 33.344 114.487 33.097C114.118 32.8462 113.655 32.7246 113.104 32.7246C112.553 32.7246 112.062 32.85 111.671 33.097C111.28 33.3478 110.983 33.7165 110.782 34.2067C110.58 34.6969 110.478 35.3012 110.478 36.0118C110.478 36.6693 110.573 37.2469 110.759 37.7371C110.945 38.2274 111.245 38.6074 111.648 38.8772C112.051 39.147 112.576 39.28 113.222 39.28C113.814 39.28 114.297 39.166 114.673 38.938C115.049 38.71 115.304 38.425 115.441 38.0905H118.409C118.249 38.8316 117.93 39.489 117.459 40.0705C116.988 40.6481 116.395 41.1042 115.684 41.431C114.97 41.7616 114.149 41.925 113.222 41.925Z" fill="black"/>
<path d="M120.727 41.5221V30.4596H123.311V35.2213H123.251C123.251 33.648 123.585 32.4357 124.25 31.5883C124.915 30.7408 125.88 30.3152 127.146 30.3152H127.571V33.1198H126.766C125.877 33.1198 125.192 33.3554 124.706 33.8266C124.22 34.2979 123.98 34.9819 123.98 35.8864V41.5183H120.731L120.727 41.5221Z" fill="black"/>
<path d="M131.71 41.5221L128.4 30.4596H131.729L134.837 41.5221H131.71ZM132.698 41.5221V38.8392H135.966V41.5221H132.698ZM133.91 41.5221L136.574 30.4596H139.702L136.836 41.5221H133.91Z" fill="black"/>
<path d="M140.648 32.8652V30.4635H145.372V32.8652H140.648ZM143.392 29.3728C142.787 29.3728 142.339 29.2132 142.05 28.8978C141.761 28.5823 141.617 28.1833 141.617 27.6969C141.617 27.2104 141.761 26.7924 142.05 26.477C142.339 26.1616 142.787 26.002 143.392 26.002C143.996 26.002 144.444 26.1616 144.733 26.477C145.022 26.7924 145.166 27.199 145.166 27.6969C145.166 28.1947 145.022 28.5823 144.733 28.8978C144.444 29.2132 143.996 29.3728 143.392 29.3728ZM142.119 41.5222V30.4597H145.368V41.5222H142.119Z" fill="black"/>
<path d="M153.326 41.9252C152.357 41.9252 151.521 41.7655 150.821 41.4387C150.122 41.1157 149.537 40.6863 149.066 40.1466C148.594 39.607 148.241 38.999 148.005 38.3187C147.77 37.6385 147.652 36.9354 147.652 36.2096V35.8257C147.652 35.0733 147.774 34.3474 148.017 33.6558C148.26 32.9641 148.617 32.3485 149.096 31.8089C149.575 31.2692 150.168 30.8474 150.871 30.5358C151.578 30.228 152.387 30.0721 153.303 30.0721C154.299 30.0721 155.18 30.2622 155.948 30.646C156.716 31.0298 157.327 31.5656 157.783 32.2497C158.239 32.9375 158.498 33.7318 158.551 34.6325H155.382C155.328 34.1232 155.127 33.6938 154.777 33.3518C154.428 33.0097 153.938 32.8387 153.303 32.8387C152.763 32.8387 152.319 32.9717 151.961 33.2416C151.604 33.5114 151.338 33.8838 151.163 34.3626C150.989 34.8415 150.901 35.3963 150.901 36.0271C150.901 36.62 150.981 37.1558 151.144 37.6309C151.308 38.1059 151.566 38.4783 151.92 38.7405C152.277 39.0028 152.744 39.1358 153.322 39.1358C153.751 39.1358 154.12 39.0598 154.42 38.9039C154.724 38.7481 154.96 38.5353 155.138 38.2579C155.313 37.9805 155.427 37.6613 155.48 37.3002H158.631C158.589 38.2161 158.334 39.018 157.863 39.7134C157.392 40.405 156.765 40.9485 155.986 41.3399C155.207 41.7313 154.318 41.9252 153.322 41.9252H153.326Z" fill="black"/>
<path d="M165.756 41.925C164.814 41.925 163.982 41.7654 163.263 41.4386C162.545 41.1156 161.941 40.6785 161.458 40.1275C160.976 39.5765 160.607 38.9608 160.36 38.2806C160.109 37.6003 159.988 36.9049 159.988 36.1904V35.7876C159.988 35.0465 160.113 34.3397 160.36 33.6594C160.611 32.9792 160.972 32.3712 161.451 31.8315C161.93 31.2919 162.519 30.8663 163.225 30.5508C163.932 30.2354 164.734 30.0758 165.639 30.0758C166.824 30.0758 167.82 30.3418 168.637 30.8739C169.45 31.4059 170.074 32.0975 170.503 32.9526C170.932 33.8077 171.149 34.7387 171.149 35.7496V36.8403H161.36V35.0047H169.192L168.124 35.8712C168.124 35.1986 168.033 34.6285 167.85 34.1649C167.668 33.7013 167.394 33.344 167.022 33.097C166.653 32.8462 166.19 32.7246 165.639 32.7246C165.088 32.7246 164.597 32.85 164.206 33.097C163.814 33.3478 163.518 33.7165 163.317 34.2067C163.115 34.6969 163.013 35.3012 163.013 36.0118C163.013 36.6693 163.108 37.2469 163.294 37.7371C163.48 38.2274 163.78 38.6074 164.183 38.8772C164.586 39.147 165.11 39.28 165.756 39.28C166.349 39.28 166.832 39.166 167.208 38.938C167.584 38.71 167.839 38.425 167.976 38.0905H170.944C170.784 38.8316 170.465 39.489 169.994 40.0705C169.522 40.6481 168.93 41.1042 168.219 41.431C167.505 41.7616 166.684 41.925 165.756 41.925Z" fill="black"/>
</svg>
