<svg width="99" height="40" viewBox="0 0 99 40" fill="none" xmlns="http://www.w3.org/2000/svg">
<g clip-path="url(#clip0_413_243)">
<path fill-rule="evenodd" clip-rule="evenodd" d="M93.6536 34.0677C92.9536 34.0677 92.2439 34.0677 91.5439 34.0677C91.5926 33.9608 91.6412 33.8635 91.6898 33.7663C92.0398 33.0761 92.3995 32.8524 93.1772 32.8524C93.537 32.8524 93.8967 32.8524 94.2564 32.8524C94.0619 33.251 93.8578 33.6594 93.6536 34.0677Z" fill="#A09C9C"/>
<path fill-rule="evenodd" clip-rule="evenodd" d="M91.3787 38.7634C92.0203 37.4607 92.6717 36.1579 93.3133 34.8552C92.6134 34.8552 91.9037 34.8552 91.2037 34.8552C90.6495 35.9829 90.0856 37.101 89.5315 38.2287C89.337 38.6079 89.0843 38.7634 88.6371 38.7634C86.926 38.7634 85.2149 38.7634 83.5039 38.7634C84.2038 37.3732 84.8941 35.9829 85.5844 34.583C85.876 33.9997 85.983 33.9608 86.6732 33.9608C86.8774 33.9608 87.0816 33.9608 87.2857 33.9608C87.8788 33.9608 88.1607 33.7955 88.4037 33.3191C88.501 33.1247 88.5885 32.9302 88.6857 32.7455C87.9565 32.7455 87.2274 32.7455 86.4982 32.7455C86.8093 32.1136 87.1302 31.4817 87.4413 30.8497C86.9843 30.8497 86.5177 30.8497 86.0607 30.8497C85.458 30.8497 85.176 31.0053 84.9427 31.4817C84.7386 31.8997 84.5247 32.3275 84.3205 32.7455C83.9316 32.7455 83.5525 32.7455 83.1636 32.7455C82.9692 33.1538 82.765 33.5524 82.5608 33.9608C82.9497 33.9608 83.3289 33.9608 83.7177 33.9608C83.4747 34.4371 81.822 37.7523 81.5886 38.2287C81.4039 38.6079 81.1414 38.7634 80.7039 38.7634C79.1776 38.7634 77.661 38.7634 76.1443 38.7634C76.9513 37.2857 77.7582 35.8079 78.5651 34.3302C78.0109 34.3302 77.4471 34.3302 76.8929 34.3302C76.504 34.3302 76.3388 34.4566 76.086 34.758C76.086 34.4371 75.9693 34.3302 75.668 34.3302C75.2791 34.3302 74.8902 34.3302 74.511 34.3302C72.6055 34.3302 71.5361 34.9232 70.7097 36.4301C70.3792 37.0329 70.0486 37.6357 69.7278 38.2384C69.5139 38.6176 69.2612 38.7634 68.8334 38.7634C67.8612 38.7634 66.8793 38.7634 65.8974 38.7731C64.8377 38.7731 64.4196 38.6176 64.303 38.0537C64.1766 37.4607 64.4391 36.9649 65.8682 36.0218C66.1404 35.8468 66.4029 35.6718 66.6751 35.4871C67.0446 35.2441 67.2001 35.108 67.1515 34.8455C67.1029 34.6024 66.9571 34.3302 65.8001 34.3302C63.953 34.3399 62.1155 34.3399 60.2683 34.3399C59.685 34.3399 59.4128 34.4858 59.1503 34.9718C58.5573 36.0607 57.9545 37.1496 57.3615 38.2384C57.1573 38.6176 56.9045 38.7731 56.4768 38.7731C53.5213 38.7731 50.5658 38.7731 47.6103 38.7731C47.7367 38.4037 47.8631 38.0246 47.9895 37.6551C49.4672 37.6551 50.9352 37.6551 52.413 37.6551C53.288 37.6551 53.6477 37.4315 53.9685 36.6926C54.1046 36.3621 54.2504 36.0218 54.3865 35.6913C54.4935 35.4482 54.581 35.0885 54.406 34.8163C54.1921 34.5052 53.6574 34.3399 52.8602 34.3399C51.4408 34.3399 50.0214 34.3399 48.602 34.3399C47.2409 34.3399 46.6284 34.7191 46.152 35.8371C45.8506 36.5274 45.559 37.2273 45.2673 37.9176C44.9659 38.6273 44.4896 38.7731 43.809 38.7731C42.7979 38.7731 41.7869 38.7731 40.7661 38.7731C40.8341 38.6759 40.9022 38.5787 40.9605 38.4815C41.5633 37.5773 41.4466 36.576 40.6494 35.7204C39.8522 34.8844 38.8119 34.5927 37.8786 34.3399C37.0911 34.3399 36.3037 34.3399 35.5162 34.3302C34.9718 35.3218 34.437 36.3135 33.8926 37.3051C33.2121 38.5495 32.4732 38.7634 31.1705 38.7634C30.2177 38.7634 29.265 38.7634 28.3122 38.7634C29.1191 37.2857 29.9261 35.8079 30.733 34.3302C30.1788 34.3302 29.6149 34.3302 29.0608 34.3302C28.6622 34.3302 28.4969 34.4566 28.2539 34.758C28.2539 34.4371 28.1372 34.3302 27.8261 34.3302C27.4469 34.3302 27.0581 34.3302 26.6789 34.3302C24.7734 34.3302 23.704 34.9232 22.8776 36.4301C22.5471 37.0329 22.2165 37.6357 21.8957 38.2384C21.6818 38.6176 21.4388 38.7634 21.0013 38.7634C19.5527 38.7634 18.0944 38.7634 16.6458 38.7634C17.8805 36.5079 19.1055 34.2524 20.3402 31.9969C20.5541 31.608 20.2721 31.1219 19.8249 31.1219C14.0501 31.1219 8.27521 31.1219 2.50035 31.1219C1.32399 31.1219 0.740676 31.4233 0.186523 32.3664C2.68507 32.3664 5.1739 32.3664 7.67245 32.3664C6.2822 34.9135 4.89196 37.4607 3.50172 39.9981C4.22114 39.9981 4.94057 39.9981 5.66 39.9981C7.05024 37.4607 8.44048 34.9135 9.83072 32.3761C10.8321 32.3761 11.8335 32.3761 12.8251 32.3761C11.4349 34.9135 10.0446 37.4607 8.65437 39.9981C9.37379 39.9981 10.0932 39.9981 10.8126 39.9981C12.2029 37.4607 13.5931 34.9135 14.9834 32.3761C15.9847 32.3761 16.9861 32.3761 17.9777 32.3761C16.8305 34.476 15.6834 36.576 14.5362 38.6759C14.3806 38.9579 14.2251 39.3565 14.3903 39.6384C14.5362 39.8717 14.8862 39.9981 15.4111 39.9981C17.2972 39.9981 19.193 39.9981 21.0888 39.9981C21.3707 39.9981 21.4874 39.9106 21.6624 39.7065C21.6624 39.9301 21.8471 39.9981 22.0707 39.9981C25.3276 39.9981 28.5844 39.9981 31.8413 39.9981C33.776 39.9981 34.8065 39.4342 35.6426 37.9079C36.0703 37.1301 36.4981 36.3426 36.9259 35.5552C36.9453 35.5649 37.0425 35.5843 37.062 35.5843C38.5981 35.876 39.3758 36.4496 39.4439 37.3246C39.473 37.6843 39.3564 38.0148 39.123 38.2773C38.8314 38.5884 38.3939 38.7634 37.9078 38.7731C36.9259 38.7731 36.5273 39.1523 36.1481 39.9981C38.8994 39.9981 41.6605 39.9981 44.4215 39.9981C44.6937 39.9981 44.8201 39.9106 44.9854 39.7065C44.9951 39.9301 45.1798 39.9981 45.4034 39.9981C49.4769 39.9981 53.5505 39.9981 57.6337 39.9981C58.4601 39.9981 58.8198 39.7842 59.2281 39.0259C59.7045 38.1607 60.1808 37.2857 60.6572 36.4107C60.9878 35.8177 61.3961 35.5843 62.1058 35.5843C62.8252 35.5843 63.5446 35.5843 64.2641 35.5843C63.8946 35.8371 63.496 36.1579 63.1849 36.469C62.7766 36.8968 62.378 37.4704 62.31 38.219C62.2516 38.744 62.3877 39.1912 62.6794 39.5217C62.9613 39.8328 63.3891 39.9981 63.8946 39.9981C65.5765 39.9981 67.2487 39.9981 68.9306 39.9981C69.2028 39.9981 69.3292 39.9106 69.4945 39.7065C69.4945 39.9301 69.6889 39.9981 69.9125 39.9981C73.4319 39.9981 76.961 39.9981 80.4901 39.9981C80.772 39.9981 80.8887 39.9106 81.0636 39.7065C81.0636 39.9301 81.2484 39.9981 81.472 39.9981C86.683 39.9981 91.9037 39.9981 97.1244 39.9981C98.0674 39.9981 98.5438 39.6967 98.7188 38.9773C98.7382 38.8995 98.7576 38.8315 98.7771 38.7537C96.3077 38.7537 93.8383 38.7537 91.3787 38.7634ZM48.5047 36.1385C48.7186 35.526 49.2145 35.4677 49.6617 35.4677C50.4686 35.4677 51.2658 35.4677 52.0727 35.4677C52.0144 35.6329 51.9658 35.7982 51.9074 35.9635C51.713 36.5371 51.2658 36.5857 50.8672 36.5857C50.0311 36.5857 49.1853 36.5857 48.3492 36.5857C48.4075 36.4399 48.4561 36.2843 48.5047 36.1385ZM26.5817 37.9273C26.2414 38.5398 25.8525 38.7634 25.1331 38.7634C24.7345 38.7634 24.3359 38.7634 23.9373 38.7634C24.3651 37.9759 24.8026 37.1982 25.2303 36.4107C25.5609 35.8079 25.9595 35.5746 26.6692 35.5746C27.0678 35.5746 27.4664 35.5746 27.865 35.5746C27.4372 36.3621 27.0095 37.1496 26.5817 37.9273ZM74.4041 37.9273C74.0735 38.5398 73.6847 38.7634 72.9652 38.7634C72.5666 38.7634 72.168 38.7634 71.7694 38.7634C72.1972 37.9759 72.6347 37.1982 73.0625 36.4107C73.3833 35.8079 73.7916 35.5746 74.5013 35.5746C74.8999 35.5746 75.2985 35.5746 75.6971 35.5746C75.2693 36.3621 74.8416 37.1496 74.4041 37.9273Z" fill="#A09C9C"/>
<path fill-rule="evenodd" clip-rule="evenodd" d="M47.5325 26.3873C47.5325 26.0276 47.5325 25.6679 47.5325 25.3082C48.4658 25.3082 49.3894 25.3082 50.313 25.3082C51.2365 25.3082 52.1601 25.3082 53.0837 25.3082C53.0837 25.6679 53.0837 26.0276 53.0837 26.3873C52.1601 26.3873 51.2365 26.3873 50.313 26.3873C49.3894 26.3873 48.4658 26.3873 47.5325 26.3873Z" fill="#A09C9C"/>
<path fill-rule="evenodd" clip-rule="evenodd" d="M50.3129 28.6331C50.8963 28.6331 51.4796 28.6331 52.0629 28.6331C52.0629 28.0692 52.0629 27.5151 52.0629 26.9512C51.4796 26.9512 50.8963 26.9512 50.3129 26.9512C49.7296 26.9512 49.1463 26.9512 48.563 26.9512C48.563 27.5151 48.563 28.0692 48.563 28.6331C49.1463 28.6331 49.7296 28.6331 50.3129 28.6331Z" fill="#A09C9C"/>
<path fill-rule="evenodd" clip-rule="evenodd" d="M48.5632 24.7443C48.5535 23.8207 48.3201 22.9069 47.5715 22.2944C48.4854 22.2944 49.3993 22.2944 50.3131 22.2944C51.227 22.2944 52.1409 22.2944 53.0547 22.2944C52.3061 22.9069 52.0631 23.8207 52.0631 24.7443C51.4798 24.7443 50.8964 24.7443 50.3131 24.7443C49.7298 24.7443 49.1465 24.7443 48.5632 24.7443Z" fill="#A09C9C"/>
<path fill-rule="evenodd" clip-rule="evenodd" d="M43.9258 20.5055C43.9258 20.243 43.9258 19.9708 43.9258 19.7083C46.0549 19.7083 48.184 19.7083 50.3131 19.7083C52.4422 19.7083 54.5713 19.7083 56.6907 19.7083C56.6907 19.9708 56.6907 20.243 56.6907 20.5055C54.5713 20.5055 52.4422 20.5055 50.3131 20.5055C48.184 20.5055 46.0549 20.5055 43.9258 20.5055Z" fill="#A09C9C"/>
<path fill-rule="evenodd" clip-rule="evenodd" d="M44.4994 23.393C45.248 23.2277 46.0452 22.8096 46.5799 22.2944C45.841 22.2944 45.1022 22.2944 44.3633 22.2944C44.4119 22.6541 44.4508 23.0235 44.4994 23.393Z" fill="#A09C9C"/>
<path fill-rule="evenodd" clip-rule="evenodd" d="M56.1268 23.393C55.3783 23.2277 54.5713 22.8096 54.0366 22.2944C54.7852 22.2944 55.5241 22.2944 56.263 22.2944C56.2143 22.6541 56.1657 23.0235 56.1268 23.393Z" fill="#A09C9C"/>
<path fill-rule="evenodd" clip-rule="evenodd" d="M43.7119 17.9487C43.0119 13.8071 41.6606 9.49055 40.1731 6.65173C41.7772 7.51699 43.4883 8.89751 45.3257 10.7739C44.5577 10.5697 43.7994 10.4141 43.0411 10.2975C44.1008 12.8057 44.9758 15.3626 45.773 17.9487C45.0827 17.9487 44.4022 17.9487 43.7119 17.9487Z" fill="#A09C9C"/>
<path fill-rule="evenodd" clip-rule="evenodd" d="M56.9143 17.9487C57.6046 13.8071 58.9559 9.49055 60.4434 6.65173C58.849 7.51699 57.1379 8.89751 55.3005 10.7739C56.0588 10.5697 56.8268 10.4141 57.5851 10.2975C56.5255 12.8057 55.6505 15.3626 54.8533 17.9487C55.5338 17.9487 56.2241 17.9487 56.9143 17.9487Z" fill="#A09C9C"/>
<path fill-rule="evenodd" clip-rule="evenodd" d="M43.2549 19.2903C43.2549 19.0181 43.2549 18.7459 43.2549 18.4834C45.6076 18.4834 47.9603 18.4834 50.313 18.4834C52.6658 18.4834 55.0185 18.4834 57.3712 18.4834C57.3712 18.7459 57.3712 19.0181 57.3712 19.2903C55.0185 19.2903 52.6658 19.2903 50.313 19.2903C47.9603 19.2903 45.6076 19.2903 43.2549 19.2903Z" fill="#A09C9C"/>
<path fill-rule="evenodd" clip-rule="evenodd" d="M47.9311 6.21424C49.02 4.33789 49.9533 2.20878 50.313 0.00189209C50.663 2.20878 51.5963 4.33789 52.6949 6.21424C52.306 6.03924 51.8879 5.85452 51.431 5.66008C51.0421 5.47536 50.8769 5.58231 50.8866 5.99063C51.0227 9.97664 51.606 14.5071 53.6865 17.9487C52.8699 17.9487 52.0532 17.9487 51.2366 17.9487C50.8477 17.0348 50.5463 16.1307 50.313 15.2362C50.0797 16.1307 49.7685 17.0348 49.3894 17.9487C48.5727 17.9487 47.7561 17.9487 46.9395 17.9487C49.02 14.5071 49.6033 9.97664 49.7394 5.99063C49.7491 5.58231 49.5838 5.47536 49.1852 5.66008C48.7283 5.85452 48.32 6.03924 47.9311 6.21424Z" fill="#A09C9C"/>
<path fill-rule="evenodd" clip-rule="evenodd" d="M43.2549 21.7305C43.2549 21.4583 43.2549 21.1958 43.2549 20.9236C45.6076 20.9236 47.9603 20.9236 50.313 20.9236C52.6658 20.9236 55.0185 20.9236 57.3712 20.9236C57.3712 21.1958 57.3712 21.4583 57.3712 21.7305C55.0185 21.7305 52.6658 21.7305 50.313 21.7305C47.9603 21.7305 45.6076 21.7305 43.2549 21.7305Z" fill="#A09C9C"/>
</g>
<defs>
<clipPath id="clip0_413_243">
<rect width="98.5906" height="40" fill="white" transform="translate(0.186523)"/>
</clipPath>
</defs>
</svg>
