<svg width="63" height="41" viewBox="0 0 63 41" fill="none" xmlns="http://www.w3.org/2000/svg">
<path d="M31.5296 0.0460815C14.4585 0.0460815 0.617706 9.00023 0.617706 20.0409C0.617706 31.0894 14.4585 40.0461 31.5296 40.0461C48.6007 40.0461 62.4415 31.0919 62.4415 20.0409C62.4415 8.98993 48.6007 0.0460815 31.5296 0.0460815ZM31.5296 31.4629C28.9897 31.4629 26.9186 26.4603 26.7898 20.1672C29.9436 20.4433 33.1156 20.4433 36.2694 20.1672C36.1406 26.4577 34.0695 31.4629 31.5296 31.4629ZM27.1015 15.1723C27.7918 10.7236 29.5152 7.5654 31.5296 7.5654C33.544 7.5654 35.2648 10.7236 35.9577 15.1723C33.0114 15.4339 30.0478 15.4339 27.1015 15.1723ZM31.5296 2.93634C28.2143 2.93634 25.3859 7.90286 24.3426 14.8349C18.0572 13.856 13.6703 11.62 13.6703 9.02341C13.6703 5.52006 21.6661 2.6839 31.5296 2.6839C41.3957 2.6839 49.389 5.52264 49.389 9.02341C49.389 11.62 45.002 13.856 38.7166 14.8349C37.6733 7.90543 34.8449 2.93892 31.5296 2.93892V2.93634ZM5.04841 19.2939C5.04841 15.9065 6.35444 12.7251 8.62389 9.99456C8.6007 10.1852 8.58525 10.381 8.58525 10.5767C8.58525 14.8452 14.9866 18.485 23.9201 19.8245C23.9124 20.1337 23.9124 20.4479 23.9124 20.7622C23.9124 28.722 26.1432 35.4582 29.2267 37.7457C15.677 36.9291 5.04841 28.9796 5.04841 19.2939ZM33.8325 37.7457C36.916 35.4582 39.1468 28.7194 39.1468 20.7622C39.1468 20.4454 39.1417 20.1362 39.1391 19.8271C48.0675 18.4876 54.474 14.8503 54.474 10.5767C54.474 10.381 54.4585 10.1852 54.4353 9.99456C56.7048 12.7328 58.0082 15.9065 58.0082 19.2939C58.0082 28.9796 47.3823 36.9291 33.8325 37.7457Z" fill="#A09C9C"/>
</svg>
