<svg width="40" height="41" viewBox="0 0 40 41" fill="none" xmlns="http://www.w3.org/2000/svg">
<path d="M19.9956 0.0460815C8.95057 0.0460815 -0.00442505 9.00108 -0.00442505 20.0461C-0.00442505 31.0911 8.95057 40.0461 19.9956 40.0461C31.0406 40.0461 39.9956 31.0911 39.9956 20.0461C39.9956 9.00108 31.0406 0.0460815 19.9956 0.0460815ZM19.9956 1.34608C30.3222 1.34608 38.6939 9.71775 38.6939 20.0461C38.6939 30.3727 30.3239 38.7444 19.9956 38.7444C9.66724 38.7444 1.29724 30.3727 1.29724 20.0461C1.29724 9.71941 9.66891 1.34608 19.9956 1.34608ZM18.8656 2.39608C18.3167 2.42053 17.7656 2.46386 17.2122 2.52608L17.0339 7.43275C17.4264 7.36641 17.8211 7.31416 18.2172 7.27608L18.3339 3.96275L18.3122 3.73441L18.3839 3.95108L19.4906 6.43275H20.5006L21.6072 3.95275L21.6739 3.73441L21.6572 3.96275L21.7739 7.27608C22.1606 7.31275 22.5622 7.36608 22.9572 7.43275L22.7756 2.52608C22.2261 2.46448 21.6746 2.42112 21.1222 2.39608L20.0339 5.10441L19.9956 5.30441L19.9572 5.10441L18.8656 2.39608ZM30.0256 5.43608L27.4539 9.48275C27.7789 9.73275 28.2072 10.1011 28.4822 10.3527L30.9039 9.09608L31.0572 8.98108L30.9422 9.13775L29.6889 11.5594C29.9606 11.8511 30.3522 12.3227 30.5722 12.6094L34.6222 10.0361C34.3739 9.71473 34.1183 9.39909 33.8556 9.08941L31.2906 10.7794L31.1156 10.9327L31.2456 10.7411L32.3789 8.48108L31.5789 7.68108L29.3189 8.81441L29.1272 8.94442L29.2789 8.76775L30.9756 6.20275C30.6756 5.94941 30.3906 5.71775 30.0256 5.43608ZM9.16224 6.35441C8.56224 6.41608 8.09891 6.82608 6.84057 8.22941C6.40426 8.72393 5.9835 9.23196 5.57891 9.75275L9.03557 13.0311C10.1806 11.7644 10.6456 11.2944 11.5489 10.3427C12.1872 9.66775 12.5489 8.89275 11.9089 8.14775C11.5622 7.74441 10.9789 7.65608 10.4922 7.85608L10.4456 7.87275L10.4622 7.82941C10.5223 7.60827 10.516 7.37432 10.444 7.15676C10.3719 6.9392 10.2374 6.74767 10.0572 6.60608C9.93217 6.507 9.7886 6.43386 9.63492 6.39093C9.48125 6.348 9.32055 6.33449 9.16224 6.35441ZM9.17224 7.37942C9.39891 7.31775 9.63391 7.47941 9.68557 7.71275C9.73891 7.94608 9.59224 8.16608 9.42891 8.34941C9.06224 8.76608 7.71058 10.1794 7.71058 10.1794L7.04058 9.54108C7.73558 8.69108 8.47557 7.91775 8.81057 7.61108C8.91108 7.50631 9.03504 7.42691 9.17224 7.37942ZM19.9956 8.18441C17.0596 8.18312 14.2275 9.27119 12.0477 11.238C9.8678 13.2048 8.4952 15.9104 8.19557 18.8311V18.8344C8.00724 20.6874 8.25761 22.5587 8.92642 24.297C9.59524 26.0353 10.6637 27.5919 12.0455 28.8408C13.4273 30.0897 15.0836 30.9959 16.8804 31.4861C18.6773 31.9763 20.5643 32.0368 22.3889 31.6627C25.0637 31.1136 27.4667 29.6575 29.1916 27.5408C30.9166 25.4241 31.8576 22.7766 31.8556 20.0461C31.8534 16.9014 30.6031 13.8863 28.3793 11.6628C26.1556 9.43938 23.1402 8.18951 19.9956 8.18775V8.18441ZM10.7672 8.58775C10.8472 8.58664 10.925 8.61053 11.0006 8.65942C11.1472 8.75775 11.2139 8.92608 11.1772 9.09275C11.1339 9.29108 10.9689 9.47775 10.8356 9.62275L9.09391 11.4894L8.39391 10.8227C8.39391 10.8227 9.70557 9.43608 10.1356 8.99108C10.3056 8.81441 10.4156 8.70775 10.5322 8.64942C10.6038 8.61012 10.6856 8.58894 10.7672 8.58775ZM19.9956 9.74275C21.3491 9.74121 22.6896 10.0067 23.9403 10.5239C25.1911 11.0412 26.3275 11.8 27.2846 12.7571C28.2416 13.7142 29.0005 14.8506 29.5177 16.1014C30.035 17.3521 30.3004 18.6926 30.2989 20.0461H19.9956V30.3494C18.6421 30.3509 17.3016 30.0855 16.0508 29.5682C14.8001 29.051 13.6637 28.2921 12.7066 27.3351C11.7495 26.378 10.9907 25.2416 10.4734 23.9908C9.95616 22.7401 9.69071 21.3996 9.69224 20.0461H19.9956V9.74275Z" fill="#A09C9C"/>
</svg>
