<svg width="41" height="40" viewBox="0 0 41 40" fill="none" xmlns="http://www.w3.org/2000/svg">
<path d="M25.4414 19.1016C25.3874 11.7798 24.7254 3.53933 23.6177 0.959116L20.0784 0.0945435L16.539 0.959116C15.4313 3.53933 14.7693 11.7663 14.7153 19.0881L13.1753 19.2097V20.7632L14.7153 20.8848C14.7693 28.2067 15.4313 36.4471 16.539 39.0138L20.0784 39.8784L23.6177 39.0138C24.7254 36.4336 25.3874 28.2067 25.4414 20.8713L26.9409 20.7497V19.1962L25.4414 19.1016ZM17.6332 36.947C16.6336 32.6511 16.4309 25.5589 16.3499 20.9659L18.8626 21.155L19.3084 36.947H17.6332ZM18.8626 18.845L16.3499 19.0341C16.4309 14.441 16.6336 7.34885 17.6332 3.053H19.2948L18.8626 18.845ZM22.5235 36.947H20.8214L21.2672 21.155L23.8068 20.9659C23.7258 25.5589 23.5367 32.6511 22.5235 36.947ZM21.2672 18.845L20.8214 3.053H22.5235C23.5231 7.34885 23.7258 14.441 23.8068 19.0341L21.2672 18.845Z" fill="#A09C9C"/>
</svg>
