<svg width="41" height="40" viewBox="0 0 41 40" fill="none" xmlns="http://www.w3.org/2000/svg">
<path d="M18.4885 24.6769L18.4191 24.8462L18.4654 25.1534L18.6229 25.8409L18.8956 26.7476L19.1223 27.2893L19.4257 27.9807L19.6409 28.3879L19.9713 28.9873L20.3668 29.6553L20.6781 30.0859L20.9392 30.4354L20.9508 30.6276L20.9163 30.7851L20.7705 30.8426L20.3324 30.8656L19.5641 30.8197L18.9303 30.7388L18.3733 30.639L17.6969 30.447L17.3551 30.2972L17.1285 30.1974L16.871 30.1511L16.5753 30.1627L16.4179 30.2318H16.2027L15.6918 30.1511L15.3998 30.0513L15.081 30.0282L14.5738 30.017L14.1897 29.9821H13.8363L13.4868 30.0052L13.2486 30.1048L13.0794 30.1511L13.0217 30.2318L13.0334 30.3895L13.1946 30.6504L13.4982 31.0694L13.6788 31.146L13.9631 31.3498L14.2895 31.5305L14.6429 31.6455L15.1501 31.6571L15.6034 31.6108L15.9875 31.5228L16.3142 31.4191L16.4524 31.4882L16.5178 31.6225L16.6329 31.6571L16.9133 31.6455L17.2667 31.6687L17.4475 31.7262L17.6625 31.6687L18.3617 31.7565L18.8379 31.8258L19.6178 31.9952L20.1863 32.1639L20.7474 32.3563L21.2424 32.5829L21.4348 32.7211L21.9459 32.7442L22.2184 32.675L22.3643 32.3791L22.5216 32.0182L22.4763 31.7262L22.2842 31.3612L22.0268 30.8309L21.8226 30.2779L21.6728 29.6553L21.6078 29.1215V28.6029L21.6616 27.9922L21.7309 27.6846L21.65 27.4237L21.4812 27.2893L21.1432 27.0396L20.9043 26.8705L20.8591 26.5438L20.7474 26.1943L20.5357 25.8523L20.3093 25.5605L20.0252 25.288L19.6639 25.0149L19.2567 24.7113L19.0415 24.6078L18.8265 24.5426L18.646 24.5731L18.4885 24.6769Z" fill="#A09C9C"/>
<path d="M18.8919 1.59301L18.8609 1.26657L18.3961 0.701882L18.2539 0.659546L18.1541 0.801703L18.1695 0.97084L18.0119 1.11279L17.9966 1.3089L18.1811 1.40873L18.4384 1.59301H18.8919Z" fill="#A09C9C" stroke="#A09C9C" stroke-width="0.896526" stroke-miterlimit="2.613"/>
<path d="M17.9851 1.22422L17.9965 1.19745" stroke="#A09C9C" stroke-width="0.896526" stroke-miterlimit="2.613"/>
<path fill-rule="evenodd" clip-rule="evenodd" d="M17.1707 1.91962L17.1745 1.76978L17.063 1.75048L16.7941 1.7621L16.7366 1.59297L17.2205 1.49314L17.5165 1.48173L18.1542 1.61932L18.8036 1.80382L19.1609 1.77704L19.2722 1.67722L19.2568 1.50829L19.103 1.30865L19.1184 1.13972L19.4411 0.601807L19.9674 1.08224L20.4053 1.55084L20.5319 1.71977H20.9967L21.5349 1.80444L21.9456 1.98893L22.2685 2.2002L22.5526 2.51523L24.1506 2.48451L24.3654 2.52685L24.5924 2.58433L24.6461 2.68415L24.5501 2.81075L24.1391 2.93755L23.5863 3.12204L23.275 3.39079L23.8397 3.53295L24.2506 3.77493L24.7192 4.26677L25.2725 4.39731L25.9372 4.87732L26.3599 5.4997L26.2485 5.61488L25.9372 5.43059L25.5528 5.00412H25.088L24.5501 4.87732L24.1506 4.73516L23.7974 4.55067L23.6017 4.46621L23.4749 4.56603L23.6284 4.70819L24.0393 4.98856L24.4079 5.35734L24.5766 5.55698L25.2988 5.59932L25.679 5.64165L26.2051 5.91061L26.5432 6.2219L26.6588 6.33708L26.6434 6.46388L26.501 6.42155L26.163 6.17957L25.8367 6.05277L25.4099 6.07954L25.1297 6.11025H24.803L24.6032 6.0949L24.4496 6.0372L24.35 5.9681L24.2807 6.05277L24.4768 6.29101L24.8452 6.49065L25.525 6.8171L25.8633 6.97067L26.2476 7.05534L26.2744 7.1975L25.9364 7.29732L25.5408 7.22821L25.172 7.05534L24.6762 7.02836L24.1964 6.82872L23.8965 6.67494L23.6853 6.64817L23.7125 6.8171L24.3079 7.33966L24.7456 7.99254L24.8724 8.31525L25.1297 8.53046L25.4406 8.86852L25.525 9.16799L25.8212 9.43694L25.9631 9.49069L25.8635 9.64821L25.6674 9.59052L25.3258 9.40623L24.9452 9.05302L24.6455 8.82639L24.0806 8.49995L23.5274 8.06206H23.4317L23.4585 8.17745L23.8808 8.573L24.2653 8.81124L24.6034 9.02645L24.9147 9.30703L24.972 9.53365L25.2139 9.88708L25.3986 10.0446L25.7099 10.0869L25.9787 10.156L26.1632 10.3135L26.0364 10.425L25.7101 10.4827L25.4105 10.3982H25.1836L24.8881 10.2444L24.7036 9.98711L24.4191 9.88728L23.8277 9.71835L23.5278 9.64925L23.4014 9.73371L23.4435 9.87587L23.7276 10.0294L24.0389 10.3982L24.1813 10.5671L24.6883 10.7938L25.1836 11.2354L25.4682 11.6733L25.6103 11.8692L25.768 11.8578L25.8222 11.9422L25.7108 12.0113L25.6184 12.0497L25.5954 12.0537L25.1731 11.8001L25.0153 11.5044L24.6044 11.4583L24.2817 11.2894L23.9401 11.2356L24.0136 11.4162L24.267 11.6158L24.2402 11.7426L23.9982 11.7158L23.8293 11.589L23.5452 11.5046L23.3182 11.4585L23.2914 11.5583L23.445 11.758L23.7984 11.8848L24.2091 11.9539L24.5204 12.1114L24.8043 12.3534L25.1309 12.4648L25.5111 12.4802L25.6956 12.5646L25.6263 12.7184L25.3843 12.8336L24.9311 12.8182L24.4778 12.6223L24.1973 12.4799L23.9127 12.3955H23.5444L23.3173 12.5223L23.4329 12.5914L23.7438 12.6337L24.0819 12.6761L24.4928 12.8913L24.7466 13.1293L24.9886 13.2868L25.1843 13.3445L25.0728 13.429H24.8308L24.5353 13.3559L24.3508 13.2024L24.124 13.2447H23.7013L23.2906 13.2715H22.8797L22.6952 13.2447L22.6798 13.3559L22.8797 13.4827L23.3445 13.6402L23.8285 13.7401L24.1512 13.9781L24.4199 14.2931L24.7194 14.5312L25.0307 14.5735L25.3995 14.516L25.8222 14.3776L25.9484 14.2471L26.0806 14.2363L26.0652 14.3361L25.9229 14.4743L25.5962 14.6742L25.3584 14.7856L24.9317 14.8431L24.3363 14.7586L23.9982 14.5897L23.3609 14.3361L22.7651 14.2363L22.4422 14.0787L22.3002 14.1786L22.4422 14.2937L23.1609 14.5741L23.7563 14.8852L24.1404 15.2272L24.283 15.4231L24.1987 15.5385L23.9717 15.4387L23.4761 15.1122L23.1343 15.0008H22.8388L22.7962 15.1122L23.0079 15.1546L23.3881 15.2967L23.7724 15.65L23.9719 15.9766L24.1105 16.1879L24.2678 16.2877L24.3674 16.2454L24.4521 16.2607L24.3791 16.4029L24.0563 16.3605L23.7451 16.1453L23.5031 15.9494L23.0343 15.6651L22.5968 15.4653L22.2162 15.4806L21.7476 15.254L21.4514 15.0543L21.3361 15.1542L21.2788 15.6651L21.5056 16.4871L22.3428 17.8585L23.1075 18.8073L24.5096 19.983L25.4856 20.6437L25.7965 20.8861L26.5031 21.4662L27.199 22.1305L27.5217 22.5684L27.7636 22.8676L28.1324 23.3746L28.4012 23.9009L28.5006 24.2659L29.2498 24.2238L30.0294 23.7859L30.6367 23.2329L31.2321 22.4839L31.39 22.0041L31.4741 21.5772L31.5282 21.0548V20.5588L31.4014 19.6409L31.19 18.4385L30.8635 17.4357L30.6946 16.798L30.5257 16.0604L30.5528 15.3536L30.6103 14.831L30.806 14.3047L31.1632 13.6556L31.5284 13.16L32.0392 12.7066L32.4501 12.3531L32.6925 12.1956L32.988 12.0421L33.0573 12.0958L33.0033 12.211L32.4233 12.7066L31.9547 13.2866L31.6013 14.0088L31.4014 14.658L31.3593 15.238L31.3747 15.5493L31.4168 15.6798L31.5434 15.6915L32.1963 14.9269L32.6339 14.5044L33.0145 14.1931L33.2719 13.7666L33.4408 13.3441L33.5402 13.2443L33.5942 13.3978L33.5523 13.882L33.2136 14.5735L32.6456 15.4225L32.3648 15.876L32.2494 16.3601L32.2222 16.8825L32.3222 17.3359L32.4912 17.4357L32.6757 17.405L32.8446 17.0246L32.9865 16.798L33.34 16.3715L33.4668 16.2871L33.6934 15.949L33.8202 15.8068V15.5647L33.9771 15.6383L34.0881 15.7919L34.0613 15.9608L33.9345 16.3026L33.5929 16.8403L33.3549 17.3629L33.2397 17.8892L33.1856 18.3117L33.2549 18.9762L33.3663 19.614L33.4968 20.2363L33.6083 21.0968L33.5929 21.7922L33.5236 22.5681L33.3121 23.0521L33.055 23.5591L32.6016 24.1696L32.2481 24.4807L31.8524 24.6924L31.4842 24.8611L31.2149 24.9186L31.1455 25.0452L31.3414 25.3717L31.5683 25.8253L31.5988 26.0519V26.3209L31.5141 26.8588L31.499 27.3388L31.5141 27.6653L31.6104 27.9915L31.6256 28.0608L31.5683 28.176L31.4417 28.1299L31.246 27.692L31.2306 27.6804L31.0883 27.2386L31.0308 26.6009L30.9347 26.121L30.7081 25.7101L30.5236 25.4833L30.3812 25.4144L30.2656 25.4719L30.2963 25.6406L30.5501 25.994L30.6765 26.4475V27.0968L30.5769 27.7497L30.4655 28.2455L30.2117 28.699L29.9008 29.195L29.7702 29.4484L29.5741 29.7173L29.4054 29.9441L29.4473 30.198L29.5015 30.3401L29.4054 30.4706H29.2207L29.1213 30.1712L29.0945 29.8601L29.1213 29.5911L29.2639 29.1533L29.5017 28.6425L29.7588 28.1044L29.8435 27.5511L29.8703 27.144L29.813 26.8866L29.7437 26.6177L29.6748 26.5486H29.5903L29.5169 26.7021L29.4596 27.0288L29.4056 27.4974L29.2902 27.8201V28.2046L29.3477 28.4313L29.3056 28.5311L29.2209 28.5427L29.1215 28.4005L29.037 27.8512V27.1558L29.0642 26.8293L29.0947 26.6177L29.0483 26.3066L29.0215 25.9803L28.9217 25.7423L28.8102 25.669L28.6836 25.6996L28.5682 25.811L28.5415 26.1528L28.4989 26.6019L28.3568 27.0863L28.1569 27.5239L27.9456 27.9083L27.6918 28.3578L27.3384 28.7573L26.9968 29.153L26.6588 29.5065L26.163 29.9288L25.7942 30.2438L25.4833 30.4397L25.314 30.5396L25.1567 30.7931L25.0031 31.3194L24.9458 31.5151V31.8567L24.9728 32.1105L25.0994 32.3525L25.3565 32.6754L25.5178 32.9521L25.5908 33.121L25.6527 33.4126L25.6674 33.7239L25.7367 33.8926L25.6373 34.0192L25.5948 34.1346L25.4839 34.246L25.0147 34.5034L24.5501 34.8144L23.9397 35.3793L23.6131 35.7209L23.4595 36.032L23.275 36.1435L23.0484 36.2701L22.8907 36.3854L22.8639 36.6392L22.7371 36.9503L22.4951 37.2921L22.2994 37.5457L22.1149 37.6609L21.9993 37.7456L21.8883 37.7149L21.7883 37.6881L21.815 37.8303L21.8729 37.9728L21.7729 38.649L21.5884 38.8216L21.3927 38.9063H21.2659L21.2086 39.0485L20.8401 39.2176L20.5591 39.3863L20.2905 39.4131H19.6679L19.499 39.2325L19.4836 38.9482L19.5681 38.595L19.7103 38.1685L19.9525 37.746L20.3482 37.3349L20.6705 36.9817L20.9546 36.6285L21.0814 36.3711L21.3197 36.1443L21.7194 35.9907L21.9151 35.8755L22.3683 35.3795L22.8641 34.842L23.3599 34.2041L23.6019 33.866L23.7554 33.6124L23.8129 33.4549V33.3281L23.7282 33.1438L23.2906 32.6059L22.922 32.0257L22.6532 31.4726L22.3114 30.7658L22.0427 30.1704L21.9312 29.7169L21.8466 28.941L21.9312 28.2455L22.1 27.5808L22.3839 27.0701L22.6684 26.6011L22.8799 26.2362L22.9488 25.9942L22.9793 25.514V25.2874L23.0639 25.1029L23.1754 24.8034L23.3018 24.6652L23.2904 24.5347H23.1173L22.9369 24.6231L22.8485 24.8186L22.8218 25.1299L22.7792 25.5254L22.7217 25.8828L22.453 26.3477L22.399 26.6741L22.1724 26.9161L22.0145 27.0695L21.8146 27.0966L21.4917 26.9698L21.1383 26.7162L21.0077 26.378L20.981 26.0517L20.4049 25.2718L19.8516 24.8032L19.2101 24.346L18.5147 23.8735L17.973 23.5852L17.2508 23.1974L16.3595 22.5136L15.8832 22.0912L15.3262 21.4803L14.8651 21.0233L14.577 20.5968L14.4272 20.3125L14.477 20.1936L14.5615 19.9744H13.3898L12.8288 19.7862L12.3909 19.5328V19.2792L11.9144 19.0065L10.9312 18.5303L10.524 18.3804L10.1322 18.1422L9.85948 17.9039H9.6752L9.43695 18.0384L9.30268 18.3956L9.38715 18.991L9.62145 19.4828L9.75966 20.1089L9.9288 20.7853L10.1324 21.2617L10.4551 21.6345L10.4397 21.819L10.4704 22.107L10.6433 22.161L11.1159 22.3644L11.3695 22.6182L11.5079 22.8215L11.5425 22.9405C11.5425 22.9558 11.5425 23.0747 11.5579 23.0747L11.6424 23.263V23.9239L11.5733 24.212L11.4581 24.4156L11.3543 24.6534L11.1854 24.7034L10.982 24.6881L10.6749 24.4998L10.2521 24.0927L9.96408 23.6701L9.77585 23.1938L9.5071 22.7865L9.26886 22.5486L9.01152 22.3451L8.9117 22.107L8.80793 21.4309L8.67366 20.9891L8.62365 20.5972L8.51988 20.1782L8.37005 19.5828L8.25092 18.9721L8.01289 18.1922L7.90912 17.5814L7.92822 17.2434L8.11271 16.7824L8.35095 16.3753L8.639 16.1217L8.91149 15.9527L9.26865 15.9334L9.87941 15.9527L10.3864 16.0526L10.9127 16.1563L11.3199 16.191L11.6081 16.2564L11.6926 16.1717L11.6081 16.0025L11.34 15.8836L11.0673 15.6647L10.76 15.392L10.4719 15.0539L10.2183 14.6814L9.98027 14.4087L9.76111 14.2896L9.60754 14.2396L9.48842 14.2742L9.3693 14.4241L9.31928 14.6621L9.30393 14.9348L9.24997 15.1384L9.18481 15.3762L9.03123 15.5798L8.86231 15.7296L8.70873 15.8681L8.60497 15.9332L8.38582 15.9525L8.2669 16.137L8.11312 16.2752L7.9442 16.5479L7.77527 17.0705L7.70616 17.4123V17.7157L7.75991 18.0386L7.85973 18.4649L7.9635 18.872L8.04817 19.2101L8.11333 19.4828L8.01351 19.8209L7.75991 20.228L7.46792 20.5815L7.26454 20.766L7.0456 20.8353L6.92647 20.7508L6.77269 20.3974L6.7922 19.9556L6.74219 19.6866L6.82686 19.3795V18.6342L6.84222 18.2078L6.85757 17.9541L6.9767 17.7005L7.16492 17.2587L7.23403 16.7324L7.35315 16.3099L7.5721 15.8834L7.69122 15.4262L7.8257 14.969L7.94482 14.681L7.96391 14.1892L8.09839 13.778L8.23266 13.5093L8.35178 13.0677L8.45555 12.7794L8.60538 12.4069L8.89738 12.2033L9.23544 12.0151L9.71172 11.9153L10.0842 11.9806L10.5068 12.1342L10.8986 12.4569L11.2559 12.745L11.544 12.9639L12.101 13.2559L12.5966 13.4748L12.9347 13.6938L13.2381 13.8322L13.3916 13.8669L13.6297 13.7477L13.7986 13.644L13.9677 13.4248L14.2058 13.1521L14.5783 12.9639L15.0201 12.6949L15.3082 12.4569L15.5464 12.288L15.7346 12.0651L15.8689 11.6233L16.1225 11.3545L16.522 11.0164L16.9562 10.5825L17.298 10.11L17.6784 9.62995L17.9934 9.1381L18.0855 8.88845L18.2239 8.52734L18.3545 8.13159L18.485 7.77049L18.5772 7.48244L18.6232 7.23278L18.6425 7.02919L18.5502 6.87168L18.3813 6.80651L17.9932 6.77953L17.6898 6.83328L17.4939 6.80651L17.1328 6.69507L16.8561 6.6683L16.6793 6.56453L16.4641 6.53756L16.2452 6.54897L16.0953 6.49896L15.8994 6.53756L15.6688 6.58363L15.3192 6.76812L15.077 6.82581L14.8543 6.83349H14.6775L14.4585 6.80672L14.3548 6.71458L14.3664 6.60314L14.4278 6.49937L14.7429 6.40723L15.1616 6.24971L15.3001 6.17666L15.3385 6.07684L15.3001 5.97308L15.1349 5.9654L14.7238 6.13059L14.4204 6.22273L14.1514 6.29578L13.9862 6.30741L13.8478 6.23436L13.6903 6.0922V5.83486L13.6786 5.59288L13.6903 5.42001L13.8094 5.27017L13.9862 4.96303L14.1707 4.6864L14.2437 4.55586L14.3091 4.36369L14.3936 4.18687L14.5397 4.14848L14.9201 4.1408L15.1967 4.13312L15.5117 4.05634L15.8459 3.91024L16.2146 3.66805L16.6795 3.45679L17.0867 3.16853L17.4208 2.99171L17.6398 2.84582L17.7626 2.78813L17.9662 2.71508L18.0123 2.64223L17.9737 2.54988L17.5395 2.35398L17.2438 2.28092L16.9941 2.20414L16.6677 2.18878L16.5139 2.19646L16.3641 2.26183L16.2335 2.30023L16.0951 2.26951L16.0297 2.15807L16.0874 2.07734L16.2719 2.06572L16.5023 1.99267L16.8096 1.9275L17.0132 1.95427L17.1707 1.91962ZM22.2148 18.6647L22.8373 19.4716L22.3528 19.218L22.0994 18.976L21.6766 18.5535L21.2925 18.0693L20.9546 17.5202L20.6859 16.8401L20.5742 16.3715L20.6278 16.1026L20.7818 16.0604L20.9391 16.1333L21.0393 16.4137L21.1238 16.8248L21.2771 17.2512L21.6766 17.8734L22.2148 18.6647ZM14.2089 5.23095L14.3587 5.02363L14.4816 4.9622L14.593 4.97362L14.7275 5.08506L14.789 5.18488L14.7275 5.3922L14.6161 5.50385L14.4586 5.59205L14.2473 5.63812L14.1742 5.59205L14.1473 5.44222L14.2089 5.23095ZM18.5652 4.46641H18.3923L18.1848 4.38195L18.0005 4.28213L17.8276 4.18231L17.7776 4.04783L17.8506 3.89799L18.0119 3.76351L18.2694 3.75189L18.4577 3.78655L18.6035 3.88658L18.6766 4.05945L18.738 4.24374L18.7266 4.40519L18.5652 4.46641ZM32.1411 19.6175L32.2409 19.5177L32.3067 19.5523L32.3563 19.7098L32.4557 20.0209L32.5366 20.3937L32.5943 20.7508V21.473L32.5867 21.6536L32.5142 22.0493L32.4136 22.3874L32.299 22.6831L32.1259 23.0054L31.9296 23.2823L31.6339 23.628L31.2962 23.9509L31.1236 23.993L31.0306 23.9509L31.0154 23.8278L31.0887 23.6627L31.1885 23.4821L31.3689 23.2441L31.5648 22.9793L31.7495 22.6908L31.9296 22.3951L32.0678 22.1068L32.1488 21.8111L32.2181 21.473L32.2334 21.0966L32.2486 20.7583L32.2258 20.463L32.1909 20.1208L32.1608 19.798L32.1411 19.6175ZM17.5242 22.0609L17.3281 21.8418L17.1207 21.6152L16.9556 21.4116L16.7866 21.2422L16.6289 21.0507L16.4139 20.8432L16.2141 20.7238L16.0873 20.7162L16.0144 20.7894L16.0067 20.9814L16.0489 21.1889L16.1603 21.362L16.3409 21.55L16.6175 21.819L16.8481 21.9993L17.1631 22.2878L17.4511 22.5138L17.7238 22.6985L18.396 23.1519L18.8302 23.4398L19.0875 23.6014L19.1875 23.6089L19.1529 23.551L19.1029 23.4707L18.8455 23.2289L18.5268 22.9405L18.1694 22.6217L17.5242 22.0609ZM15.8799 13.0293L15.8723 13.133L15.8992 13.1754L15.9798 13.1868L16.0951 13.1791L16.2717 13.1407L16.4523 13.0907L16.6789 13.0525L16.8825 13.0332L17.1131 13.037H17.3858L17.6047 13.0602L17.7815 13.1137L17.9698 13.1677L18.0926 13.1831L18.1733 13.1677L18.1964 13.0946L18.1848 12.9911L17.9965 12.8066L17.7585 12.6875L17.5049 12.6335H17.1975L16.6943 12.6952L16.191 12.8527L15.949 12.9525L15.8799 13.0293ZM22.2527 22.007L22.326 21.8034L22.3802 21.7422L22.4603 21.7262H22.568L22.6145 21.769L22.6946 21.8879L22.7101 22.1147L22.6526 22.249L22.5603 22.3334L22.4762 22.4295L22.391 22.6063L22.3642 22.729L22.3069 22.7753L22.1955 22.7601L22.1413 22.6945L22.161 22.4604L22.2222 22.168L22.2527 22.007ZM22.4107 28.799H22.4839L22.5107 28.7488L22.5335 28.6722L22.6101 28.4072L22.7101 28.1804L22.7635 28.0345L22.8716 27.735L22.9482 27.4889L22.9137 27.3737L22.7871 27.3893L22.645 27.5657L22.487 27.7925L22.391 28.1611L22.3488 28.43L22.3528 28.6261L22.4107 28.799ZM27.3434 25.5259L27.4352 25.4107L27.5312 25.38L27.6234 25.3876L27.7 25.4567L27.7884 25.5682L27.8118 25.6948V25.8639L27.796 25.9907L27.7581 26.1096L27.7344 26.2173L27.6543 26.2636L27.5808 26.2443L27.5433 26.175L27.5196 25.933L27.3586 25.7103L27.3434 25.5259ZM20.2131 38.3719L20.3707 38.2148L20.4898 38.1415L20.5742 38.1378L20.617 38.1725L20.6278 38.253L20.5933 38.3951L20.5356 38.5064L20.4665 38.6104L20.3553 38.6832L20.2478 38.7062H20.2017L20.1517 38.6678L20.1364 38.5873L20.1554 38.4873L20.2131 38.3719ZM21.3959 36.6127L21.5268 36.532L21.6229 36.5166L21.669 36.5436L21.681 36.6127L21.6465 36.6971L21.588 36.7779L21.5156 36.8202L21.427 36.8507L21.3614 36.8318L21.3232 36.7625L21.3309 36.6936L21.3959 36.6127ZM23.1634 34.9109L23.6938 34.3766L23.793 34.2693L23.9433 34.1732L23.9974 34.185L24.0427 34.2423L23.9974 34.3537L23.8279 34.6034L23.6013 34.8688L23.3441 35.1183L23.0716 35.4026L22.8176 35.6329L22.6178 35.8135L22.5063 35.8865L22.4333 35.8826L22.3988 35.8251L22.4146 35.729L22.7259 35.3833L23.1634 34.9109ZM24.8996 33.6776L24.9766 33.5973L25.0423 33.5738L25.1264 33.5778L25.1652 33.5973L25.1683 33.6394L25.1341 33.6932L25.0575 33.7623L24.9882 33.8393H24.9417L24.8888 33.8083L24.8767 33.743L24.8996 33.6776ZM23.0559 30.6736H23.1169L23.1829 30.7008L23.2671 30.8004L23.3288 30.9733L23.3709 31.2036L23.3748 31.3881L23.3784 31.4535L23.4128 31.5417L23.4473 31.7185L23.4325 31.7532L23.4054 31.7565L23.3555 31.7339L23.2634 31.5994L23.1252 31.3728L23.0596 31.2229L23.0214 31.0154V30.823L23.0291 30.7083L23.0559 30.6736ZM14.2012 30.4428L14.3394 30.4161L14.4432 30.4123L14.493 30.4428L14.5046 30.5007L14.4893 30.5659L14.4546 30.6466L14.3932 30.7197L14.3434 30.7352L14.2396 30.7388L14.1473 30.712L14.1051 30.6773L14.0437 30.6006L14.0474 30.5315L14.0821 30.4814L14.2012 30.4428ZM17.9351 30.7465L18.2732 30.8542L18.423 30.9156L18.5805 30.9502L18.7725 30.9772L19.0914 31.0117L19.3681 31.054L19.6294 31.0731L19.8406 31.1192L19.9597 31.1499L19.9942 31.196V31.269L19.9519 31.323L19.8213 31.3304L19.5947 31.292L19.3949 31.2574L19.1875 31.246L18.9877 31.2304L18.5305 31.1154L18.1694 31.004L17.9121 30.9193L17.8737 30.8465L17.8851 30.7658L17.9351 30.7465ZM21.2697 31.0424L21.3734 30.9656L21.4498 30.9463H21.5345L21.5613 30.981V31.0424L21.5191 31.1192L21.4423 31.1806L21.3309 31.2076L21.2697 31.1806L21.25 31.1154L21.2697 31.0424ZM10.905 23.628L11.0165 23.6512L11.0665 23.7052L11.0779 23.7704L11.0665 23.8471L11.0011 23.8967L10.9204 23.8816L10.8629 23.8278L10.8397 23.7089L10.859 23.6396L10.905 23.628ZM8.7154 19.1375L8.75774 18.8378L8.78077 18.8032H8.8229L8.86524 18.8415L8.90758 19.0221L8.91131 19.2066L8.98436 19.4409L9.07277 19.6905L9.11116 19.9097L9.16491 20.2669L9.14561 20.3704L9.12258 20.4051H9.0956L9.04579 20.3627L9.0074 20.2899L8.94597 20.1554L8.85756 19.9788L8.76915 19.7022L8.72308 19.4409L8.7154 19.1375ZM11.9883 18.4037L11.9693 18.4651L11.8539 18.4728L11.7042 18.4497L11.6005 18.4037L11.3585 18.2538L11.1203 18.077L10.8513 17.9158L10.7591 17.8466L10.882 17.8429L11.0165 17.8927L11.2471 17.9504L11.4583 18.0542L11.7042 18.1617L11.8808 18.2422L11.973 18.3269L11.9883 18.4037ZM8.48484 16.748L8.60022 16.5481L8.63467 16.4907L8.69237 16.4637L8.74612 16.4983V16.6135L8.71146 16.6942L8.66539 16.8017L8.59628 16.8978L8.52717 16.9246L8.4811 16.8862L8.48484 16.748ZM19.464 8.25424L19.5984 8.2312L19.6561 8.32334L19.6485 8.48854L19.5677 8.78447L19.3872 9.25681L19.1452 9.65651L18.8762 10.1558L18.446 10.7591L18.1196 11.1009L17.893 11.1893L17.8199 11.1854L17.8085 11.1279L17.8776 10.9664L18.154 10.54L18.3809 10.0714L18.5842 9.66792L18.9453 8.96876L19.2874 8.42337L19.464 8.25424ZM13.2829 14.7312L13.2061 14.7003L13.1217 14.7235L13.0216 14.8657L12.872 15.1461L12.7952 15.4381L12.7105 15.7338L12.5684 16.0449L12.4572 16.2294L12.3494 16.3446L12.3571 16.4444L12.4339 16.4983L12.5684 16.4483L12.6952 16.3522L12.9448 16.0411L13.087 15.607L13.2485 15.1538L13.3062 14.8234L13.2829 14.7312ZM8.45807 14.0204L8.61952 13.7401L8.70399 13.6402L8.82685 13.6056L8.87292 13.6747L8.86897 13.886L8.78825 14.1856L8.68469 14.5237L8.5002 14.808L8.40037 14.8348L8.36572 14.758V14.6084L8.38502 14.4046L8.45807 14.0204ZM10.667 14.4046L10.6554 14.3201L10.6784 14.2778L10.7168 14.2817L10.7822 14.2933L10.855 14.3585L10.9397 14.4353L11.0742 14.516L11.1547 14.6121L11.2047 14.6852L11.2087 14.7503L11.1894 14.785L11.151 14.7887L11.0586 14.7312L10.9283 14.6582L10.8166 14.566L10.7129 14.4623L10.667 14.4046ZM9.31475 12.5607L9.50671 12.5376L9.60653 12.53L9.67585 12.5493L9.73728 12.6067L9.74101 12.6721L9.68726 12.7603L9.50277 12.8296L9.32616 12.8487L9.21866 12.8066L9.19168 12.7296L9.2224 12.626L9.31475 12.5607ZM19.2259 14.3201L19.0991 14.2854L18.9609 14.3047L18.8148 14.4199L18.7189 14.5428V14.6658L18.7802 14.7426L18.8534 14.8387L18.9839 14.8694L19.1799 14.8657L19.2606 14.8194L19.2988 14.7042L19.2797 14.5428L19.2643 14.3892L19.2259 14.3201ZM15.949 4.22444L15.7722 4.37427L15.8837 4.38589L16.1028 4.37054L16.3294 4.31284L16.6943 4.21302L16.9593 4.05156L17.0784 3.95174L17.1861 3.92497L17.2743 3.90173L17.3204 3.82121L17.2513 3.70976L17.1631 3.69046L17.0554 3.70582L16.9132 3.77493L16.6021 3.92103L16.2757 4.06713L15.949 4.22444ZM15.0616 5.11951L15.1193 5.02737L15.1654 4.99665H15.2268L15.2806 5.00827L15.2999 5.06576L15.3076 5.16579L15.2806 5.25399L15.2422 5.27329L15.1654 5.27702L15.104 5.24631L15.054 5.18862L15.0616 5.11951ZM15.8185 5.7035L15.8723 5.69955L15.9297 5.71512L15.9567 5.75725L15.976 5.82635L15.9644 5.88405L15.9069 5.91082H15.8339L15.7915 5.88799L15.7685 5.82635L15.7762 5.74957L15.8185 5.7035ZM18.4998 5.76119L18.1156 6.03388L18.058 6.06833L18.0081 6.13765L18.0426 6.20302H18.2387L18.4577 6.1528L18.6727 6.04924L18.7918 5.86495L18.8378 5.70723L18.9339 5.63045L18.9263 5.52689H18.8762L18.7341 5.61509L18.4998 5.76119ZM19.537 6.0069L19.4102 6.16836L19.3488 6.2605L19.3602 6.32961L19.4449 6.35659L19.6215 6.31052L19.7943 6.20302L19.9404 6.0646L19.9749 5.93406V5.81494L19.9097 5.7726L19.8136 5.78049L19.6831 5.86869L19.537 6.0069ZM19.4833 6.75608L19.4332 6.84428L19.4795 6.90592H19.6138L19.829 6.90198L20.0365 6.81751L20.2439 6.71769L20.3937 6.54108L20.436 6.43732V6.32193L20.3283 6.29495L20.1594 6.37589L20.0479 6.45641L19.8097 6.6023L19.6024 6.70233L19.4833 6.75608ZM18.8955 3.1872L19.0184 3.14508L19.1029 3.10668L19.2106 3.14508L19.245 3.22186L19.1645 3.314L19.0531 3.35634L18.9186 3.36402L18.8686 3.27188L18.8955 3.1872ZM21.1161 2.39195L21.185 2.44197L21.2659 2.45732L21.3697 2.465L21.4772 2.45732L21.5461 2.42661L21.5428 2.3575L21.4618 2.31517L21.3581 2.28072L21.1659 2.30002L21.1161 2.39195ZM21.6117 2.87612L21.4996 2.87985L21.427 2.91057L21.3774 2.9529L21.4195 3.00292L21.4772 3.0299L21.5772 3.04505L21.6615 3.03758L21.7231 2.96453L21.7383 2.92219L21.6964 2.89542L21.6117 2.87612ZM21.681 4.77003L21.4772 4.85449L21.4079 4.86217L21.3506 4.84287L21.3581 4.75841L21.327 4.67789V4.53179L21.3925 4.36659L21.4843 4.26677L21.5428 4.18978L21.6034 4.11299H21.6964L21.7611 4.17836L21.746 4.33982L21.7611 4.42429L21.8725 4.41661L22.0301 4.35518L22.1726 4.32426L22.2915 4.31658L22.3528 4.37427L22.2687 4.50107L22.1834 4.52411L22.0421 4.57412L21.8574 4.67789L21.681 4.77003ZM21.4996 12.7566L21.4002 12.7643L21.3353 12.8105L21.3193 12.868L21.3851 12.9332L21.4843 12.9409L21.5613 12.918L21.588 12.8834L21.5849 12.8257L21.4996 12.7566ZM21.6766 12.5416H21.5613L21.4996 12.5069V12.4223L21.5268 12.3648L21.588 12.3455H21.669L21.746 12.3955L21.7536 12.4569L21.6766 12.5416ZM21.7727 11.8001L21.6887 11.8154L21.6194 11.8655V11.9346L21.6465 11.992L21.7308 12.0113L21.8109 11.9997L21.8885 11.9615L21.9147 11.9076L21.9035 11.8422L21.8537 11.8001H21.7727ZM21.8918 11.5044L21.7765 11.5004L21.7154 11.4581L21.7115 11.412L21.7308 11.3429L21.8225 11.3006L21.923 11.2854L22.0072 11.3275L22.0375 11.4083L21.9956 11.4734L21.8918 11.5044ZM22.1261 10.6514L22.0072 10.6861L21.9338 10.7128L21.8842 10.7705L21.8192 10.8396L21.8269 10.9127L21.919 10.9588H22.0267L22.1338 10.9357L22.1878 10.8664L22.2451 10.7896L22.2604 10.7012L22.2183 10.6514H22.1261ZM22.2451 10.0637L22.1261 10.079L22.0496 10.1328L22.0108 10.1905L22.0031 10.2749L22.0529 10.3326L22.1683 10.3366L22.2604 10.3133L22.3488 10.298L22.3988 10.2173V10.1521L22.3528 10.0867L22.2451 10.0637ZM22.3488 9.87545H22.2343L22.1878 9.86777L22.1305 9.84848L22.0994 9.79099L22.1145 9.71794L22.1913 9.64883L22.2567 9.61417L22.3297 9.58346L22.4333 9.57972L22.5335 9.61417L22.5757 9.6949L22.5603 9.79473L22.4414 9.84474L22.3488 9.87545ZM7.42478 19.6407L7.32475 19.6291L7.20957 19.6866L7.26706 19.798L7.38244 19.825L7.45155 19.7406L7.42478 19.6407ZM22.3376 9.06485L22.1533 9.16093L22.111 9.19165L22.0956 9.24145L22.1222 9.30309L22.226 9.31824L22.3528 9.30703L22.4603 9.26843L22.5335 9.207L22.5757 9.1379V9.09556L22.5335 9.05717L22.4254 9.04554L22.3376 9.06485ZM22.4526 8.79589L22.3185 8.85358L22.2527 8.8459L22.1913 8.8266L22.1757 8.76144L22.1878 8.68839L22.2222 8.64605L22.2915 8.60392L22.3725 8.58462L22.4526 8.57694L22.5107 8.58089L22.5335 8.61534V8.67303L22.5063 8.73446L22.4526 8.79589ZM22.4642 8.28121L22.3488 8.32334L22.2841 8.30799L22.2222 8.27354L22.2106 8.2119L22.2183 8.13511L22.2644 8.08925L22.3297 8.04297L22.4254 8.02388L22.5063 8.01994L22.5603 8.03529L22.58 8.08925L22.568 8.17372L22.5489 8.22352L22.4642 8.28121ZM22.4451 6.94805L22.3488 6.95199L22.2687 6.98271L22.2183 7.03272V7.09041L22.272 7.14022H22.3565L22.4374 7.12092L22.487 7.06717L22.5184 7.01715L22.5026 6.96735L22.4451 6.94805ZM22.4762 7.72026L22.3565 7.77796L22.3069 7.77007L22.2567 7.75119L22.2071 7.68955L22.1994 7.62044L22.2183 7.58205H22.2841L22.3185 7.55901L22.3337 7.4897L22.3488 7.43616L22.3802 7.39756L22.4374 7.39382L22.5063 7.41291L22.568 7.44757L22.5757 7.52062L22.568 7.63953L22.4762 7.72026ZM22.4565 6.47945L22.3725 6.53714L22.3221 6.56412L22.2764 6.60625L22.2567 6.66768L22.2764 6.71395L22.3528 6.72163L22.4107 6.71395L22.4762 6.69839L22.5451 6.67141L22.5873 6.61393L22.5985 6.54855L22.5451 6.48339L22.4565 6.47945ZM22.4565 6.20302L22.3878 6.22979L22.3414 6.22211L22.3069 6.20302V6.14138L22.3108 6.07601L22.3604 6.02247L22.4069 5.99549L22.4796 5.98387L22.5261 6.01085L22.5335 6.07601L22.5292 6.13765L22.4565 6.20302ZM22.2687 5.59205L22.2222 5.61509L22.1757 5.67672L22.1533 5.72259L22.165 5.77655L22.2148 5.80726L22.2764 5.79958L22.3221 5.7726L22.3725 5.73421L22.391 5.6651L22.3802 5.61903L22.3297 5.58832L22.2687 5.59205Z" fill="#A09C9C"/>
</svg>
