<svg width="42" height="41" viewBox="0 0 42 41" fill="none" xmlns="http://www.w3.org/2000/svg">
<path d="M37.9197 8.04608L38.9089 7.08608C39.6095 7.96608 40.1865 8.92608 40.8048 9.92608H41.5879V0.486082H31.8199V1.24608C32.8503 1.76608 33.757 2.36608 34.6637 3.08608L33.6746 4.04608C30.2537 1.48608 26.0086 0.0460815 21.3925 0.0460815C9.97588 0.0460815 0.784912 8.96608 0.784912 20.0461C0.784912 31.1261 9.97588 40.0461 21.3925 40.0461C32.809 40.0461 42 31.1261 42 20.0461C42 15.5261 40.4338 11.3661 37.9197 8.04608ZM36.436 23.6461C34.7462 30.1661 28.6463 35.0861 21.3925 35.0861C14.1386 35.0861 7.99755 30.2461 6.34895 23.6461H36.436ZM6.30773 16.4061C7.99755 9.84608 14.0974 4.96608 21.3512 4.96608C28.6051 4.96608 34.7462 9.80608 36.3948 16.4061H6.30773ZM32.3969 19.9661C32.3969 19.2861 32.7678 18.6461 33.3861 18.6461C33.9631 18.6461 34.2928 19.2861 34.2928 20.0461C34.2928 20.7261 33.9631 21.4461 33.3036 21.4461C32.6442 21.3661 32.3969 20.6861 32.3969 19.9661ZM15.2926 19.9661C15.2926 19.2861 15.6636 18.6461 16.2818 18.6461C16.8588 18.6461 17.1885 19.2861 17.1885 20.0461C17.1885 20.7261 16.8588 21.4461 16.1994 21.4461C15.5399 21.3661 15.2926 20.6861 15.2926 19.9661ZM16.2818 18.0461C18.0953 18.0461 19.002 18.9261 19.002 20.0061C19.002 21.0861 18.0953 21.9661 16.2818 21.9661C14.4683 21.9661 13.5616 21.0461 13.5616 19.9661C13.5616 18.8861 14.4683 18.0461 16.2818 18.0461ZM10.7178 21.0061L11.9954 18.6861H11.2123V18.1261H13.8501V18.6861H12.9434L11.2123 21.8461H9.15158L7.33811 18.6861H6.43138V18.1261H10.3056V18.6861H9.39887L10.7178 21.0061ZM33.3861 18.0461C35.1995 18.0461 36.1063 18.9261 36.1063 20.0061C36.1063 21.0861 35.1995 21.9661 33.3861 21.9661C31.5726 21.9661 30.6659 21.0861 30.6659 20.0061C30.6659 18.9261 31.5726 18.0461 33.3861 18.0461ZM24.4836 18.7261H23.5769V18.1661H27.4511V18.7261H26.5443L27.822 21.0461L29.0997 18.7261H28.399V18.1661H31.0368V18.7261H30.1301L28.399 21.8861H26.3383C26.2971 21.8861 24.4836 18.7261 24.4836 18.7261ZM20.0736 18.7261H19.1668V18.1661H22.7113V18.7261H21.8046V21.2861H22.6289C23.412 21.2861 23.8654 20.7661 23.8654 20.1661H24.4424V21.9261H19.1668V21.3661H20.0736V18.7261Z" fill="#A09C9C"/>
</svg>
