<svg width="41" height="40" viewBox="0 0 41 40" fill="none" xmlns="http://www.w3.org/2000/svg">
<g clip-path="url(#clip0_413_281)">
<path d="M22.5321 29.5462C22.7641 29.3688 23.2827 29.1914 23.5693 29.0686C23.5557 28.6318 23.3783 28.2224 23.4874 27.8539C23.6785 27.1989 24.1289 26.9123 24.5656 26.8577C24.5929 26.8713 24.6202 26.9259 24.5929 26.9396C24.3472 27.1716 24.2517 27.4991 24.2107 27.8539C24.1971 27.9904 24.1698 28.4135 24.2926 28.7137C24.5519 28.5773 25.1797 28.3589 25.3844 28.318C25.4117 27.8812 25.4799 27.4582 25.6028 27.1443C25.8484 26.5302 26.3943 26.0389 26.9402 26.3255C26.9675 26.3391 26.9948 26.3937 26.9675 26.4073C26.6263 26.5302 26.4079 26.885 26.2169 27.2944C26.1623 27.4172 25.9712 28.0723 26.1896 28.2088C26.1896 28.2088 26.2032 28.2088 26.2032 28.2224C26.599 28.1405 26.6672 28.1815 27.0903 28.1405C27.1585 27.7175 27.3496 27.349 27.5134 27.0761C27.759 26.5984 28.4004 26.2163 28.9736 26.5575C29.0009 26.5711 29.0282 26.6393 28.9873 26.6393C28.5915 26.7212 28.3322 26.9805 28.1957 27.2125C28.1275 27.3217 27.759 27.8267 27.9501 28.0314C27.9637 28.0314 27.991 28.0314 28.0183 28.0314C28.3595 28.0177 28.6052 28.086 28.96 28.1542C29.0692 27.8949 29.1647 27.8676 29.2739 27.7311C29.6696 27.2535 30.3383 27.0897 30.5704 27.5401C30.5976 27.5674 30.5976 27.6219 30.5704 27.6219C30.3656 27.6492 30.0245 27.7584 29.8607 27.9631C29.8198 28.0041 29.7106 28.1269 29.6014 28.3589C30.0654 28.7137 30.3247 29.0003 30.4475 29.478C30.4748 29.5599 30.5158 30.0512 30.352 29.8055C29.6014 28.8638 28.5915 28.6591 27.0767 28.8093C25.4526 28.9594 24.702 29.205 23.078 30.0784C23.9787 30.8836 22.6277 31.6752 22.4093 30.4879C21.6178 31.6888 20.7853 30.174 21.8498 29.9556C20.758 28.8911 22.2455 28.3998 22.5321 29.5462Z" fill="#A09C9C"/>
<path d="M25.3026 24.3603C25.8894 24.1692 26.5308 23.9645 26.8584 23.8963C26.913 22.941 27.8137 21.7537 28.8782 22.1631C28.9191 22.1767 28.9464 22.2313 28.9055 22.245C28.6325 22.3268 27.7591 23.1593 28.0593 23.6916C28.2777 23.7052 28.8782 23.6916 29.0556 23.7052C29.2876 22.6544 30.2019 21.9174 31.2391 22.3951C31.2801 22.4087 31.3074 22.477 31.2664 22.477C30.857 22.5452 29.929 23.2003 30.0382 23.7598C30.2292 23.7734 30.7478 23.9509 31.0754 24.1283C31.1982 23.869 31.3347 23.7734 31.4575 23.637C31.9078 23.1593 32.8358 23.1184 33.1088 23.5824C33.1361 23.6097 33.1361 23.6643 33.1088 23.6643C32.713 23.6506 32.3582 23.7052 32.017 24.0054C31.9624 24.0464 31.8533 24.2102 31.7304 24.4422C32.058 24.6196 32.4264 24.9608 32.4947 25.2883C32.5493 25.4521 32.5766 25.5885 32.5493 25.7523C32.5356 25.7932 32.4537 25.7523 32.4264 25.725C31.5667 24.7833 29.6697 24.1965 27.8273 24.4285C26.5991 24.5786 25.3981 24.9198 24.4019 25.3565C24.7431 25.0563 25.0433 24.7288 25.3026 24.3603ZM22.6004 26.4892C22.5186 26.5711 22.4367 26.6394 22.3684 26.7212C22.8051 27.3217 22.1091 27.7994 21.9044 27.1989C21.3858 27.7584 20.9764 27.1034 21.3176 26.8304C21.7543 26.7622 22.191 26.653 22.6004 26.4892Z" fill="#A09C9C"/>
<path d="M22.3001 34.5411C22.4229 34.4046 22.7232 34.1453 22.8733 34.0225C22.4093 33.2992 22.6686 32.3712 23.1189 32.303C23.1462 32.3166 23.1599 32.3576 23.1462 32.3849C23.0234 32.5623 22.9688 33.5176 23.3236 33.7223C23.501 33.5995 23.8422 33.3538 23.9923 33.3129C23.733 32.4394 24.1834 31.2658 25.0568 31.4568C25.0841 31.4705 25.0978 31.5251 25.0841 31.5387C24.3745 31.9072 24.3608 32.999 24.5519 33.1218C24.8385 33.0399 25.1524 32.9171 25.4662 32.8898C25.6027 31.7298 26.6263 31.2112 27.1449 31.5114C27.1721 31.5251 27.1858 31.5933 27.1721 31.5933C26.8856 31.4295 25.8074 32.535 26.1623 32.8625C26.4079 32.8489 26.6945 32.958 26.9811 33.0263C27.1039 32.3848 28.0046 31.8526 28.3867 32.262C28.414 32.2893 28.414 32.3439 28.4004 32.3439C28.0592 32.4121 27.6089 32.726 27.5406 33.3265C28.2639 33.6677 28.182 34.3773 28.0592 34.1863C27.3769 33.2856 25.9302 33.4357 24.8248 33.6677C24.1834 33.8042 23.2827 34.4183 22.9006 34.855C24.0606 35.4009 23.0097 36.4244 22.5184 35.2644C21.7133 36.6837 20.9217 35.3872 21.8634 35.0051C20.717 34.118 21.9043 33.5176 22.3001 34.5411Z" fill="#A09C9C"/>
<path d="M10.6178 33.463C9.47145 32.1392 8.5025 30.7062 7.72461 29.2596H20.2801V33.463H10.6178Z" fill="#A09C9C"/>
<path d="M26.3262 12.9239H35.5517V16.5404H26.3262V12.9239Z" fill="#A09C9C"/>
<path d="M35.5514 7.43772L32.822 6.46877L29.6422 5.82735L26.0666 5.04946L22.7503 4.79016H20.2256V8.59774H35.5378L35.5514 7.43772Z" fill="#A09C9C"/>
<path d="M7.13809 3.16616C7.50657 3.04334 7.87504 2.93416 8.25716 2.82498C8.39363 2.78404 8.53011 2.7431 8.68023 2.7158C8.83035 2.68851 8.98047 2.67486 9.13058 2.7158L9.18517 2.7431C9.23976 2.77039 9.26706 2.81133 9.29435 2.86592C9.33529 2.96145 9.34894 3.05698 9.36259 3.16616C9.38988 3.38452 9.38988 3.60287 9.36259 3.82123C9.34894 3.99864 9.32165 4.17606 9.25341 4.32618C9.22611 4.39441 9.18517 4.449 9.13058 4.50359C9.08964 4.54453 9.0487 4.58547 9.00776 4.61277C8.91223 4.681 8.83035 4.73559 8.72117 4.77653C8.47552 4.88571 8.22987 4.9676 7.97057 5.04948C7.53386 5.1996 7.09715 5.34972 6.66044 5.49984V6.30502C6.44208 6.38691 6.22373 6.48244 6.00537 6.56432V3.53464C6.38749 3.41181 6.75597 3.28899 7.13809 3.16616ZM6.66044 4.95395C7.09715 4.80383 7.53386 4.65371 7.98422 4.50359C8.12069 4.46265 8.25716 4.42171 8.37999 4.36712L8.47552 4.31253L8.51646 4.28523L8.5574 4.24429L8.59834 4.20335L8.62564 4.16241L8.66658 4.08053C8.68023 4.02594 8.69387 3.985 8.69387 3.93041C8.70752 3.79393 8.70752 3.67111 8.66658 3.53464L8.63928 3.4664L8.61199 3.41181L8.57105 3.37087L8.51646 3.34358L8.46187 3.32993H8.40728H8.35269C8.21622 3.34358 8.0934 3.38452 7.95692 3.42546C7.52021 3.56193 7.0835 3.71205 6.64679 3.84852L6.66044 4.95395ZM12.2149 1.78779C12.5151 1.7332 12.8017 1.67862 13.1019 1.65132C13.1975 1.63767 13.293 1.63767 13.3885 1.63767C13.4295 1.63767 13.484 1.65132 13.525 1.66497C13.5659 1.67862 13.5932 1.69226 13.6342 1.71956C13.6615 1.74685 13.6888 1.7605 13.7161 1.78779C13.7433 1.81509 13.757 1.85603 13.7706 1.88332C13.7979 1.93791 13.8116 1.97885 13.8116 2.03344C13.8389 2.21086 13.8525 2.40192 13.8662 2.59298C13.8798 2.81133 13.8798 3.01604 13.8662 3.22075C13.8662 3.30263 13.8662 3.39817 13.8525 3.48005C13.8389 3.64382 13.8389 3.80758 13.7979 3.97135C13.7843 4.01229 13.7706 4.05323 13.757 4.08053C13.7297 4.13512 13.7024 4.1897 13.6615 4.24429L13.5796 4.36712L13.4568 4.449C13.4022 4.4763 13.3612 4.48994 13.3066 4.51724C13.0883 4.58547 12.8699 4.62641 12.6516 4.681C12.2012 4.77653 11.7509 4.85842 11.3005 4.95395C11.0821 4.99489 10.8638 5.03583 10.6454 5.06313C10.5908 5.07677 10.5226 5.07677 10.468 5.07677L10.3315 5.06313C10.2906 5.04948 10.2633 5.03583 10.236 5.02218L10.1678 4.9676L10.1132 4.88571L10.0313 4.43535V3.22075C10.0449 3.08428 10.0586 2.93416 10.0859 2.79769L10.1268 2.67486C10.1541 2.60663 10.1814 2.55204 10.2224 2.49745L10.3179 2.38827L10.3998 2.32003C10.4817 2.26545 10.5772 2.21086 10.6864 2.16992L11.1777 2.0198C11.4916 1.92427 11.8464 1.85603 12.2149 1.78779ZM11.8737 2.40192L11.164 2.56568C11.1094 2.57933 11.0548 2.60663 11.0003 2.62027L10.9457 2.66122L10.8911 2.70216L10.8501 2.7431L10.8092 2.78404L10.7683 2.82498L10.741 2.87957C10.7137 2.92051 10.7 2.9751 10.6864 3.01604C10.6454 3.19346 10.6454 3.37087 10.6454 3.54828C10.6454 3.73935 10.6454 3.93041 10.6727 4.10782L10.7 4.17606L10.741 4.24429L10.7955 4.29888L10.8501 4.33982L10.9184 4.36712L10.9866 4.38076H11.0685C11.1231 4.38076 11.164 4.38076 11.205 4.36712C11.4779 4.32618 11.7509 4.27159 12.0238 4.217C12.2422 4.17606 12.4742 4.12147 12.6925 4.06688C12.7335 4.05323 12.788 4.03958 12.829 4.02594L12.8972 3.985L12.9655 3.94405L13.02 3.88947L13.0746 3.83488L13.1156 3.76664L13.1429 3.6984L13.1702 3.63017C13.2111 3.42546 13.1975 3.2344 13.1975 3.02969C13.1975 2.92051 13.1975 2.81133 13.1838 2.7158L13.1702 2.63392C13.1565 2.57933 13.1429 2.52474 13.1156 2.47015L13.0883 2.41557L13.061 2.37462L13.02 2.33368L12.9927 2.32003L12.9382 2.29274L12.8836 2.27909L12.7744 2.26545C12.6516 2.26545 12.5424 2.27909 12.4332 2.29274C12.2422 2.33368 12.0511 2.37462 11.8737 2.40192ZM16.3773 1.28285C16.7184 1.25555 17.0596 1.22826 17.4008 1.22826C17.469 1.22826 17.5509 1.22826 17.6192 1.22826C17.701 1.22826 17.7693 1.2419 17.8375 1.28285C17.8648 1.29649 17.8921 1.31014 17.9057 1.32379C17.9603 1.36473 18.0013 1.40567 18.0286 1.47391C18.0559 1.51485 18.0695 1.56944 18.0832 1.61038C18.1105 1.71956 18.1105 1.84238 18.1105 1.95156C18.1105 2.10168 18.1105 2.23815 18.0968 2.38827C18.0968 2.44286 18.0832 2.49745 18.0695 2.55204L18.0422 2.60663C18.0149 2.64757 18.0013 2.67486 17.974 2.7158L17.9057 2.77039C17.8785 2.78404 17.8512 2.81133 17.8102 2.82498C17.7693 2.83863 17.7147 2.85228 17.6737 2.86592L17.3053 2.94781L17.6737 3.15252C17.7283 3.19346 17.7693 3.22075 17.8102 3.26169L17.8512 3.31628C17.9057 3.39817 17.9467 3.48005 17.9876 3.57558C18.0422 3.73935 18.0695 3.90311 18.0695 4.06688C17.8512 4.08053 17.6328 4.08053 17.4144 4.09417C17.4008 3.97135 17.3872 3.86217 17.3462 3.73935L17.2916 3.60287L17.2643 3.53464L17.2234 3.48005L17.1824 3.42546L17.1279 3.38452L17.0596 3.34358C17.0187 3.32993 16.9777 3.31628 16.9368 3.31628C16.8549 3.30263 16.7594 3.31628 16.6775 3.31628C16.2544 3.34358 15.845 3.38452 15.422 3.42546L15.2582 3.43911V4.24429C15.0398 4.27159 14.8215 4.29888 14.6031 4.31253V1.44661C15.2036 1.37838 15.7904 1.32379 16.3773 1.28285ZM15.2718 2.94781C15.7085 2.90687 16.1453 2.86592 16.582 2.83863C16.7321 2.82498 16.8822 2.81133 17.0323 2.79769C17.0733 2.79769 17.1142 2.78404 17.1551 2.77039L17.2097 2.75675L17.2643 2.72945L17.3053 2.70216L17.3462 2.66122L17.3735 2.62027L17.4008 2.57933C17.4144 2.53839 17.4281 2.5111 17.4281 2.47015C17.4417 2.34733 17.4417 2.2245 17.4417 2.10168C17.4417 2.06074 17.4281 2.0198 17.4144 1.96521L17.3872 1.92427L17.3599 1.88332L17.3189 1.84238L17.278 1.81509L17.237 1.78779L17.1824 1.77415C17.1415 1.7605 17.1006 1.7605 17.0596 1.7605C16.8413 1.7605 16.6229 1.78779 16.4182 1.80144C16.0361 1.82874 15.6676 1.86968 15.2855 1.89697L15.2718 2.94781ZM19.9119 3.61652C20.1575 3.61652 20.4032 3.61652 20.6625 3.61652C20.8263 3.61652 21.0037 3.61652 21.1811 3.60287C21.222 3.60287 21.2493 3.58923 21.2903 3.58923C21.3312 3.57558 21.3585 3.56193 21.3858 3.54828L21.4267 3.52099L21.454 3.48005L21.4813 3.43911L21.495 3.39817L21.5086 3.30263V3.16616L21.4813 3.01604L21.4677 2.9751L21.454 2.93416L21.4267 2.89322L21.3858 2.86592L21.3448 2.83863L21.2493 2.81133L21.0855 2.78404H20.8808H19.5025C19.366 2.78404 19.2295 2.78404 19.1067 2.75675C19.0658 2.7431 19.0385 2.7431 19.0112 2.72945L18.9702 2.70216L18.9293 2.67486L18.902 2.64757L18.8747 2.60663L18.8474 2.56568C18.8201 2.5111 18.7928 2.45651 18.7792 2.40192C18.7519 2.2518 18.7519 2.08803 18.7519 1.93791C18.7519 1.74685 18.7655 1.55579 18.8474 1.37838C18.8611 1.35108 18.8883 1.32379 18.902 1.29649C18.9975 1.21461 19.1203 1.17367 19.2432 1.14637C19.366 1.11908 19.5025 1.11908 19.6253 1.11908C19.9255 1.11908 20.2258 1.11908 20.526 1.11908C21.0173 1.11908 21.5223 1.13273 22.0136 1.14637V1.58309C21.3585 1.56944 20.7034 1.55579 20.0484 1.55579C19.8982 1.55579 19.7481 1.55579 19.598 1.56944C19.5707 1.56944 19.5298 1.58309 19.5025 1.58309L19.4479 1.61038L19.4069 1.65132L19.3796 1.70591L19.366 1.7605L19.3524 1.85603C19.3524 1.93791 19.3524 2.00615 19.3524 2.08803L19.366 2.14262L19.3796 2.19721L19.4206 2.2518L19.4888 2.29274L19.5571 2.30639C20.2394 2.32003 20.9354 2.33368 21.6178 2.36098L21.6997 2.37462C21.8089 2.40192 21.918 2.44286 21.9999 2.52474C22.0409 2.56568 22.0681 2.60663 22.0818 2.64757C22.15 2.79769 22.1637 2.9751 22.1637 3.13887C22.1637 3.32993 22.1637 3.52099 22.1091 3.6984C22.0954 3.7257 22.0954 3.75299 22.0818 3.78029L22.0409 3.83488C22.0136 3.87582 21.9863 3.90311 21.9453 3.93041C21.8771 3.97135 21.8089 4.01229 21.7406 4.02594C21.6314 4.05323 21.5086 4.05323 21.3994 4.06688C21.0583 4.08053 20.7307 4.08053 20.3895 4.08053C19.8573 4.08053 19.3251 4.09417 18.8065 4.09417C18.8065 3.94405 18.8065 3.78029 18.8065 3.63017C19.1613 3.61652 19.5161 3.61652 19.8709 3.61652H19.9119ZM24.4291 4.217C24.1562 4.1897 23.8696 4.17606 23.5966 4.13511C23.4738 4.12147 23.351 4.09417 23.2418 4.05323C23.1872 4.02594 23.1326 4.01229 23.078 3.97135C23.0371 3.94405 23.0098 3.91676 22.9689 3.88947C22.9416 3.86217 22.9143 3.82123 22.887 3.79393C22.8597 3.75299 22.846 3.71205 22.8324 3.67111C22.7915 3.52099 22.7778 3.35722 22.7778 3.19346C22.7642 2.79769 22.7642 2.41557 22.7778 2.0198V1.92427C22.7915 1.74685 22.8051 1.56944 22.9143 1.41932C22.9552 1.37838 22.9825 1.33744 23.0371 1.31014C23.1736 1.2419 23.3373 1.21461 23.4875 1.20096C23.6512 1.18732 23.8013 1.18732 23.9651 1.20096C24.279 1.21461 24.6065 1.22826 24.9204 1.25555C25.3844 1.29649 25.8348 1.33744 26.2988 1.39202V1.91062C25.6847 1.85603 25.0842 1.80144 24.4701 1.7605C24.279 1.74685 24.0743 1.7332 23.8696 1.74685L23.7741 1.7605L23.7058 1.77415L23.6512 1.80144L23.5966 1.84238L23.542 1.89697L23.5011 1.95156L23.4738 2.0198C23.4602 2.06074 23.4465 2.10168 23.4465 2.14262C23.4192 2.33368 23.4056 2.53839 23.4192 2.7431C23.4192 2.90687 23.4192 3.07063 23.4465 3.2344C23.4602 3.27534 23.4602 3.31628 23.4738 3.35722L23.5011 3.42546L23.542 3.48005L23.5966 3.53464L23.6512 3.57558L23.7058 3.60287L23.7741 3.63017C23.8286 3.64382 23.8832 3.65746 23.9378 3.65746C24.1152 3.68476 24.3063 3.6984 24.4837 3.71205C25.0978 3.76664 25.7256 3.82123 26.3397 3.88947C26.3397 4.05323 26.3397 4.20335 26.3397 4.36712V4.42171C25.9576 4.38077 25.5618 4.33982 25.1797 4.31253C24.9477 4.25794 24.6884 4.24429 24.4291 4.217ZM28.6052 2.92051C29.1101 3.01604 29.6151 3.11157 30.12 3.2071V2.04709C30.352 2.10168 30.584 2.15627 30.8297 2.19721V5.18595C30.5977 5.13136 30.3657 5.07677 30.12 5.02218V3.84852C29.7106 3.76664 29.3148 3.68476 28.9054 3.60287C28.5369 3.53464 28.1548 3.4664 27.7863 3.39817V4.55818C27.5543 4.51724 27.3223 4.48994 27.0767 4.449V1.54214C27.3087 1.56944 27.5543 1.59673 27.7863 1.63767V2.78404C28.0593 2.82498 28.3322 2.86592 28.6052 2.92051ZM33.9685 3.11157C34.2142 3.19346 34.4598 3.27534 34.7191 3.35722V3.84852C33.9958 3.60287 33.2589 3.37087 32.5219 3.13887L32.2763 3.07063V3.82123C32.8085 3.985 33.3544 4.14876 33.8866 4.32618C34.1186 4.40806 34.3643 4.4763 34.5963 4.55818V4.99489C33.9139 4.76289 33.2179 4.54453 32.5219 4.33982L32.2763 4.27159V5.06313C32.7949 5.21325 33.3135 5.37701 33.8184 5.54078C34.1186 5.63631 34.4189 5.74549 34.7328 5.84102V6.34596C33.7502 6.01843 32.7539 5.71819 31.744 5.4316L31.6348 5.40431V2.40192C32.4127 2.62027 33.1906 2.86592 33.9685 3.11157Z" fill="#A09C9C"/>
<path d="M5.9641 25.0699C5.52739 23.6097 5.29539 22.2449 5.28174 21.0713H14.4254C14.4527 22.6134 15.0941 24.0327 16.104 25.0699H5.9641Z" fill="#A09C9C"/>
<path d="M4.87256 3.02967L5.04997 2.96144C10.154 1.07812 15.2444 0.0955204 20.3485 -1.01042e-05C25.4526 -0.0818934 30.543 0.723292 35.647 2.44284L35.8381 2.51108V2.70214C35.7972 8.82974 35.7562 14.9573 35.7153 21.0849C35.7016 24.2511 34.0367 28.7001 30.8978 32.5896C28.3731 35.7284 24.8794 38.5124 20.5123 39.9863H20.3622C15.9541 38.8536 12.4741 36.1788 9.93568 33.0536C6.68764 29.0276 5.02268 24.2238 5.00903 20.9621C4.98174 18.0007 4.96809 15.0392 4.94079 12.0914L4.87256 3.02967ZM10.8227 33.2992H20.1029V29.5735H8.20248C8.16154 29.5053 8.1206 29.437 8.0933 29.3688C8.73472 30.5152 9.48532 31.6479 10.3451 32.726C10.5089 32.9171 10.659 33.1081 10.8227 33.2992ZM20.1165 33.7632H11.2458C13.5385 36.2743 16.5 38.3623 20.1165 39.3722V33.7632ZM11.0547 33.5585C11.0411 33.5449 11.0411 33.5449 11.0411 33.5312C11.0411 33.5449 11.0547 33.5585 11.0547 33.5585ZM7.94318 29.0959H20.1165V26.8987C20.212 26.8987 20.3076 26.8987 20.4031 26.8987C20.4713 26.8987 20.5259 26.8987 20.5942 26.8987V39.3859C20.5805 39.3859 20.5669 39.3995 20.5669 39.3995C24.7156 37.9529 28.0455 35.2781 30.4747 32.262C33.4908 28.5227 35.1011 24.2647 35.1694 21.2078C35.1694 21.2214 35.1694 21.2214 35.1694 21.2351H26.3942C26.3942 21.1395 26.4079 21.044 26.4079 20.9485V20.7574H35.183C35.1967 19.4473 35.1967 18.1371 35.2103 16.8407H26.4079V16.3767H35.2103C35.224 15.3122 35.224 14.2613 35.2376 13.2105H26.4079V12.7465H26.3396V12.7328H35.2376C35.2513 11.45 35.2513 10.1808 35.2649 8.89798H20.4577V12.7465H19.98V5.00852C15.1216 5.0904 10.2496 6.05936 5.36386 7.95632L5.35021 7.46502C10.3724 5.52711 15.3946 4.57181 20.4031 4.53087C25.3707 4.48993 30.3246 5.3497 35.2649 7.0556C35.2649 7.21937 35.2649 7.38314 35.2649 7.5469C35.2786 5.99112 35.2922 4.43534 35.2922 2.8932C30.311 1.24189 25.3297 0.463995 20.3622 0.545879C15.3127 0.627762 10.2769 1.59671 5.24103 3.46638L5.48668 12.0914C5.51398 14.9846 5.52763 17.8778 5.55492 20.7847C5.55492 20.7847 5.55492 20.7847 5.55492 20.7711H14.4393V20.9621C14.4393 21.0577 14.4393 21.1532 14.4529 21.2487H5.54127C5.56857 22.3405 5.80057 23.6097 6.19634 24.9471C6.19634 24.9335 6.18269 24.9198 6.18269 24.9062H15.9268C16.0087 25.0017 16.0906 25.0972 16.1861 25.1791L16.4863 25.3838H6.33281C6.72858 26.5848 7.26082 27.8403 7.94318 29.0959ZM6.30552 25.2883C6.29187 25.261 6.29187 25.2337 6.27822 25.2201C6.29187 25.2473 6.30552 25.261 6.30552 25.2883ZM6.25093 25.1109C6.23728 25.0836 6.23728 25.0563 6.22363 25.029C6.23728 25.0563 6.25093 25.0836 6.25093 25.1109ZM35.1557 20.9621V20.9758C35.1557 20.9758 35.1557 20.9758 35.1557 20.9621ZM35.1557 21.044V21.0577C35.1557 21.0577 35.1557 21.0576 35.1557 21.044ZM35.1557 21.044C35.1557 21.0304 35.1557 21.0304 35.1557 21.0304V21.044ZM35.1557 21.0031C35.1557 20.9894 35.1557 20.9894 35.1557 20.9894V21.0031ZM35.1557 20.7984C35.1557 20.7847 35.1557 20.7847 35.1557 20.7847V20.7984ZM20.4577 8.43397H35.2513C35.2513 8.51585 35.2513 8.58409 35.2513 8.66597C35.2513 8.2975 35.2513 7.92902 35.2513 7.56055C30.3246 5.841 25.398 4.98123 20.4577 5.00852V8.43397ZM20.4304 39.4405C20.4167 39.4405 20.4167 39.4405 20.4031 39.4541C20.4167 39.4541 20.4167 39.4541 20.4304 39.4405ZM20.2393 39.4132C20.1984 39.3995 20.1711 39.3995 20.1302 39.3859C20.1711 39.3859 20.212 39.3995 20.2393 39.4132Z" fill="#A09C9C"/>
<path d="M7.47912 10.5766C7.73842 10.4128 8.01136 10.249 8.28431 10.1126C8.24336 9.68951 8.20242 9.03445 8.3116 8.67962C8.51631 8.02455 9.11679 7.49231 9.82644 7.61513C9.86738 7.62878 9.89468 7.66972 9.86738 7.68337C9.47161 7.88808 9.15773 8.20197 8.98031 8.63868C8.92572 8.7615 8.73466 9.63492 9.02126 9.70316C9.04855 9.71681 9.07584 9.71681 9.11679 9.71681C9.63538 9.49845 10.1676 9.30739 10.7135 9.14362C10.7135 8.72056 10.7272 8.13373 10.8773 7.81984C11.1502 7.20572 11.8326 6.75536 12.5695 6.97372C12.6105 6.98736 12.6378 7.04195 12.6105 7.0556C12.1738 7.20572 11.8189 7.46502 11.5869 7.87443C11.5187 7.99726 11.2321 8.82974 11.5323 8.93892H11.546C12.0509 8.82974 12.5695 8.73421 13.1291 8.66597C13.1973 8.24291 13.3065 7.69702 13.4975 7.41043C13.907 6.80995 14.7258 6.40053 15.49 6.68712C15.531 6.70077 15.5583 6.75536 15.5173 6.76901C15.0124 6.89183 14.5757 7.12383 14.2618 7.5196C14.1799 7.62878 13.7568 8.39303 14.0025 8.57044C14.0298 8.57044 14.0571 8.57044 14.0844 8.55679C14.5211 8.51585 15.026 8.5022 15.5037 8.5295C15.6265 8.2702 15.7493 8.0382 15.8858 7.88808C16.3635 7.39678 17.4143 7.21937 17.7282 7.64243C17.7555 7.66972 17.7691 7.72431 17.7282 7.72431C17.2778 7.73796 16.8138 7.8062 16.4726 8.12008C16.418 8.17467 16.227 8.36573 16.1178 8.58409C16.8411 8.70691 17.4552 8.95256 17.6463 9.41657C17.7145 9.56669 17.7555 9.70316 17.7282 9.86693C17.7282 9.90787 17.6327 9.88057 17.6054 9.83963C16.691 8.9935 15.2307 8.89797 13.2792 9.23915C11.3003 9.58033 9.64903 10.1672 7.87489 11.0133C8.58454 11.8185 7.46547 12.4326 7.097 11.5865C6.23722 12.61 5.44568 11.1225 6.61934 10.9451C5.95063 9.90787 7.30171 9.86693 7.47912 10.5766Z" fill="#A09C9C"/>
<path d="M7.72497 18.7376C7.95697 18.5602 8.25721 18.4101 8.50286 18.2599C8.25721 17.8642 8.10709 17.291 8.20262 16.9225C8.36639 16.2675 8.7758 15.9536 9.28075 15.9809C9.32169 15.9809 9.34899 16.0354 9.32169 16.0491C8.96687 16.2811 8.91228 16.5813 8.8031 17.0317C8.74851 17.2773 8.88498 17.6868 9.0624 17.8369C9.51275 17.5912 9.49911 17.6322 9.97676 17.4548C9.84029 17.0317 9.86758 16.4585 10.045 16.1037C10.3179 15.5305 10.7683 15.3121 11.2187 15.4077C11.2596 15.4213 11.2869 15.4623 11.246 15.4759C10.8911 15.626 10.1678 16.1992 10.6455 17.2773C11.0822 17.1272 11.1095 17.0999 11.669 16.9771C11.71 16.554 11.7236 16.0491 11.8874 15.7489C12.2286 15.1347 13.0337 14.8481 13.4022 14.9983C13.4432 15.0119 13.4704 15.0665 13.4295 15.0801C13.2248 15.2166 12.9519 15.3258 12.6789 15.7352C12.5288 15.9536 12.2695 16.4585 12.3377 16.7997C12.7335 16.7451 13.2521 16.7178 13.7025 16.7315C13.798 16.4722 13.989 16.1583 14.1119 16.0082C14.1938 15.9126 14.3029 15.8307 14.4121 15.7898V17.3183C13.6615 17.2773 12.829 17.3592 12.0375 17.5503C10.2497 17.9734 9.7857 18.3009 8.18897 19.1607C9.14428 19.7611 8.21627 20.6755 7.62944 19.7748C6.59225 20.9621 5.92354 19.4336 7.00167 19.2016C6.18283 18.2054 7.52026 17.6731 7.72497 18.7376Z" fill="#A09C9C"/>
<path d="M7.26099 14.6708C7.53393 14.507 7.90241 14.3842 8.17535 14.2477C8.14806 13.8246 8.09347 13.4425 8.21629 13.0877C8.43465 12.4463 8.77583 12.1187 9.32172 12.1733C9.36266 12.187 9.38996 12.2279 9.36266 12.2552C8.96689 12.4599 9.06242 12.7329 8.88501 13.1559C8.83042 13.2788 8.69395 13.7973 8.98054 13.8792C9.00783 13.8929 9.03513 13.8929 9.07607 13.8929C9.59466 13.6882 9.4036 13.7018 9.93584 13.5653C9.94949 13.1559 9.97679 12.5964 10.1133 12.2962C10.3998 11.7093 10.9321 11.4227 11.4234 11.5456C11.4643 11.5592 11.5462 11.6547 11.5053 11.6684C11.1095 11.7912 10.4271 12.5964 10.7137 13.2242C11.0549 13.1696 11.2869 13.0604 11.901 12.9785C11.9829 12.5554 12.1194 12.1324 12.3241 11.8458C12.7472 11.259 13.4022 11.1361 13.7844 11.3136C13.8253 11.3272 13.8799 11.4364 13.8389 11.45C13.334 11.5592 13.3204 11.5046 12.9928 11.9004C12.8154 12.1051 12.4606 12.6646 12.7199 12.9239C13.1566 12.8966 13.4568 12.842 13.9345 12.883C14.0573 12.6373 14.1528 12.2962 14.2893 12.1597C14.767 11.6684 15.5994 11.6274 15.8724 11.955C15.8997 11.9823 15.9133 12.0369 15.8724 12.0369C15.422 12.0505 15.2583 12.1733 14.9034 12.4872C14.8625 12.5145 14.7806 12.6237 14.6851 12.7602H14.4258V13.6063C13.6888 13.538 12.8836 13.5653 12.133 13.6745C10.1542 13.9748 9.4309 14.4251 7.79323 15.2167C8.48924 16.0355 7.35652 16.6087 7.01534 15.7489C6.14192 16.7588 5.36403 15.244 6.56498 15.0938C5.89627 14.0157 7.06993 13.7291 7.26099 14.6708Z" fill="#A09C9C"/>
<path d="M26.1078 13.0331V20.9621C26.1078 24.0874 23.5557 26.6257 20.4032 26.6257C17.2644 26.6257 14.6987 24.0874 14.6987 20.9621V13.0331H26.1078ZM26.3807 12.7465H14.4121V20.9485C14.4121 24.2102 17.1006 26.8987 20.3896 26.8987C23.6922 26.8987 26.3671 24.2102 26.3671 20.9485L26.3807 12.7465Z" fill="#A09C9C"/>
<path d="M20.1436 18.5602C20.1982 18.6148 20.321 18.5466 20.3619 18.492C20.4575 18.3418 20.4438 18.1508 20.4575 17.9597C20.4711 17.755 20.4711 17.5776 20.4029 17.3865C20.2937 17.059 20.1436 16.7997 19.7751 16.7451C19.7342 16.7315 19.6523 16.8134 19.6796 16.8407C19.9252 17.1 20.0208 17.0863 20.089 17.4821C20.1572 17.8642 20.1163 18.5329 20.1436 18.5602ZM17.5643 23.3231C17.6188 23.3367 17.7417 23.173 17.7826 23.0774C17.8236 22.9955 17.8099 22.8318 17.8099 22.8181C17.7963 22.7908 17.6598 22.8454 17.5916 22.8454C17.5233 22.8454 17.4687 22.8318 17.3732 22.8181C17.2777 22.8045 17.2913 22.5861 17.2777 22.4633C17.2504 22.1494 17.2367 21.8355 17.2504 21.5216C17.2504 21.4398 17.2777 21.3306 17.3459 21.276C17.4414 21.2214 17.5779 21.2351 17.6871 21.2487C17.9054 21.2896 18.1101 21.3988 18.3422 21.4398C18.465 21.4671 18.6014 21.4534 18.7243 21.4125C18.8335 21.3852 18.9153 21.3033 19.0109 21.2624C19.0655 21.2487 19.1337 21.2351 19.1746 21.2624C19.352 21.3579 19.4749 21.5353 19.6523 21.6035C19.8843 21.6718 20.1299 21.6445 20.3756 21.6581C20.5666 21.6581 20.7577 21.6308 20.9488 21.6581C21.0307 21.6718 21.1671 21.6854 21.1944 21.7809C21.2217 21.9038 21.017 22.0129 21.0443 22.1358C21.0989 22.3268 21.3172 22.4224 21.4128 22.5861C21.4537 22.6544 21.4401 22.7363 21.4128 22.8045C21.3855 22.8591 21.29 22.8727 21.249 22.9273C21.1944 23.0092 21.1808 23.1047 21.1262 23.1866C21.0716 23.2685 20.9897 23.3367 20.9078 23.405C20.7304 23.5414 20.553 23.6779 20.3483 23.7871C20.2801 23.828 20.1572 23.7461 20.1299 23.8144C20.0753 23.9372 20.0208 24.0873 19.9662 24.1692C19.9116 24.2511 19.8433 24.2647 19.8024 24.3057C19.7615 24.3603 19.7069 24.4558 19.7342 24.4694C19.7615 24.4831 20.0208 24.4831 20.1163 24.4694C20.2118 24.4558 20.2664 24.4422 20.2937 24.4285C20.321 24.4012 20.2801 24.3193 20.2528 24.1556C20.2391 23.9918 20.6895 23.9236 20.9078 23.8007C21.1398 23.6506 21.3718 23.4868 21.6038 23.3504C21.6994 23.2958 21.8358 23.2821 21.9177 23.2003C21.9587 23.1593 21.945 23.0911 21.945 23.0365C21.945 22.9 21.9177 22.7635 21.9177 22.6271C21.9177 22.5588 21.9177 22.477 21.9723 22.436C22.0133 22.3951 22.0951 22.3814 22.1361 22.4087C22.218 22.4497 22.2316 22.5725 22.2998 22.6271C22.409 22.709 22.5455 22.7363 22.6683 22.7908C22.7775 22.8454 22.9686 22.8454 22.9822 22.9546C23.0095 23.1593 22.873 23.3504 22.7911 23.5278C22.7502 23.6233 22.6547 23.6779 22.6001 23.7734C22.5728 23.828 22.5728 23.8963 22.5318 23.9372C22.4227 24.0464 22.2726 24.1146 22.1634 24.2238C22.0815 24.3057 22.0133 24.3876 21.9723 24.4831C21.945 24.5377 21.9314 24.5923 21.9041 24.6469C21.8631 24.7015 21.7949 24.7151 21.754 24.797C21.713 24.8789 21.6175 25.0972 21.6994 25.0836C21.7813 25.0699 22.2589 24.988 22.2726 24.9335C22.2862 24.8925 22.2453 24.7697 22.218 24.6196C22.1907 24.4694 22.5318 24.3603 22.6956 24.2647C22.7911 24.2102 22.9276 24.2374 23.0095 24.1692C23.0641 24.1283 23.0368 24.0327 23.0504 23.9781C23.0914 23.8826 23.1187 23.7734 23.2006 23.6916C23.2961 23.5824 23.4599 23.5414 23.5417 23.4323C23.6236 23.2958 23.7192 23.132 23.6919 22.9819C23.6646 22.8591 23.5144 22.8181 23.4326 22.7226C23.3643 22.6544 23.2961 22.5725 23.2688 22.477C23.2279 22.3405 23.2006 22.204 23.2415 22.0675C23.2961 21.9038 23.4599 21.7946 23.5554 21.6581C23.6373 21.5353 23.7601 21.4398 23.801 21.3033C23.842 21.1395 23.7601 20.9621 23.7465 20.7983C23.7465 20.7711 23.7192 20.7301 23.7465 20.7028C23.8556 20.6073 23.9785 20.4845 24.1286 20.4572C24.265 20.4435 24.3742 20.58 24.5107 20.6073C24.6472 20.6209 24.8109 20.6346 24.9474 20.58C24.9883 20.5663 25.002 20.4708 24.9747 20.4299C24.8792 20.348 24.6745 20.3753 24.6335 20.2661C24.6062 20.1706 24.7973 20.1433 24.8519 20.0477C24.9201 19.9249 24.9747 19.7885 24.9747 19.6383C24.9747 19.5837 24.8655 19.5837 24.8246 19.611C24.7563 19.652 24.7563 19.7475 24.7018 19.8021C24.6608 19.843 24.5926 19.8567 24.538 19.8567C24.4834 19.8567 24.4015 19.8294 24.3742 19.7885C24.3333 19.7475 24.306 19.652 24.3469 19.6247C24.4561 19.5564 24.6062 19.5837 24.7291 19.5564C24.7836 19.5428 24.8519 19.5292 24.8792 19.4882C24.9201 19.4063 24.9201 19.3108 24.8792 19.2289C24.8655 19.188 24.7973 19.188 24.7563 19.2016C24.7018 19.2153 24.6745 19.2972 24.6062 19.2972C24.5243 19.2972 24.4425 19.2562 24.3879 19.2016C24.3469 19.147 24.3333 19.0651 24.3606 19.0106C24.4015 18.915 24.538 18.8877 24.5789 18.7922C24.6335 18.6694 24.6745 18.5193 24.6472 18.3828C24.6335 18.3282 24.5243 18.3009 24.4834 18.3418C24.4152 18.3828 24.4288 18.4783 24.3879 18.5329C24.3333 18.6148 24.306 18.7376 24.2241 18.7786C24.1695 18.8059 24.074 18.7513 24.0603 18.683C24.033 18.5738 24.1013 18.4647 24.1286 18.3691C24.1695 18.26 24.2241 18.1508 24.2923 18.0553C24.3606 17.9597 24.497 17.9188 24.5516 17.8096C24.5926 17.7277 24.6335 17.6185 24.5789 17.5503C24.538 17.4957 24.4425 17.5367 24.3879 17.5776C24.3469 17.6049 24.3606 17.7004 24.3196 17.7277C24.1968 17.7823 24.0467 17.7414 23.9375 17.796C23.842 17.8505 23.801 17.9461 23.7465 18.0416C23.6509 18.2054 23.6373 18.492 23.5963 18.5193C23.5554 18.5602 23.4599 18.5466 23.4326 18.492C23.3916 18.4237 23.4599 18.3146 23.4053 18.2463C23.3643 18.2054 23.2551 18.2054 23.2142 18.2463C23.1596 18.3009 23.146 18.3828 23.146 18.4647C23.146 18.5875 23.1596 18.7103 23.2142 18.8195C23.3097 18.9969 23.4599 19.1334 23.5827 19.2972C23.7055 19.4609 23.8556 19.611 23.9239 19.8021C23.9648 19.9249 23.9785 20.075 23.9239 20.1842C23.8829 20.2934 23.7737 20.4026 23.6646 20.4026C23.5144 20.3889 23.4053 20.2252 23.2824 20.1433C23.1596 20.0614 23.0368 19.9522 22.9003 19.9249C22.5864 19.8703 22.2589 19.9249 21.9314 19.9249C21.6448 19.9249 21.3445 19.9659 21.0579 19.9249C20.9215 19.9113 20.7714 19.8567 20.6758 19.7612C20.5803 19.6656 20.5121 19.5292 20.5121 19.4063C20.4984 19.2289 20.5666 19.0651 20.6349 18.9014C20.6895 18.7922 20.7714 18.683 20.8805 18.6148C20.9624 18.5602 21.0989 18.5329 21.1808 18.5602C21.2763 18.6011 21.5356 18.956 21.5902 18.9423C21.6448 18.9287 21.6038 18.6148 21.5765 18.5193C21.522 18.3691 21.3582 18.2873 21.3172 18.1371C21.3036 18.0962 21.3718 18.0416 21.4128 18.0416C21.4947 18.0416 21.5902 18.0962 21.6584 18.1644C21.6994 18.1917 21.8768 18.451 21.9177 18.4374C21.9587 18.4237 21.8904 18.0689 21.8495 17.9597C21.7812 17.8096 21.5629 17.7004 21.5492 17.6595C21.5356 17.6322 21.5492 17.6049 21.5902 17.5912C21.6721 17.5912 21.754 17.6322 21.8358 17.6595C21.9041 17.6868 22.0133 17.7687 22.0542 17.755C22.0951 17.7414 22.0542 17.6185 22.0133 17.564C21.8631 17.3865 21.6584 17.2774 21.5083 17.1136C21.4264 17.0317 21.3445 16.9225 21.3445 16.7997C21.3445 16.7315 21.4264 16.6632 21.4947 16.6359C21.6175 16.5814 21.7813 16.5541 21.8904 16.4858C21.9314 16.4585 21.9041 16.4312 21.8631 16.4176C21.6857 16.3494 21.4947 16.3221 21.3036 16.3221C21.1944 16.3221 21.0989 16.3903 20.9897 16.4176C20.9215 16.4449 20.8532 16.4858 20.7714 16.4858C20.6349 16.4858 20.4848 16.4995 20.3892 16.4176C20.3346 16.363 20.4029 16.2538 20.4438 16.1719C20.4848 16.1037 20.553 16.0628 20.6076 16.0082C20.6485 15.9672 20.7714 15.9263 20.7304 15.9126C20.6895 15.899 20.4711 15.899 20.3483 15.9399C20.2391 15.9672 20.1436 16.0082 20.0617 16.0901C19.9935 16.1583 20.0071 16.3084 19.9116 16.3494C19.7478 16.4449 19.6659 16.4176 19.4885 16.4995C19.4476 16.5268 19.352 16.6359 19.3111 16.6496C19.0927 16.6769 18.656 16.5677 18.6424 16.6086C18.6151 16.6496 18.9836 16.8543 19.0518 17.0454C19.0791 17.1272 18.8744 17.0044 18.7925 17.0181C18.656 17.0317 18.5196 17.059 18.4104 17.1136C18.3012 17.1682 18.2057 17.2637 18.1238 17.3592C18.0419 17.4411 18.001 17.5503 17.9054 17.6185C17.8645 17.6458 17.769 17.6049 17.7417 17.6458C17.7007 17.7004 17.6871 17.8233 17.7553 17.8233L18.1374 17.8505C18.2057 17.8505 18.0692 18.0007 18.1101 18.0689C18.1374 18.1098 18.233 18.0962 18.2739 18.0689C18.3285 18.0416 18.3558 17.9597 18.424 17.9188C18.4923 17.8778 18.5605 17.8233 18.6424 17.8233C18.7379 17.8233 18.8607 17.8642 18.9017 17.9461C18.9426 18.028 18.8471 18.1235 18.8335 18.2054C18.8198 18.3009 18.8744 18.4237 18.8062 18.492C18.6014 18.683 18.5332 18.5193 18.233 18.9014C17.9873 19.2016 18.0965 19.0379 18.0146 19.4336C18.001 19.5155 17.9873 19.5974 17.9191 19.652C17.8509 19.6929 17.7417 19.7202 17.6734 19.6793C17.537 19.611 17.4551 19.4746 17.3596 19.3381C17.305 19.2699 17.3323 19.147 17.264 19.0924C17.1685 19.0379 17.032 19.0379 16.9228 19.0651C16.841 19.0924 16.8 19.188 16.7591 19.2562C16.6499 19.4063 16.568 19.5837 16.4725 19.7339C16.3906 19.8567 16.2814 19.9659 16.2132 20.0887C16.1722 20.1569 16.1995 20.2388 16.1586 20.307C16.0767 20.4981 16.0085 20.6755 15.9129 20.8529C15.872 20.9212 15.7901 20.9621 15.7628 21.044C15.7492 21.1259 15.7765 21.3033 15.8174 21.3033C15.8584 21.3033 15.9948 21.2078 16.0767 21.1532C16.1722 21.1122 16.3497 21.0576 16.3633 21.0303C16.377 21.0031 16.2678 20.9075 16.2132 20.8393C16.1177 20.7165 16.3224 20.539 16.4042 20.4026C16.4315 20.348 16.4998 20.3343 16.5271 20.2798C16.5817 20.1706 16.5953 20.0341 16.6499 19.9249C16.7181 19.7748 16.8 19.6247 16.9092 19.5155C16.9638 19.4609 17.0593 19.42 17.1275 19.4746C17.2367 19.5428 17.2504 19.6929 17.3186 19.8157C17.3732 19.8976 17.4414 19.9795 17.4687 20.075C17.496 20.1569 17.4141 20.2661 17.4687 20.3343C17.537 20.4162 17.6734 20.4435 17.7826 20.4572L18.0283 20.4845L18.0556 20.8256C18.0692 20.9485 17.7963 20.8529 17.6734 20.8802C17.5643 20.9075 17.4551 20.9485 17.3323 20.9758C17.2231 21.0031 17.0184 20.9075 16.9911 21.0303C16.8955 21.508 17.0184 21.9857 17.0457 22.4633C17.0457 22.5861 16.9774 22.7908 17.1003 22.8454L17.3323 22.941C17.3732 23.0365 17.4005 23.1593 17.4551 23.2276C17.4414 23.2958 17.5097 23.3094 17.5643 23.3231Z" fill="#A09C9C"/>
<path d="M25.0839 14.2204C25.0839 14.1249 25.0157 14.0839 24.8929 14.0839H24.4289C24.306 14.0839 24.2378 14.1249 24.2378 14.2204C24.2378 14.3159 24.306 14.3569 24.4289 14.3569H24.5244V15.2167C24.5244 15.3668 24.5653 15.435 24.6609 15.435C24.7564 15.435 24.7973 15.3668 24.7973 15.2167V14.3569H24.8929C25.0293 14.3569 25.0839 14.3159 25.0839 14.2204ZM23.7601 14.5207C23.7601 14.6298 23.7055 14.6844 23.5964 14.6844H23.4735V14.3569H23.5964C23.7055 14.3569 23.7601 14.4115 23.7601 14.5207ZM24.0604 15.2985C24.0604 15.244 24.0331 15.1894 23.9785 15.1211L23.7601 14.8482C23.9376 14.8072 24.0467 14.6708 24.0467 14.4797C24.0467 14.2341 23.883 14.0567 23.5964 14.0567H23.3917C23.2415 14.0567 23.2006 14.1249 23.2006 14.275V15.203C23.2006 15.3531 23.2415 15.4214 23.3371 15.4214C23.4326 15.4214 23.4735 15.3531 23.4735 15.203V14.8755L23.7874 15.3258C23.842 15.3941 23.883 15.435 23.9376 15.435C24.0058 15.435 24.0604 15.3804 24.0604 15.2985ZM22.6138 14.8755H22.3272L22.4773 14.3842L22.6138 14.8755ZM22.9959 15.2849C22.9959 15.2576 22.9959 15.2303 22.9822 15.1894L22.682 14.2341C22.6411 14.1249 22.5728 14.0567 22.4773 14.0567C22.3818 14.0567 22.3135 14.1249 22.2726 14.2477L21.9587 15.1894C21.9451 15.2167 21.9451 15.244 21.9451 15.2713C21.9451 15.3531 21.9996 15.4214 22.0679 15.4214C22.1225 15.4214 22.1771 15.3804 22.2044 15.2849L22.2453 15.1484H22.682L22.7093 15.2713C22.7366 15.3668 22.7775 15.4214 22.8458 15.4214C22.9413 15.435 22.9959 15.3804 22.9959 15.2849ZM21.754 14.8072C21.754 14.6571 21.6994 14.6025 21.5902 14.6025H21.4128C21.3036 14.6025 21.2491 14.6435 21.2491 14.739C21.2491 14.8345 21.3036 14.8755 21.4128 14.8755H21.4947C21.4947 15.0393 21.4128 15.1484 21.2763 15.1484C21.1262 15.1484 21.017 14.9847 21.017 14.7254C21.017 14.4661 21.1262 14.3159 21.2763 14.3159C21.4265 14.3159 21.4947 14.4388 21.5629 14.4388C21.6175 14.4388 21.6721 14.3705 21.6721 14.3023C21.6721 14.1658 21.522 14.0294 21.29 14.0294C20.9625 14.0294 20.7577 14.3023 20.7577 14.739C20.7577 15.1621 20.9625 15.4487 21.2627 15.4487C21.5629 15.4487 21.754 15.1757 21.754 14.8072ZM20.6895 14.2204C20.6895 14.1249 20.6213 14.0839 20.4985 14.0839H20.0344C19.9116 14.0839 19.8434 14.1249 19.8434 14.2204C19.8434 14.3159 19.9116 14.3569 20.0344 14.3569H20.13V15.2167C20.13 15.3668 20.1709 15.435 20.2665 15.435C20.362 15.435 20.4029 15.3668 20.4029 15.2167V14.3569H20.4985C20.6213 14.3569 20.6895 14.3159 20.6895 14.2204ZM19.7888 14.2204C19.7888 14.1249 19.7206 14.0839 19.5977 14.0839H19.1337C19.0109 14.0839 18.9427 14.1249 18.9427 14.2204C18.9427 14.3159 19.0109 14.3569 19.1337 14.3569H19.2293V15.2167C19.2293 15.3668 19.2702 15.435 19.3657 15.435C19.4613 15.435 19.5022 15.3668 19.5022 15.2167V14.3569H19.5977C19.7206 14.3569 19.7888 14.3159 19.7888 14.2204ZM18.7789 14.8345V14.275C18.7789 14.1249 18.738 14.0567 18.6424 14.0567C18.5469 14.0567 18.506 14.1249 18.506 14.275V14.8072C18.506 15.0393 18.4241 15.1621 18.274 15.1621C18.1238 15.1621 18.042 15.0393 18.042 14.8072V14.275C18.042 14.1249 18.001 14.0567 17.9055 14.0567C17.81 14.0567 17.769 14.1249 17.769 14.275V14.8345C17.769 15.2303 17.9601 15.4487 18.274 15.4487C18.5742 15.4487 18.7789 15.2303 18.7789 14.8345ZM17.6598 14.2204C17.6598 14.1249 17.5916 14.0839 17.4688 14.0839H17.0048C16.8819 14.0839 16.8137 14.1249 16.8137 14.2204C16.8137 14.3159 16.8819 14.3569 17.0048 14.3569H17.1003V15.2167C17.1003 15.3668 17.1412 15.435 17.2368 15.435C17.3323 15.435 17.3732 15.3668 17.3732 15.2167V14.3569H17.4688C17.5916 14.3569 17.6598 14.3159 17.6598 14.2204ZM16.7182 14.9983C16.7182 14.7936 16.609 14.6708 16.3906 14.5889C16.2542 14.5343 16.1723 14.5207 16.1723 14.4251C16.1723 14.3569 16.2269 14.3159 16.3088 14.3159C16.377 14.3159 16.4589 14.3569 16.5135 14.3569C16.5953 14.3569 16.6363 14.3023 16.6363 14.2341C16.6363 14.1249 16.5135 14.043 16.3088 14.043C16.0495 14.043 15.8857 14.2204 15.8857 14.4661C15.8857 14.6708 15.9949 14.7663 16.2132 14.8482C16.3361 14.8891 16.4179 14.9301 16.4179 15.0393C16.4179 15.1211 16.3633 15.1757 16.2815 15.1757C16.1586 15.1757 16.0631 15.1075 15.9949 15.1075C15.913 15.1075 15.8584 15.1621 15.8584 15.244C15.8584 15.3531 16.0222 15.4623 16.2405 15.4623C16.5408 15.4487 16.7182 15.2576 16.7182 14.9983Z" fill="#A09C9C"/>
</g>
<defs>
<clipPath id="clip0_413_281">
<rect width="40" height="40" fill="white" transform="translate(0.709961)"/>
</clipPath>
</defs>
</svg>
