<svg width="40" height="41" viewBox="0 0 40 41" fill="none" xmlns="http://www.w3.org/2000/svg">
<path d="M38.9084 37.0276C38.1584 34.826 35.1552 29.2694 32.8019 26.1161C32.3019 25.4161 32.5019 25.0645 32.7519 24.8645C33.0019 24.6645 33.9035 23.8628 34.9535 22.7129C36.0051 21.5112 36.2551 20.1596 35.5035 18.208C34.7518 16.2563 32.3519 11.6514 31.8519 10.1498C31.2519 8.39815 31.2019 7.5965 31.5519 6.64652C31.9519 5.49488 32.5535 5.44488 33.0535 5.49488C33.3035 5.49488 33.5035 5.74487 33.5035 5.89487C33.5035 6.39486 33.5535 6.99651 34.0035 8.29815C34.8052 10.3498 36.7568 11.7014 37.4068 11.9514C37.8568 12.1514 37.9068 11.8014 37.9068 11.6514C37.8568 11.5014 37.2068 8.94814 36.7551 7.04651C36.2551 5.04489 36.0051 4.59323 35.5535 4.19324C34.8535 3.49325 33.7519 3.14159 32.8002 3.19159C30.7486 3.29159 29.7969 5.24321 29.6969 5.44321C29.5969 5.59321 29.5469 5.7432 29.3469 5.59321C28.747 5.19322 27.0453 3.74158 26.8937 2.83993C26.7937 2.28994 26.6937 2.23994 26.1937 2.03828C24.142 1.23663 22.3404 0.536641 20.3371 0.186648C19.5355 0.0366511 19.4855 -0.0133479 18.5855 0.136649C16.9839 0.436643 16.0322 0.786636 14.8322 1.43829C14.1822 1.78828 14.0822 2.03828 13.9806 2.18828C13.7806 2.18828 13.6306 2.33827 13.4306 2.43827C13.0306 2.58827 11.579 3.08826 11.0773 3.38992C10.7773 3.58991 10.5773 3.73991 10.7773 4.1399C11.0773 4.73989 11.879 6.04153 12.2789 6.39152C12.4789 6.59152 13.0806 6.74152 13.1806 6.74152C13.3306 6.79152 13.4306 6.79152 13.4806 6.69152C13.5306 6.59152 13.5306 6.44152 13.8306 6.24153C14.2306 5.94153 14.9322 5.79154 15.3322 5.74154C15.6322 5.74154 15.8322 5.69154 15.9822 5.84154C16.1322 5.94153 16.4822 6.34153 16.6322 6.69319C16.7322 7.09318 16.6822 7.19318 16.4822 7.29317C16.2822 7.39317 15.6305 7.54317 14.8806 7.59317C14.1306 7.64317 13.9289 7.44317 13.8789 7.39317C13.8289 7.34317 13.7289 7.29317 13.6789 7.39317C13.5789 7.54317 13.3789 7.69317 13.0789 7.84316C12.9289 7.94316 12.8289 8.09316 12.9789 8.34315C13.4289 9.1448 14.0806 10.0448 14.6306 10.2448C15.0806 10.3948 15.3306 10.2448 15.8322 9.89479C16.2855 9.54813 16.5855 9.54813 16.7355 9.64813C16.8855 9.74813 17.1355 9.99812 17.0855 10.1981C16.9855 10.5998 16.1355 11.5514 15.9855 11.7514C15.8355 11.9514 15.6855 12.0514 15.4355 11.9014C15.0339 11.7014 9.17734 8.64815 8.37736 8.34815C7.52571 7.99816 6.97572 7.94816 6.12573 7.89816C5.42575 7.84816 4.5241 7.94816 3.97411 8.04816C3.57412 8.14816 3.32412 8.29815 2.92246 8.69815C2.37248 9.19814 1.82082 9.79979 1.77082 10.3498C1.72082 10.7498 2.17081 11.5014 2.22081 11.5514C2.27081 11.6014 2.32081 11.7014 2.57081 11.7014C2.8208 11.6514 3.37246 11.3514 4.07244 11.5014C4.72243 11.6014 4.77243 12.1014 4.77243 12.5031C4.77243 12.5531 4.87243 12.7031 5.02242 12.7031C5.27242 12.7031 5.67241 12.7031 6.12407 12.9031C6.67406 13.1531 7.7757 14.0047 7.9757 14.2047C8.12569 14.3547 8.1257 14.5047 7.8257 14.5047C6.42406 14.6047 4.27244 15.0547 3.32079 15.3563C2.6208 15.6063 1.81915 15.9063 1.51916 16.408C1.16917 16.958 0.769174 17.9096 0.667509 18.5596C0.567511 19.2096 1.2675 20.0113 1.41749 20.2113C1.56749 20.3112 1.61749 20.4112 1.86749 20.3112C2.21748 20.1113 3.01913 19.6113 3.81911 19.5613C4.3191 19.5113 4.4691 19.9613 4.62076 20.1613C4.72076 20.3112 4.87076 20.2113 5.27075 20.1113C6.02074 19.9113 10.2757 19.9613 11.7773 20.0613C12.4773 20.1113 13.4289 20.2113 14.1306 20.5612C14.8306 20.9612 16.0822 22.1629 16.0822 22.1629C16.0822 22.1629 14.3806 24.9662 13.4789 26.6678C12.6273 28.2194 12.0273 29.3711 11.7273 30.0211C11.4273 30.621 11.2273 31.5227 11.2773 32.1727C11.3773 33.1743 11.3773 33.6743 11.3773 34.1243C11.3773 34.5243 10.9773 34.5743 10.4756 34.6743C9.72566 34.8743 8.27403 34.9743 7.12238 35.2743C6.07074 35.5243 5.67074 35.7743 5.47075 36.6259C5.32075 37.2759 5.12075 38.8775 5.07076 39.6292C5.07076 39.9292 5.07076 40.0792 5.42075 39.9792C5.62074 39.9292 6.2724 39.8292 7.07238 39.7792C8.07403 39.6792 9.12401 39.7292 9.97566 39.7292C11.5273 39.7292 16.0322 39.9792 16.3322 40.0292C16.7322 40.0792 16.7822 40.0292 16.7822 39.7292C16.7322 39.3792 16.6822 38.2276 16.6822 37.5776C16.6822 36.8776 16.5822 36.2259 17.1822 35.5259C17.7822 34.876 22.3871 29.7194 22.6371 29.4694C22.8371 29.2694 22.9871 29.0194 23.3371 29.3194C23.6871 29.6194 27.492 32.3727 28.242 32.9227C28.9919 33.4727 29.7436 33.6726 30.5952 33.6726C31.2452 33.6726 31.3969 34.7743 30.8452 34.8743C30.2953 34.9743 29.4436 35.1743 28.8936 35.2743C27.992 35.4743 27.742 35.7743 27.442 36.3759C27.192 36.8759 26.942 39.3792 26.942 39.6292C26.942 39.7792 26.942 40.0292 27.192 39.9792C28.2936 39.7792 30.0453 39.6792 31.9469 39.7292C34.0985 39.7792 36.2018 39.9792 36.5018 39.9792C36.8018 39.9792 36.8518 39.9792 37.0018 39.7292C37.2518 39.2792 38.1034 38.3776 38.8034 37.7776C39.0584 37.5776 39.0584 37.4776 38.9084 37.0276ZM30.6002 21.8612C30.0503 22.0612 29.6986 21.8612 29.4486 21.6112C29.1986 21.3612 26.9953 18.7579 26.2953 17.958C25.9453 17.558 25.6953 16.6563 26.7453 16.2563C27.597 15.9563 29.1986 15.4547 29.5986 15.2047C30.0486 14.9547 30.2486 14.7547 30.2986 14.303C30.3486 13.853 30.3486 13.3514 30.3486 13.2014C30.3486 13.0514 30.5486 12.9014 30.6986 13.1014C30.7986 13.2514 31.1486 14.003 31.6502 14.903C32.3502 16.2047 33.2519 17.8563 33.5519 18.6063C33.8518 19.3063 33.7019 19.8079 33.2519 20.3079C32.7019 20.9612 31.0002 21.7112 30.6002 21.8612Z" fill="#A09C9C"/>
</svg>
