<svg width="199" height="40" viewBox="0 0 199 40" fill="none" xmlns="http://www.w3.org/2000/svg">
<g clip-path="url(#clip0_413_193)">
<path d="M0.422363 11.0028C0.422363 4.44477 4.50305 0.0145264 12.2161 0.0145264H62.2862V9.31576H13.7207C12.3605 9.31576 11.1522 10.0149 11.1522 12.0666V27.5763C11.1522 29.4608 11.9425 30.6767 14.4274 30.6767H48.6307C50.4317 30.6767 51.8223 30.0384 51.8223 27.6675V24.0351H31.7988V15.1746H62.2862V29.4304C62.2862 36.2544 57.324 39.9855 49.5274 39.9855H12.2997C4.76902 39.9855 0.429962 35.9048 0.429962 29.0809L0.422363 11.0028ZM106.953 39.9855L124.059 9.67292V39.9855H134.781V0.0145264H118.291L101.984 28.7237L85.6761 0.0145264H69.1938V39.9855H79.916V9.67292L97.0215 39.9855H106.953ZM198.051 39.9855H153.216C145.671 39.9855 141.347 35.9048 141.347 29.0809V11.0028C141.347 4.44477 145.412 0.0145264 153.125 0.0145264H198.058V10.0605H154.637C153.277 10.0605 152.061 10.752 152.061 12.8037V26.8316C152.061 28.7237 152.859 29.932 155.344 29.932H198.058L198.051 39.9855Z" fill="#A09C9C"/>
</g>
<defs>
<clipPath id="clip0_413_193">
<rect width="197.628" height="40" fill="white" transform="translate(0.422363)"/>
</clipPath>
</defs>
</svg>
