<svg width="33" height="41" viewBox="0 0 33 41" fill="none" xmlns="http://www.w3.org/2000/svg">
<path d="M16.1037 0.0460815C14.8587 0.0460815 12.237 0.0677482 11.6154 0.134415C11.037 0.201082 10.882 0.379415 10.5487 0.801082C10.1037 1.40108 6.28203 7.84608 4.3037 11.4244C2.8587 14.0011 0.592032 18.4911 0.392032 18.9794C0.192032 19.4011 0.103699 19.7577 0.103699 20.0461C0.103699 20.3577 0.192032 20.7127 0.392032 21.1127C0.858699 22.1577 2.3037 25.0011 4.3037 28.6677C6.39203 32.4677 10.1704 38.7577 10.5704 39.3127C10.992 39.8911 11.282 39.9127 11.6587 39.9577C12.237 40.0011 14.7487 40.0461 16.1037 40.0461C17.5487 40.0461 20.1704 39.9794 20.5487 39.9577C20.9037 39.9344 21.2154 39.8911 21.637 39.3127C22.0154 38.7794 26.082 32.0011 27.9037 28.6677C29.6587 25.4677 31.592 21.6244 31.8154 21.1127C32.0587 20.5577 32.1037 20.2677 32.1037 20.0461C32.1037 19.8677 32.0587 19.4911 31.8154 18.9794C30.5725 16.4299 29.2682 13.9109 27.9037 11.4244C25.792 7.62441 22.037 1.33441 21.6154 0.779415C21.192 0.224415 20.9487 0.179415 20.5704 0.157748H20.5037C19.9487 0.0677482 17.5487 0.0460815 16.1037 0.0460815ZM20.0154 1.57941C20.1704 1.57941 20.2587 1.60108 20.282 1.64608C19.6154 2.95775 17.9254 6.26775 16.7254 9.31275C18.4326 12.458 20.0483 15.6521 21.5704 18.8911C21.837 19.4677 21.9704 19.7577 21.9704 20.0461C21.9704 20.3344 21.837 20.6244 21.5704 21.2011C19.5254 25.6011 14.7487 34.6244 12.7704 37.9794C12.5704 38.3127 12.3487 38.4911 12.192 38.4911C12.037 38.4911 11.9487 38.4677 11.9254 38.4244C12.592 37.1127 14.282 33.8011 15.482 30.7577C13.7748 27.6125 12.1591 24.4184 10.637 21.1794C10.3704 20.6011 10.237 20.3127 10.237 20.0244C10.237 19.7344 10.3704 19.4461 10.6587 18.8677C12.6587 14.4677 17.437 5.44608 19.437 2.09108C19.637 1.75775 19.8587 1.57941 20.0154 1.57941Z" fill="#A09C9C"/>
</svg>
