<svg width="129" height="31" viewBox="0 0 129 31" fill="none" xmlns="http://www.w3.org/2000/svg">
<path d="M74.5277 26.6037C74.5277 26.8459 74.6042 26.9862 74.7445 26.9862C74.8592 26.9734 74.9612 26.9224 75.0505 26.8587L114.791 1.06606C115.463 0.596702 116.267 0.355363 117.086 0.377573H125.82C127.158 0.377573 128.064 1.27005 128.064 2.60877V19.2854C128.064 21.2998 127.617 22.4728 125.832 23.5437L115.237 29.9186C115.132 29.9919 115.009 30.0359 114.88 30.0461C114.753 30.0461 114.625 29.9441 114.625 29.5743V10.1183C114.625 9.88883 114.562 9.73584 114.409 9.73584C114.297 9.74872 114.191 9.79291 114.103 9.86334L85.059 28.7329C84.396 29.1791 83.6182 29.4213 82.8278 29.4086H63.5757C62.2243 29.4086 61.3318 28.5161 61.3318 27.1647V3.1315C61.3318 2.95301 61.2553 2.78726 61.1023 2.78726C60.9907 2.80143 60.885 2.84548 60.7963 2.91476L41.6335 14.415C41.4423 14.5425 41.3913 14.6317 41.3913 14.721C41.3913 14.7975 41.4296 14.874 41.557 15.0142L55.2502 28.6946C55.4287 28.8731 55.5562 29.0134 55.5562 29.1664C55.5562 29.2939 55.3522 29.3958 55.11 29.3958H42.7428C41.7738 29.3958 41.0216 29.2556 40.4988 28.7329L32.1988 20.4456C32.1673 20.4079 32.1284 20.3772 32.0846 20.3553C32.0407 20.3333 31.9928 20.3207 31.9438 20.3181C31.8538 20.3222 31.7662 20.3485 31.6888 20.3946L17.8171 28.7329C16.9757 29.2429 16.4019 29.3831 15.5732 29.3831H2.81077C1.44655 29.3958 0.554077 28.4906 0.554077 27.1519V10.7941C0.554077 8.76686 1.00032 7.60664 2.79802 6.53567L13.4568 0.135329C13.5404 0.0805675 13.6374 0.0497058 13.7372 0.0460815C13.903 0.0460815 13.9922 0.211827 13.9922 0.581568V22.4855C13.9922 22.715 14.0432 22.817 14.209 22.817C14.3237 22.8043 14.4257 22.7533 14.5277 22.6895L50.5328 1.02781C51.2213 0.556069 52.0628 0.326575 52.9043 0.364824H72.2838C73.6225 0.364824 74.5277 1.2573 74.5277 2.59602L74.515 26.6037H74.5277Z" fill="#A09C9C"/>
</svg>
