<svg width="50" height="40" viewBox="0 0 50 40" fill="none" xmlns="http://www.w3.org/2000/svg">
<path d="M25.1038 35.8303C16.4507 35.8303 9.27382 28.6534 9.27382 20.0003C9.27382 19.5504 9.29448 19.1045 9.33257 18.6634L22.5779 19.4899L16.849 23.4478C16.7714 23.5024 16.7203 23.5923 16.7203 23.6939C16.7203 23.8596 16.8549 23.9941 17.0205 23.9941H40.4116C38.6129 30.7545 32.3806 35.8303 25.1038 35.8303ZM25.1038 4.16971C33.7569 4.16971 40.9338 11.3472 40.9338 20.0003C40.9338 20.4467 40.9141 20.8896 40.8762 21.3278L27.6437 20.4867L33.3857 16.5522C33.4638 16.4976 33.5143 16.4077 33.5143 16.3061C33.5143 16.1405 33.3803 16.0059 33.2153 16.0059H9.79598C11.5952 9.24549 17.827 4.16971 25.1038 4.16971ZM47.8071 21.7684L43.4761 21.4929C43.5156 21.0007 43.5366 20.5025 43.5366 20.0003C43.5366 9.81997 35.2841 1.5675 25.1038 1.5675C16.2956 1.5675 8.93132 7.74643 7.10685 16.0059H3.70576C3.48314 16.0059 3.28399 16.1117 3.15772 16.2762L2.14558 17.6736C2.10001 17.7323 2.07275 17.8058 2.07275 17.8856C2.07275 18.0771 2.2273 18.2316 2.4188 18.2316L6.73269 18.5007C6.69273 18.9953 6.67159 19.4951 6.67159 20.0003C6.67159 30.1801 14.924 38.4325 25.1038 38.4325C33.912 38.4325 41.2763 32.2536 43.1014 23.9941H46.5194C46.7426 23.9941 46.9412 23.8883 47.0675 23.7239L48.0802 22.3264C48.1258 22.2677 48.1531 22.1943 48.1531 22.1144C48.1531 21.9229 47.998 21.7684 47.8071 21.7684Z" fill="#A09C9C"/>
</svg>
