<svg width="33" height="40" viewBox="0 0 33 40" fill="none" xmlns="http://www.w3.org/2000/svg">
<path d="M16.2201 0C7.33405 0 0.104492 8.9721 0.104492 19.9997C0.104492 31.0273 7.33405 40 16.2201 40C25.1062 40 32.3364 31.0279 32.3364 19.9997C32.3364 8.97146 25.1068 0 16.2201 0ZM3.07458 26.922L3.05929 26.8755C2.52518 25.2241 2.36648 23.7773 2.3652 23.7626L2.36329 23.7423L2.37986 23.7301L16.2201 13.4954L30.0776 23.7423L30.0757 23.7626C30.0737 23.7773 29.9157 25.2241 29.3816 26.8755L29.3663 26.922L29.3268 26.8927L29.3261 26.8946L16.2195 17.1743L3.07522 26.9239L3.07458 26.922ZM16.2201 38.1121C11.6044 38.1121 7.28307 35.2536 4.60871 30.4505L4.57684 30.3886L16.2195 21.7792L27.864 30.3899L27.8334 30.4454L27.8341 30.446C25.1603 35.2517 20.839 38.1121 16.2201 38.1121ZM16.2201 8.8134L2.00446 19.3572L2.00637 19.2846C2.14978 14.607 3.69282 10.2328 6.34997 6.96824C9.01732 3.69222 12.5222 1.88786 16.2201 1.88786C19.9181 1.88786 23.4229 3.69222 26.0902 6.96824C28.748 10.2328 30.2904 14.607 30.4338 19.2846L30.4358 19.3572L30.3771 19.3139L16.2201 8.8134Z" fill="#A09C9C"/>
</svg>
