<svg width="515" height="40" viewBox="0 0 515 40" fill="none" xmlns="http://www.w3.org/2000/svg">
<path d="M514.422 2.44944V2.40661C514.315 2.04248 513.052 1.89256 510.717 1.87114L476.553 1.39991C424.311 0.950101 327.089 0.0504942 322.676 0.0504942H321.606C316.499 -0.20446 311.39 0.507717 306.548 2.14958L304.577 2.72791C299.077 4.66311 293.357 5.90082 287.549 6.41204C281.487 6.62623 258.354 6.6048 257.39 6.6048C256.426 6.6048 233.272 6.6048 227.21 6.43344C221.402 5.92492 215.681 4.68714 210.182 2.74932L208.254 2.17101C203.391 0.526137 198.26 -0.186037 193.132 0.0718985H192.19C187.756 0.0718985 90.5336 0.500291 38.3132 0.992936L4.02081 1.42131C1.66468 1.42131 0.315258 1.59267 0.336677 1.97822L2.28584 2.47087C9.48274 3.94881 16.7867 4.827 24.1336 5.12687C38.1204 5.40532 140.548 7.97565 143.011 8.01848C148.537 7.86855 154.042 8.85384 159.183 10.8887H191.247C191.247 10.8887 178.31 11.6383 178.117 12.4523H177.303C174.09 12.4523 164.323 12.4523 158.797 12.1952C158.797 12.1952 158.39 13.7375 164.023 13.7375C165.994 15.0655 168.072 16.3292 169.935 17.3787H197.502C197.502 17.3787 186.664 18.0213 186.449 18.8353C185.164 18.8353 180.452 18.7067 175.954 18.5782L169.635 18.3855C169.635 18.3855 169.314 19.7563 174.497 19.7777L175.376 20.3346C185.721 24.9826 196.688 28.1098 207.933 29.6092C212.217 30.4445 216.501 31.0015 220.849 31.3227C220.849 31.3227 226.097 31.794 225.176 31.7511C212.922 31.2567 200.736 29.6726 188.763 27.0175C179.082 24.6598 169.845 20.754 161.41 15.451C156.716 12.3343 151.236 10.6113 145.603 10.4817C141.961 10.2461 24.6262 5.6195 24.3692 5.6195C16.8347 5.35892 9.34435 4.35449 2.00739 2.62081L0.358096 1.99964C0.358096 2.32093 1.17203 3.1777 1.85745 3.79886C5.49874 7.01176 19.2071 13.6732 27.218 15.6438C41.1405 19.0066 126.711 29.8876 141.919 31.6012L150.315 32.5436C173.298 35.0283 202.193 38.1983 216.908 39.6977C219.705 40.2028 222.581 40.0414 225.304 39.2265C235.569 35.4296 246.447 33.5633 257.39 33.7217C268.364 33.6365 279.266 35.5078 289.584 39.2479C292.271 40.053 295.111 40.2144 297.873 39.7191C312.609 38.2412 341.568 35.0069 364.358 32.5008L372.862 31.5584C388.07 29.8662 473.64 19.3922 487.541 16.0293C495.573 14.1016 509.282 7.41873 512.902 4.20583C513.503 3.72345 514.011 3.13552 514.401 2.47087L514.422 2.44944ZM251.714 23.7617C234.686 23.7617 217.85 23.5261 212.945 22.3052C201.272 19.4136 195.831 14.0802 194.91 12.4523C193.989 10.8458 194.225 10.8672 195.66 10.8672H319.035C320.492 10.8672 320.577 11.0172 319.763 12.4737C318.95 13.9088 313.466 19.4136 301.75 22.3052C296.845 23.5261 280.009 23.7189 262.981 23.7617H251.714ZM512.773 2.96352C505.437 4.70413 497.947 5.71575 490.411 5.98364C490.154 5.98364 372.691 10.2033 369.156 10.4817C363.524 10.6113 358.043 12.3343 353.349 15.451C344.92 20.7519 335.691 24.6576 326.018 27.0175C314.038 29.681 301.845 31.2724 289.584 31.7725C288.663 31.7725 293.91 31.3227 293.91 31.3227C298.238 31.0039 302.544 30.4317 306.805 29.6092C318.046 28.0956 329.011 24.9721 339.362 20.3346L340.39 19.7777C345.552 19.7777 345.274 18.3855 345.274 18.3855L338.955 18.5996C334.286 18.7067 329.488 18.8138 328.288 18.8138C328.074 18.0427 317.364 17.3787 317.364 17.3787H344.888C346.851 16.2367 348.78 15.0367 350.672 13.7803C356.326 13.7803 355.941 12.2381 355.941 12.2381C349.502 12.4072 343.061 12.4786 336.62 12.4523C336.428 11.6598 324.411 10.9101 324.411 10.9101H355.405C360.585 8.87623 366.121 7.90733 371.684 8.06132L490.626 5.6195C497.968 5.31781 505.275 4.42241 512.473 2.94209L513.93 2.57797L512.773 2.96352ZM256.555 14.3586H258.483L254.734 17.036V19.1565H251.907V17.0789L247.859 14.3586H251.179L253.92 16.0721L256.555 14.3586ZM273.883 18.2784H280.352V19.1351H271.056V14.3372H273.883V18.2784ZM285.45 18.2784H292.154V19.1351H282.687V14.3372H292.068V15.2154H285.45V16.3078H291.94V17.186H285.45V18.2569V18.2784ZM231.43 14.3586H234.257V19.1565H231.366V17.2074H225.411V19.1351H222.584V14.3586H225.411V16.2863H231.366L231.43 14.3586ZM244.239 17.0574L247.88 19.1565H244.667C244.667 19.1565 241.754 17.0789 241.069 16.5434C243.96 16.6505 244.432 16.3292 244.432 15.858C244.432 15.3867 242.161 15.0869 239.591 15.2368V19.1565H236.592V14.38H243.125C246.338 14.38 247.323 15.044 247.323 15.7294C247.323 16.3292 246.145 16.8861 244.239 17.0574ZM302.371 15.858C302.371 15.3653 300.1 15.0869 297.53 15.2368V19.1994H294.531V14.4229H301C304.213 14.4229 305.198 15.1511 305.198 15.7723C305.198 16.372 304.02 16.9289 302.114 17.0574L305.755 19.1565H302.542C302.542 19.1565 299.629 17.0789 298.944 16.5434C301.814 16.6505 302.371 16.3292 302.371 15.858ZM269.021 17.7214C269.021 18.9424 266.386 19.3493 263.645 19.3493C262.155 19.3457 260.667 19.2455 259.19 19.0494L259.489 18.0213C260.832 18.2588 262.196 18.3593 263.559 18.3212C265.851 18.3212 266.001 18.0427 266.001 17.7429C266.001 17.443 265.358 17.2502 264.33 17.2502L262.231 17.0146C260.175 16.7576 259.339 16.6719 259.339 15.451C259.339 14.2301 261.995 14.0159 263.688 14.0159C265.179 14.0588 266.666 14.1875 268.143 14.4015L267.929 15.3225C266.766 15.145 265.592 15.052 264.416 15.044C262.595 15.044 262.21 15.1297 262.21 15.4724C262.21 15.8151 262.788 15.9651 263.709 15.9651L266.129 16.1364C268.057 16.4149 268.978 16.8861 269.021 17.7214ZM211.874 16.6719C211.874 17.7857 214.594 18.2569 216.394 18.2569C218.193 18.2569 219.906 18.0427 220.313 18.0427L220.014 19.0494C219.499 19.0923 217.743 19.2636 215.815 19.2636C212.217 19.2636 209.004 18.4069 209.004 16.6719C209.004 14.9369 212.217 14.0587 215.815 14.0587C217.914 14.0587 219.564 14.2729 220.014 14.2729L220.313 15.2796C219.011 15.1473 217.703 15.0758 216.394 15.0654C214.509 15.0654 211.874 15.5581 211.874 16.6719Z" fill="#A09C9C"/>
</svg>
