<svg width="46" height="40" viewBox="0 0 46 40" fill="none" xmlns="http://www.w3.org/2000/svg">
<path d="M15.5368 0.118052C23.9715 -0.179197 32.4146 0.115944 40.8346 0.656684C41.721 0.733632 42.6191 0.727307 43.4919 0.913879C43.9641 1.02772 44.4743 1.20797 44.7504 1.63697C45.0024 2.10393 45.0076 2.64888 45.073 3.16327C45.2733 5.68989 45.3323 8.22705 45.521 10.7537C45.1563 10.7979 44.7916 10.7421 44.4268 10.7305C37.9327 10.3942 31.4333 10.1149 24.9286 10.1065C21.5598 10.1159 18.1867 10.0833 14.8211 10.2467C14.0052 10.3668 13.0818 10.6398 12.6107 11.3671C15.1573 11.8193 17.6987 12.3074 20.2443 12.768C28.6811 14.347 37.1242 15.8912 45.561 17.4681C45.5537 19.0682 45.5568 20.6683 45.56 22.2684C40.8156 21.4831 36.0796 20.6356 31.3384 19.825C21.1381 18.0668 10.941 16.2844 0.737575 14.5431C0.757602 12.7669 0.833495 10.9919 0.870388 9.21471C0.934686 7.80752 0.894632 6.38136 1.21296 4.99947C1.42694 4.02445 1.82327 3.04416 2.56218 2.34742C3.83761 1.08464 5.68224 0.729415 7.39932 0.551277C10.1051 0.300407 12.8225 0.218189 15.5368 0.118052ZM0.689087 16.8799C15.3028 19.5763 29.9112 22.3179 44.5228 25.03C44.8421 25.108 45.1837 25.1144 45.4904 25.2314L45.5273 25.3157C45.4472 27.7127 45.4008 30.1117 45.3144 32.5087C45.2585 33.9876 45.1025 35.5349 44.3415 36.8378C43.5256 38.1849 42.0056 38.9301 40.5015 39.2116C38.2848 39.6279 36.0206 39.6553 33.7754 39.7787C24.1148 40.2171 14.4342 39.9747 4.78944 39.3106C4.01891 39.2569 3.23468 39.2432 2.48628 39.0292C2.09838 38.9069 1.69784 38.7098 1.47859 38.3514C1.24353 37.8813 1.22877 37.3448 1.1708 36.8325C0.964201 34.0361 0.854577 31.2343 0.708061 28.4347C5.68329 28.7509 10.667 28.928 15.6517 29.0387C20.4646 29.1167 25.2775 29.1156 30.0904 29.1631C31.1286 29.2063 32.2512 29.0081 33.0386 28.2787C33.1535 28.1469 33.3401 28.0247 33.3211 27.8276C31.1518 27.5018 28.9952 27.0971 26.8301 26.7408C18.1193 25.2514 9.40417 23.7757 0.694358 22.2779C0.683817 20.4786 0.696465 18.6792 0.689087 16.8799Z" fill="#A09C9C"/>
</svg>
