<svg width="112" height="40" viewBox="0 0 112 40" fill="none" xmlns="http://www.w3.org/2000/svg">
<path d="M55.5689 0C24.8667 0 0 8.93958 0 20.0004C0 31.0579 24.8684 40 55.5689 40C86.2731 40 111.138 31.0575 111.138 20.0004C111.138 8.93916 86.2735 0 55.5689 0Z" fill="#A09C9C"/>
<path d="M55.8502 38.2459C26.2852 38.2459 2.3186 29.9872 2.3186 19.7988C2.3186 9.60914 26.2856 1.35089 55.8502 1.35089C85.4123 1.35089 109.378 9.60872 109.378 19.7988C109.378 29.9868 85.4115 38.2459 55.8502 38.2459ZM55.8502 2.94919C27.324 2.94919 4.20044 10.4917 4.20044 19.7988C4.20044 29.1063 27.3231 36.6497 55.8502 36.6497C84.376 36.6497 107.496 29.1059 107.496 19.7988C107.496 10.4917 84.3743 2.94919 55.8502 2.94919Z" fill="white"/>
<path d="M41.8865 5.94501C41.1268 5.94741 40.3632 5.97696 39.5945 6.03987C34.4887 6.46538 29.6289 9.31176 29.6201 13.6333C29.6146 15.8247 31.188 17.6003 33.626 17.5222C36.4908 17.426 38.8426 15.1535 40.0738 12.2883C40.5409 11.2012 39.6758 10.7497 39.2641 11.3756C38.5471 12.4689 37.5484 13.3486 36.3732 13.9217C35.0253 14.5753 33.5845 14.399 33.1476 13.3153C32.5335 11.7863 33.8101 9.49833 36.7231 8.42173C40.9308 6.8793 45.3333 7.89962 49.5695 8.68764C49.63 8.68764 49.8557 8.81156 49.6561 8.91447C48.8975 9.32402 48.1506 9.65707 46.9871 10.6484C46.1529 11.3558 45.0607 12.2975 44.216 13.3233C43.3776 14.3344 42.7833 15.2362 41.997 16.2359C41.8873 16.3804 41.7524 16.3737 41.7541 16.3737C39.8374 16.6942 37.961 16.9089 36.243 18.0918C35.8876 18.3346 35.7334 18.7656 35.9489 19.0953C36.1425 19.3877 36.5854 19.4187 36.8929 19.1973C37.9602 18.4068 39.0591 18.0346 40.3193 18.0002C40.3743 18.0036 40.4007 18.0124 40.4163 18.046C40.4259 18.0649 40.4201 18.1047 40.3974 18.1341C38.5097 20.7271 38.037 21.3131 36.6168 22.9206C35.8905 23.7469 35.176 24.4442 34.3779 25.1701C31.1536 28.1361 27.6856 28.0848 26.4414 26.2253C25.6979 25.1092 25.7959 23.9376 26.2831 22.9656C26.883 21.7751 28.0951 20.9027 29.1033 20.3931C29.4775 20.2041 29.5852 19.7303 29.2105 19.2985C28.9723 19.017 28.3947 18.967 27.9645 19.0452C26.6439 19.2867 25.0833 20.2752 24.1613 21.4648C23.1221 22.7997 22.603 24.4203 22.7773 26.2391C23.0902 29.521 25.8193 31.4167 28.9177 31.3949C31.383 31.3758 33.7053 30.6362 36.4996 27.8276C39.1043 25.2082 41.4773 21.2954 43.6994 17.667C43.7691 17.5511 43.8186 17.4889 44.1563 17.4473C45.5501 17.2747 47.608 17.0782 48.927 17.0026C49.2202 16.9866 49.2798 16.9898 49.3974 17.1348C49.741 17.5641 50.2571 17.9284 50.6705 18.1502C50.8721 18.2586 50.968 18.3126 51.1263 18.3152C51.3216 18.3194 51.4737 18.2153 51.572 18.1053C51.7118 17.9532 51.7505 17.7543 51.6748 17.6262C51.5959 17.4918 50.6761 16.987 50.6488 16.7829C50.6286 16.6556 50.7692 16.6249 50.7692 16.6249C51.4455 16.4148 52.1491 15.9826 52.5754 15.174C52.9942 14.378 53.0618 13.3157 52.2956 12.7251C51.6231 12.2063 50.6071 12.2882 49.7964 13.0086C49.0033 13.7079 48.7409 14.7255 48.848 15.6172C48.8673 15.7718 48.8593 15.8238 48.6463 15.8415C47.4273 15.9381 46.2528 15.9716 44.9465 16.0401C44.8591 16.0464 44.8314 15.9892 44.8822 15.9292C46.3864 13.3416 48.6324 11.499 51.1166 9.6844C51.2812 9.56217 51.2309 9.32973 51.2242 9.13566C55.7095 10.1005 60.0441 11.8963 64.6975 11.8581C66.6218 11.8426 68.464 11.5528 70.2249 10.5963C71.7736 9.75997 72.4021 8.98629 72.4483 8.18231C72.4844 7.62658 72.0941 7.2753 71.5383 7.39501C66.8367 8.46447 62.3514 8.45266 57.6737 7.89231C52.331 7.25021 47.2044 5.92835 41.8865 5.94501ZM51.2715 13.444C51.3814 13.4498 51.4842 13.4863 51.5674 13.5569C51.8152 13.7665 51.6979 14.2894 51.4476 14.6515C51.1741 15.051 50.7103 15.3958 50.2874 15.4798C50.2025 15.4954 50.129 15.4593 50.0942 15.2732C50.0253 14.7805 50.1871 14.1206 50.7189 13.6556C50.8853 13.5099 51.0884 13.4343 51.2715 13.444ZM89.0147 13.5384C88.1599 13.5384 87.0389 13.5399 86.1479 13.5399C85.9358 13.5399 85.8261 13.5656 85.7257 13.7609C85.3973 14.3847 81.3907 20.3298 80.6447 21.4845C80.5195 21.6601 80.3658 21.6356 80.3482 21.4353C80.2725 20.7497 79.6747 19.9618 78.7325 19.5846C78.0142 19.296 77.3119 19.2439 76.5823 19.3397C75.2646 19.5149 74.0907 20.2038 73.0582 20.9796C71.5028 22.1512 70.1609 23.6678 68.4282 24.7894C67.4822 25.3997 66.1873 25.9321 65.3207 25.1382C64.5365 24.4182 64.6246 22.8186 65.8247 21.582C65.9512 21.4522 66.1028 21.5605 66.0789 21.6769C65.9655 22.2364 66.105 22.7926 66.5339 23.1829C67.0573 23.647 67.8065 23.6999 68.4475 23.3899C69.2045 23.019 69.649 22.3019 69.7792 21.4878C69.9796 20.2255 68.9979 19.1121 67.7705 19.023C66.7729 18.9537 65.8165 19.2973 64.8848 20.0593C64.4173 20.4428 64.1513 20.7267 63.7476 21.2955C63.6489 21.4358 63.4977 21.45 63.5028 21.2429C63.5494 19.627 62.8738 18.7177 61.5242 18.6879C60.4774 18.6635 59.3582 19.2254 58.4862 19.9143C57.5301 20.6746 56.6942 21.6819 55.7982 22.6287C55.6869 22.7455 55.5895 22.74 55.5584 22.5136C55.5311 21.4429 55.2592 20.4058 54.7585 19.6694C54.5816 19.4132 54.209 19.2862 53.8956 19.4593C53.7511 19.5379 53.2476 19.7669 52.8817 20.0588C52.6998 20.2071 52.6296 20.4217 52.7094 20.6968C53.1924 22.2959 53.0862 24.1148 52.4309 25.6513C51.8289 27.0577 50.6591 28.3272 49.2847 28.7565C48.3791 29.0408 47.4373 28.9017 46.8547 28.1066C46.0545 27.0094 46.378 25.1016 47.5701 23.5167C48.6232 22.1221 50.1451 21.2357 51.6644 20.6649C51.8434 20.5968 51.8798 20.4836 51.8294 20.3332C51.7466 20.0854 51.6153 19.7491 51.5611 19.595C51.4221 19.2283 51.0318 19.1682 50.5559 19.2199C49.4524 19.3472 48.4573 19.7214 47.474 20.2427C44.899 21.6079 43.6086 24.25 43.0424 25.6639C42.7702 26.3423 42.5371 26.7666 42.2359 27.1421C41.8302 27.6475 41.3206 28.107 40.3889 28.9173C40.3049 28.9916 40.242 29.1466 40.3125 29.2902C40.4079 29.4855 40.8921 30.1627 41.0291 30.2232C41.1807 30.2971 41.3566 30.1939 41.4272 30.1435C42.0791 29.7062 42.8591 29.0127 43.241 28.5422C43.3745 28.3813 43.5125 28.449 43.5835 28.6935C43.9397 29.952 44.8725 30.9793 46.1625 31.409C48.5232 32.1974 50.9721 31.0563 52.8203 29.0699C53.9948 27.8076 54.4187 26.9956 54.869 26.4436C55.6318 25.5073 57.1373 23.413 58.9296 22.0684C59.587 21.5728 60.3654 21.1947 60.7569 21.4455C61.0707 21.6471 61.1719 22.1153 60.6679 23.0227C58.8407 26.3272 56.1505 30.2098 55.6573 31.152C55.5675 31.3154 55.646 31.4435 55.8186 31.4435C56.7751 31.4393 57.7236 31.4413 58.5919 31.4413C58.7359 31.4346 58.8012 31.3696 58.8734 31.2683C60.276 29.0946 61.5961 27.0246 63.0109 24.8853C63.0907 24.7593 63.1634 24.857 63.1663 24.912C63.1957 25.4081 63.3187 26.0874 63.6161 26.5335C64.1512 27.3576 64.9091 27.7117 65.75 27.7171C66.4188 27.7247 66.7569 27.624 67.4781 27.3572C67.9827 27.1697 68.4601 26.916 68.8979 26.6027C69.1092 26.4578 69.1461 26.7008 69.1406 26.7382C68.8163 28.4642 69.2171 30.5088 70.9494 31.3569C73.0228 32.3692 75.3004 30.9466 76.6109 29.6625C76.7391 29.5386 76.8773 29.5516 76.8903 29.8179C76.918 30.3085 77.1415 30.8904 77.5515 31.2978C78.6495 32.3891 80.8657 31.9568 83.0899 30.2518C84.5181 29.1609 86.0121 27.619 87.3618 25.9862C87.4118 25.9232 87.4491 25.8211 87.3524 25.7186C87.1466 25.5056 86.8494 25.2619 86.6457 25.0741C86.5528 24.996 86.4162 25.0184 86.3377 25.0776C84.9544 26.3802 83.7094 27.866 81.9091 29.0946C81.3021 29.5139 80.3351 29.8524 79.9004 29.2702C79.7311 29.0443 79.7505 28.7312 79.9173 28.3208C80.4428 27.0245 88.7509 14.4994 89.1819 13.7618L89.1827 13.7609C89.2566 13.6323 89.1785 13.5384 89.0147 13.5384ZM77.3733 21.3688C77.5908 21.367 77.7945 21.4084 77.98 21.4967C79.0032 21.9802 78.6764 23.1534 78.219 24.0746C78.2034 24.1034 78.1938 24.1351 78.1906 24.1677C78.1875 24.2003 78.1908 24.2332 78.2005 24.2645C78.2173 24.3603 78.3432 24.4531 78.4671 24.4972C78.5103 24.5132 78.5349 24.5442 78.4858 24.645C78.1321 25.3948 77.8078 25.8271 77.3646 26.4781C76.958 27.0801 76.4992 27.5493 75.9431 28.0013C75.105 28.6881 73.9416 29.4353 72.9797 28.9329C72.5521 28.7128 72.3676 28.1209 72.376 27.6416C72.3983 26.2932 73.0019 24.9096 74.1201 23.5495C75.228 22.1993 76.4306 21.3771 77.3733 21.3688Z" fill="white"/>
</svg>
