<svg width="189" height="40" viewBox="0 0 189 40" fill="none" xmlns="http://www.w3.org/2000/svg">
<path d="M90.0718 0.444045C87.8404 0.910602 82.6474 2.43198 75.9128 4.58221L72.9714 5.51532L67.4944 5.49504C61.7538 5.45447 53.4572 5.1299 23.9829 3.79109C-1.71833 2.61455 -0.0549544 2.65512 0.147897 2.99997C1.20272 4.78506 3.29209 6.2253 5.44231 6.61072C7.6331 7.0367 15.2806 7.76697 40.1096 9.97804C47.0268 10.6069 54.3294 11.2763 56.3376 11.4994C66.8453 12.6557 69.0158 13.6699 71.9977 18.7818C74.9999 23.9545 76.4199 26.0438 78.8744 28.8229C81.8969 32.2511 87.3941 36.4095 92.2017 38.8843L94.3722 40L96.5427 38.8843C101.289 36.4501 106.848 32.2511 109.87 28.8229C112.325 26.0438 113.744 23.9545 116.747 18.7818C119.729 13.6699 121.899 12.6557 132.407 11.4994C134.415 11.2763 141.718 10.6069 148.635 9.97804C173.464 7.76697 181.111 7.0367 183.302 6.61072C185.452 6.2253 187.542 4.78506 188.597 2.99997C188.799 2.65512 190.463 2.61455 164.762 3.79109C140.927 4.8662 128.39 5.39361 122.163 5.53561C116.077 5.6776 116.99 5.83988 108.105 3.10139C100.194 0.646896 97.8004 0.0991978 94.7779 0.0180574C92.8711 -0.0427979 91.9989 0.0383425 90.0718 0.444045ZM99.6869 4.21707C103.967 5.29218 109.282 7.05699 111.554 8.15238C113.826 9.26807 114.373 9.8969 114.312 11.398C114.252 13.8322 111.128 20.9523 108.612 24.4616C107.071 26.6321 103.967 29.8372 101.573 31.7642C99.6463 33.3262 95.285 36.2067 94.6156 36.3893C93.7839 36.5921 89.1387 33.5088 85.609 30.4254C82.0186 27.2812 79.3004 23.7313 77.211 19.4715C76.075 17.1387 74.5942 13.0411 74.3914 11.6009C74.1277 9.85633 75.3854 8.76094 79.3612 7.21927C82.7488 5.90074 89.6864 3.93308 93.1551 3.30424C94.2302 3.12168 96.6239 3.44624 99.6869 4.21707Z" fill="#A09C9C"/>
<path d="M79.7467 12.5746C78.7933 13.2034 78.4078 14.4205 78.7933 15.5971C79.2598 17.1184 80.984 17.7878 82.7894 17.159C83.398 16.9359 83.4183 16.8953 83.4183 15.7391V14.5422H82.5054C81.6129 14.5422 81.2883 14.8465 81.8969 15.0696C82.0794 15.1508 82.2012 15.4551 82.2012 15.881C82.2012 16.5099 82.1606 16.5707 81.5926 16.5707C80.1524 16.5707 79.4424 14.6639 80.3958 13.4265C80.7812 12.96 80.9638 12.8991 81.6737 12.96C82.1403 13.0208 82.6677 13.1223 82.8706 13.2034C83.1546 13.3454 83.2154 13.2643 83.2154 12.8586C83.2154 12.2906 82.8097 12.108 81.3695 12.108C80.7406 12.108 80.2132 12.25 79.7467 12.5746Z" fill="#A09C9C"/>
<path d="M84.1688 12.25C84.0877 12.3109 84.1079 12.4731 84.2297 12.6151C84.3311 12.7368 84.4528 13.8322 84.4731 15.0696L84.5339 17.2807L86.319 17.3416C87.9824 17.4024 88.0838 17.3821 88.0838 16.9764C88.0838 16.6113 87.9621 16.5707 86.8464 16.5707H85.6293L85.6902 15.7999C85.751 15.0494 85.751 15.0494 86.7247 14.9885C87.3941 14.9479 87.6781 14.8465 87.6781 14.6234C87.6781 14.4205 87.4144 14.3394 86.6639 14.3394H85.6496V13.6294V12.9194H86.887C87.9418 12.9194 88.1041 12.8788 88.0027 12.5949C87.9418 12.4123 87.881 12.2297 87.881 12.1892C87.881 12.0472 84.3108 12.108 84.1688 12.25Z" fill="#A09C9C"/>
<path d="M88.7735 12.3514C88.6924 12.4731 88.733 12.6354 88.8547 12.676C89.017 12.7166 89.0981 13.4671 89.0981 15.0899C89.0981 17.3821 89.0981 17.4024 89.5647 17.3416C89.9704 17.2807 90.0109 17.1387 90.1124 15.881L90.2138 14.4611L91.3903 15.9419C92.3031 17.0576 92.6886 17.3821 93.0131 17.3416C93.4391 17.2807 93.4594 17.1793 93.4594 14.7451C93.4594 12.2906 93.4391 12.2094 93.0131 12.1486C92.5871 12.0877 92.5669 12.1689 92.506 13.7105L92.4451 15.3536L91.1672 13.7308C90.2138 12.4934 89.7878 12.108 89.4227 12.108C89.1387 12.108 88.8547 12.2094 88.7735 12.3514Z" fill="#A09C9C"/>
<path d="M94.3723 12.3919C94.3723 12.5542 94.4737 12.7571 94.5752 12.8179C94.6969 12.8991 94.778 13.893 94.778 15.171V17.3821H96.5023C98.0845 17.3821 98.2265 17.3415 98.2265 16.9764C98.2265 16.6112 98.0845 16.5707 97.1108 16.5707H95.9951V15.7593V14.9479H97.0094C97.7802 14.9479 98.0236 14.8667 98.0236 14.6436C98.0236 14.4205 97.7802 14.3393 97.0094 14.3393H95.9951V13.6293V12.9194H97.1311C98.0845 12.9194 98.2468 12.8585 98.1859 12.5542C98.1251 12.2702 97.8411 12.2094 96.2385 12.1485C94.6969 12.108 94.3723 12.1485 94.3723 12.3919Z" fill="#A09C9C"/>
<path d="M99.6869 12.3108C99.4435 12.4123 99.1392 12.7368 99.0378 13.0411C98.7335 13.8322 99.1798 14.5422 100.356 15.1913C101.533 15.8202 101.715 16.4287 100.803 16.5301C100.478 16.5707 99.9506 16.5098 99.626 16.3881C99.0378 16.1853 99.0175 16.2056 99.0783 16.733C99.1392 17.2604 99.2 17.2807 100.377 17.3415C101.371 17.3821 101.695 17.3212 102.141 16.9764C103.176 16.165 102.811 15.0087 101.269 14.2379C100.539 13.8728 100.255 13.6091 100.255 13.2845C100.255 12.8991 100.336 12.8788 101.371 12.9802C102.365 13.0817 102.486 13.0411 102.486 12.7165C102.486 12.5137 102.344 12.2905 102.162 12.2297C101.695 12.0471 100.235 12.108 99.6869 12.3108Z" fill="#A09C9C"/>
<path d="M103.379 12.3514C103.298 12.4731 103.338 12.6354 103.46 12.6759C103.622 12.7165 103.703 13.4671 103.703 15.0696V17.3821H104.312H104.92V14.745V12.108H104.231C103.845 12.108 103.46 12.2094 103.379 12.3514Z" fill="#A09C9C"/>
<path d="M106.726 12.4123C105.549 13.0614 105.894 14.3191 107.456 15.1305C108.146 15.4956 108.47 15.7999 108.47 16.0636C108.47 16.5504 107.639 16.7127 106.726 16.3882C106.138 16.1853 106.117 16.2056 106.178 16.733C106.239 17.2604 106.3 17.2807 107.476 17.3416C109.018 17.4227 109.789 16.9156 109.789 15.881C109.789 15.1508 109.525 14.8465 108.227 14.1365C107.659 13.8322 107.355 13.5077 107.355 13.2643C107.355 12.8991 107.456 12.8788 108.47 12.9803C109.464 13.0817 109.586 13.0411 109.586 12.7166C109.586 12.5137 109.444 12.2906 109.262 12.2297C108.694 12.0066 107.274 12.108 106.726 12.4123Z" fill="#A09C9C"/>
<path d="M5.96973 9.22749C6.0103 9.32891 6.72028 10.0186 7.55197 10.7894C13.5564 16.2664 17.9379 17.9298 29.0542 18.8832C34.1255 19.3295 41.0427 19.7555 49.4407 20.1206C53.4572 20.3032 57.2302 20.5466 57.8387 20.6683C58.5893 20.8103 59.137 21.074 59.6644 21.5405C60.0701 21.9057 60.3338 22.2708 60.273 22.3317C60.1513 22.4534 45.5257 22.21 37.2696 21.9462C34.6732 21.8651 33.4763 21.8854 33.6183 22.0274C34.0849 22.4939 44.2274 25.3339 49.8261 26.5713L52.6863 27.2001L60.5975 27.2204C69.1781 27.2407 69.1173 27.2407 70.2127 28.3969L70.6792 28.904L69.807 29.0257C68.813 29.1475 63.2346 29.5532 62.5043 29.5532C62.2203 29.5532 62.1189 29.6343 62.2406 29.7357C62.4638 29.9791 69.665 31.9468 72.87 32.6771C75.8519 33.3262 80.9841 34.2796 81.0855 34.1782C81.126 34.1376 80.6595 33.6913 80.0307 33.2045C77.4139 31.1151 74.4522 27.5247 70.6184 21.8448C68.6304 18.8832 66.6019 16.6721 65.2022 15.9013C63.3157 14.887 59.0356 14.1365 49.9478 13.2237C26.3765 10.9112 7.1057 9.06521 6.23344 9.06521C6.05087 9.06521 5.92916 9.14635 5.96973 9.22749Z" fill="#A09C9C"/>
<path d="M174.093 9.79547C170.137 10.1606 162.185 10.9314 156.445 11.4994C150.704 12.0674 143.219 12.7977 139.811 13.1425C129.729 14.1162 125.49 14.8465 123.542 15.9013C122.143 16.6721 120.114 18.8832 118.126 21.8448C114.292 27.5247 111.331 31.1151 108.714 33.2045C108.085 33.6913 107.618 34.1376 107.659 34.1782C107.76 34.2796 112.893 33.3262 115.874 32.6771C119.079 31.9468 126.281 29.9791 126.504 29.7357C126.626 29.6343 126.524 29.5532 126.24 29.5532C125.51 29.5532 119.931 29.1475 118.937 29.0257L118.065 28.904L118.532 28.3969C119.627 27.2407 119.566 27.2407 128.147 27.2204L136.058 27.2001L138.918 26.5713C144.497 25.3339 154.66 22.4939 155.126 22.0274C155.268 21.8854 154.092 21.8651 151.576 21.9462C143.624 22.1897 128.593 22.4534 128.471 22.3317C128.411 22.2708 128.674 21.9057 129.08 21.5405C129.607 21.074 130.155 20.8103 130.906 20.6683C131.514 20.5466 135.287 20.3032 139.304 20.1206C147.702 19.7555 154.599 19.3295 159.69 18.8832C170.786 17.9298 175.188 16.2664 181.192 10.7894C182.024 10.0186 182.754 9.32891 182.775 9.22749C182.876 8.98406 182.004 9.04492 174.093 9.79547Z" fill="#A09C9C"/>
</svg>
