<svg width="79" height="41" viewBox="0 0 79 41" fill="none" xmlns="http://www.w3.org/2000/svg">
<path d="M39.1714 40.0461C60.7402 40.0461 78.2308 31.0925 78.2308 20.0493C78.2308 8.9997 60.7402 0.0460815 39.1714 0.0460815C17.6092 0.0460815 0.11853 8.9997 0.11853 20.0493C0.11853 31.0925 17.6092 40.0461 39.1714 40.0461ZM46.527 30.2332C45.8761 31.7434 44.7532 34.9655 42.1787 36.2544C41.3976 36.6417 40.431 36.8207 39.575 36.8565H39.1747C31.9688 36.8565 25.2577 35.8475 19.6401 34.1421L19.4253 34.0607C18.9045 33.8882 18.6442 33.6474 18.6442 33.3512C18.6442 33.0941 18.7841 32.8955 18.9664 32.7165L19.3211 32.4008C20.623 31.3203 24.5221 28.4952 31.8777 25.6734C34.4586 24.6938 37.6905 23.4635 41.0722 22.7442C43.051 22.3341 50.4098 21.2047 46.527 30.2332ZM66.2536 10.0737C66.3935 9.8329 66.5791 9.62785 66.9143 9.61158C67.0966 9.59205 67.3439 9.63436 67.7215 9.87195C72.3073 12.6938 75.0282 16.2251 75.0282 20.0428C75.0282 26.9362 66.1625 32.8663 53.4822 35.4537C52.6751 35.6165 52.1283 35.61 51.9493 35.4049C51.8191 35.2812 51.7866 35.0599 51.9493 34.7865C52.0445 34.6173 52.158 34.459 52.2878 34.3146C59.1877 26.1779 64.4473 14.1714 65.9412 10.7084C66.0551 10.4676 66.1625 10.23 66.2536 10.0737ZM31.9395 9.81663C32.5905 8.30971 33.7133 5.08432 36.2845 3.80849C37.0656 3.41793 38.0323 3.22916 38.8883 3.20637C39.0868 3.19987 39.2267 3.20637 39.2788 3.20637C46.4944 3.20637 53.1958 4.20231 58.8199 5.91752C58.8622 5.93705 58.9924 5.98261 59.0347 5.99889C59.5555 6.17464 59.8158 6.41223 59.8158 6.70841C59.8158 6.96553 59.6791 7.1543 59.4969 7.33656C59.3816 7.44528 59.2622 7.54951 59.1389 7.64901C57.8468 8.73933 53.9379 11.5579 46.5823 14.3797C43.9949 15.3691 40.7695 16.5896 37.3976 17.3056C35.4123 17.7287 28.0567 18.8451 31.9395 9.81663ZM24.8541 4.63192C25.6678 4.4757 26.2048 4.4757 26.4033 4.68074C26.5172 4.81093 26.5498 5.02574 26.3968 5.29913C26.2995 5.46399 26.1861 5.6188 26.0583 5.7613C19.1584 13.9078 13.8956 25.9045 12.3952 29.3772C12.301 29.5936 12.1968 29.8054 12.0827 30.0119C11.9525 30.2495 11.7605 30.4545 11.4318 30.4741C11.2495 30.4903 10.9924 30.4383 10.6149 30.2104C6.03228 27.3886 3.30812 23.8606 3.30812 20.0428C3.30812 13.1494 12.1739 7.21939 24.8541 4.63192Z" fill="#A09C9C"/>
</svg>
