<svg width="40" height="40" viewBox="0 0 40 40" fill="none" xmlns="http://www.w3.org/2000/svg">
<path fill-rule="evenodd" clip-rule="evenodd" d="M36.3271 0.944293C34.6552 0.572887 26.9972 0 20.2469 0C13.4004 0 5.66981 0.572887 3.998 0.944293C3.18479 1.12514 0.709961 1.67497 0.709961 4.54742C0.709961 8.24327 0.806332 26.8123 2.70851 29.4156C5.99242 33.9094 19.2972 39.6936 19.8619 39.9378C19.9552 39.9782 20.0557 39.9993 20.1574 40C20.2591 40.0007 20.3599 39.9808 20.4537 39.9417C21.0407 39.697 34.8589 33.9009 37.65 29.3656C39.4687 26.4104 39.6153 4.76395 39.6153 4.54766C39.6156 1.67497 37.14 1.12514 36.3271 0.944293ZM36.3593 28.5713C34.0309 32.3553 22.1974 37.5469 20.168 38.4165C18.1801 37.5346 6.72164 32.3383 3.93245 28.5211C2.68909 26.8199 2.22593 12.9135 2.22593 4.54741C2.22593 3.33998 2.79541 2.76442 4.32716 2.42385C5.76278 2.10488 13.2938 1.51572 20.2471 1.51572C27.1014 1.51572 34.563 2.10488 35.9986 2.42385C37.5301 2.76442 38.0994 3.33974 38.0994 4.54741C38.0994 8.86155 37.6449 26.4812 36.3593 28.5713ZM20.7773 10.5472C20.9877 9.83157 22.552 8.80037 22.7848 9.02006C22.7858 8.75547 23.9228 7.71432 24.3343 7.90002C24.2403 7.58032 25.8002 6.60471 26.1753 6.88072C26.2554 6.48334 28.5142 6.18427 28.9618 6.56514C29.2196 6.27239 31.2237 6.75788 31.264 7.26911C31.641 6.93825 33.685 9.09871 33.6867 10.1894C33.6876 10.6098 31.7656 8.89553 30.5542 9.26742C28.5501 9.88255 25.9988 12.0163 23.7837 15.2206C23.1744 16.1025 21.5941 16.4207 21.2577 14.9893C21.2577 14.9895 20.5668 11.2631 20.7773 10.5472ZM20.6047 30.4628C20.2911 29.9326 20.3903 29.2932 20.6564 29.0401C21.0276 28.6869 22.0969 28.976 22.1835 28.6521C22.3911 27.8807 21.8478 27.6105 21.9413 26.5475C21.974 26.1759 22.678 23.4804 22.8572 23.242C23.0079 23.0415 23.9073 22.7271 24.1454 22.6351C24.2996 22.4565 24.4037 22.2525 24.4151 21.8945C23.2361 21.5364 22.9203 22.6312 22.7518 22.589C22.5833 22.5468 22.8385 21.3908 22.9861 21.2648C23.1329 21.1383 24.5127 20.832 24.6678 20.5892C24.831 20.3331 25.4677 17.8734 24.6678 17.8314C24.7319 17.8457 24.6266 17.6682 24.6887 17.6828C26.3421 18.07 27.4594 10.1573 31.5308 10.1891C35.5736 10.2207 35.3626 16.0758 35.1184 16.2943C34.6652 16.6999 33.9952 16.5499 33.9729 16.9259C33.7624 20.5048 30.5625 24.3365 29.5939 23.9994C29.015 23.7979 29.5099 21.9787 29.7835 21.9365C29.5308 21.8311 29.7835 19.9576 30.0785 19.9154C29.8466 19.7469 30.0571 18.0207 30.352 17.9996C30.2093 17.8687 30.2246 16.6866 29.9221 16.0989C29.6893 15.6464 28.6865 15.4034 28.6258 16.505C29.2361 16.2103 29.2784 18.1892 29.0254 18.5261C28.7727 18.863 27.1516 19.6209 26.6467 20.0416C26.689 20.8842 25.8886 24.1261 25.2992 25.0527C24.7098 25.9785 24.1202 26.5261 23.7835 27.3682C23.4463 28.2103 23.6626 29.646 22.8992 30.2946C22.5615 30.5815 20.7503 30.7094 20.6047 30.4628ZM34.4994 17.2C34.6885 16.8771 35.4655 16.7494 35.7459 16.9053C36.0753 17.0886 36.3186 19.6631 35.9816 19.7474C36.2766 19.8974 35.9035 21.8503 35.5313 21.8527C35.8263 21.9792 35.2155 23.8947 34.8577 23.8316C35.0682 24.1266 34.0787 25.6845 33.8051 25.6001C33.7207 27.2003 28.896 27.9639 29.0053 26.6104C29.0579 25.9588 29.7794 26.9167 33.0262 21.8525C34.4581 19.6192 34.2161 17.6828 34.4994 17.2ZM19.5774 10.5598C19.2404 9.82283 17.8577 8.83388 17.6249 9.05356C17.6237 8.78897 16.4869 7.74782 16.0752 7.93328C16.1689 7.61358 14.6095 6.63797 14.2345 6.91422C14.1541 6.51659 11.8953 6.21777 11.4477 6.5984C11.1899 6.30565 9.18602 6.79114 9.14573 7.30237C8.7685 6.97151 6.72479 9.13197 6.72261 10.2226C6.72188 10.6431 8.64421 8.92879 9.85504 9.30068C11.8592 9.91581 14.4107 12.0496 16.6258 15.2541C17.2351 16.1358 18.7814 16.454 19.1186 15.0225C19.1186 15.023 19.9143 11.2966 19.5774 10.5598ZM19.7417 30.4965C20.0554 29.9249 19.9986 29.3061 19.7323 29.0529C19.3609 28.6997 18.3129 29.0097 18.226 28.6859C18.0185 27.9144 18.5615 27.6447 18.4685 26.5812C18.436 26.2096 17.7315 23.5141 17.5524 23.2757C17.4016 23.0747 16.5022 22.7609 16.2641 22.6689C16.1102 22.4907 16.0061 22.2868 15.9944 21.9282C17.1734 21.5702 17.4893 22.665 17.6577 22.6227C17.8262 22.5805 17.5711 21.4245 17.4237 21.2985C17.2764 21.1721 15.9179 20.8449 15.742 20.623C15.5531 20.3851 14.9419 17.9071 15.742 17.8651C15.6776 17.8794 15.783 17.702 15.7211 17.7165C14.0677 18.1037 12.9501 10.1911 8.87871 10.2229C4.83573 10.2544 5.04716 16.1095 5.29137 16.328C5.74458 16.7337 6.41457 16.5836 6.43666 16.9597C6.64712 20.5385 9.84704 24.3703 10.8156 24.0331C11.3946 23.8316 10.8998 22.012 10.6263 21.9702C10.879 21.8649 10.6263 19.9913 10.3316 19.9491C10.5631 19.7806 10.3527 18.0545 10.058 18.0333C10.2007 17.9025 10.1854 16.7203 10.4879 16.1324C10.7207 15.6801 11.7237 15.4371 11.7844 16.5385C11.1737 16.2435 11.1319 18.2227 11.3846 18.5596C11.6371 18.8965 13.2581 19.6544 13.7636 20.0751C13.7213 20.9177 14.5214 24.1596 15.1108 25.0857C15.7002 26.012 16.2896 26.5596 16.6265 27.4017C16.9664 28.2514 17.1237 29.9317 17.5317 30.3072C17.9129 30.6577 19.6041 30.7478 19.7417 30.4965ZM20.2047 32.1217C18.9416 32.1431 17.8332 31.2423 18.0575 31.002C18.4908 30.5368 19.247 31.2168 20.152 30.8165C21.0366 31.1954 21.7728 30.5385 22.3518 30.9682C22.6804 31.2119 21.4682 32.1011 20.2047 32.1217ZM5.91013 17.2335C5.72079 16.9109 4.94399 16.8672 4.66386 17.023C4.33469 17.2063 4.09121 19.6966 4.42791 19.7809C4.13321 19.9307 4.50656 21.8838 4.87845 21.886C4.58375 22.0122 5.19426 23.928 5.55208 23.8649C5.34161 24.1598 6.33106 25.7178 6.60464 25.6333C6.68887 27.2335 11.5137 27.9972 11.4045 26.6436C11.3521 25.9921 10.6306 26.95 7.38338 21.8858C5.95164 19.653 6.19366 17.7168 5.91013 17.2335Z" fill="#A09C9C"/>
</svg>
