<svg width="76" height="40" viewBox="0 0 76 40" fill="none" xmlns="http://www.w3.org/2000/svg">
<path d="M52.6089 0.715699C55.8843 0.138923 59.2127 0.0542582 62.5199 0.00134288C65.8218 -0.0251148 69.2613 0.329417 72.2087 1.95392C74.9074 3.05455 76.3943 6.35647 75.3995 9.13981C74.1083 13.4048 71.0498 16.8178 67.9384 19.8763C60.0646 27.9988 50.2965 33.8301 40.9093 40C42.4809 37.7141 43.772 35.2112 44.7351 32.6236C45.4759 30.5864 46.1955 28.4698 46.2749 26.2632C46.386 24.0037 45.9151 21.5855 44.4599 19.7969C42.9994 18.146 40.9093 17.1565 38.8191 16.5744C35.7924 15.7172 32.5963 15.6325 29.4584 15.6325C22.3307 15.6854 15.256 16.8443 8.29231 18.273C5.84234 18.7175 3.44528 19.4583 0.942383 19.5694C3.06429 18.8815 4.93219 17.6433 6.94298 16.6538C16.3301 11.8914 26.0454 7.76401 36.094 4.62614C41.4861 2.91697 47.021 1.67876 52.6089 0.715699Z" fill="#A09C9C"/>
</svg>
