<svg width="92" height="40" viewBox="0 0 92 40" fill="none" xmlns="http://www.w3.org/2000/svg">
<path d="M46.3316 0C42.9718 0.000543709 39.6662 0.847479 36.7201 2.46262C33.774 4.07777 31.2822 6.40907 29.4749 9.24132H0.720703L3.58302 12.1036H27.9813C27.5178 13.181 27.15 14.2971 26.8822 15.439H6.91836L9.74551 18.2661H26.4202C26.3654 18.8426 26.3357 19.4213 26.3312 20.0003C26.3365 20.5349 26.3631 21.069 26.4112 21.6015H13.0809L15.9087 24.4293H26.8463C27.0999 25.5695 27.4529 26.6854 27.9013 27.764H19.244L22.1057 30.627H29.4162C31.2132 33.4919 33.7074 35.8545 36.6654 37.4936C39.6235 39.1328 42.949 39.9952 46.3309 40C49.713 39.9954 53.0387 39.1332 55.9971 37.494C58.9554 35.8548 61.4497 33.4921 63.2469 30.627H70.5561L73.4191 27.764H64.7618C65.2102 26.6854 65.5632 25.5695 65.8168 24.4293H76.7544L79.5816 21.6022H66.2512C66.2993 21.0695 66.326 20.5351 66.3312 20.0003C66.3269 19.4213 66.2975 18.8427 66.2429 18.2661H82.9169L85.7441 15.439H65.7796C65.5121 14.2972 65.1448 13.1811 64.6818 12.1036H89.0794L91.9424 9.24132H63.1882C61.3809 6.40907 58.8891 4.07777 55.943 2.46262C52.9969 0.847479 49.6914 0.000543709 46.3316 0ZM46.3316 2.7113C50.9169 2.7113 55.3144 4.53282 58.5568 7.77515C61.7991 11.0175 63.6206 15.415 63.6206 20.0003C63.6206 24.5857 61.7991 28.9832 58.5568 32.2255C55.3144 35.4679 50.9169 37.2894 46.3316 37.2894C44.0611 37.2895 41.8128 36.8423 39.7151 35.9735C37.6174 35.1047 35.7114 33.8312 34.1059 32.2258C32.5004 30.6203 31.2268 28.7144 30.3579 26.6167C29.489 24.5191 29.0418 22.2708 29.0418 20.0003C29.0418 17.7299 29.489 15.4816 30.3579 13.384C31.2268 11.2863 32.5004 9.38035 34.1059 7.7749C35.7114 6.16946 37.6174 4.89597 39.7151 4.02715C41.8128 3.15834 44.0611 2.71121 46.3316 2.7113ZM32.5778 15.519V24.481H34.4465V17.427L36.4186 24.481H38.3549L40.3332 17.427V24.481H42.2019V15.519H39.1844L37.3971 21.6325L35.5891 15.519H32.5778ZM44.1533 15.519V24.481H46.1647V15.519H44.1533ZM48.0954 15.519V24.481H49.9641V18.6371L53.9814 24.481H56.0004V15.519H54.1317V21.5042L50.053 15.519H48.0954ZM58.0732 15.519V24.481H60.0853V15.519H58.0732Z" fill="#A09C9C"/>
</svg>
