<svg width="49" height="40" viewBox="0 0 49 40" fill="none" xmlns="http://www.w3.org/2000/svg">
<g clip-path="url(#clip0_413_269)">
<path d="M28.558 21.5982C28.52 21.6077 28.3683 21.6077 28.3019 21.6077H23.4074V22.746H28.3872C28.4252 22.746 28.7192 22.746 28.7761 22.7365C29.7911 22.6416 30.2558 21.7974 30.2558 21.0576C30.2558 20.2987 29.7721 19.483 28.852 19.3976C28.6718 19.3787 28.52 19.3787 28.4536 19.3787H25.2001C25.0578 19.3787 24.8966 19.3692 24.8397 19.3502C24.5836 19.2838 24.4887 19.0562 24.4887 18.8664C24.4887 18.6957 24.5836 18.4681 24.8492 18.3922C24.925 18.3732 25.0104 18.3637 25.1906 18.3637H29.8859V17.2444H25.1148C24.9156 17.2444 24.7638 17.2539 24.6405 17.2729C23.8247 17.3867 23.2556 18.0412 23.2556 18.8759C23.2556 19.5589 23.6825 20.3557 24.6215 20.4885C24.7923 20.5074 25.0294 20.5074 25.1337 20.5074H28.3019C28.3588 20.5074 28.501 20.5074 28.5295 20.5169C28.8899 20.5643 29.0133 20.8299 29.0133 21.0671C29.0133 21.2947 28.871 21.5413 28.558 21.5982Z" fill="#A09C9C"/>
<path d="M19.2811 21.5982C19.2432 21.6077 19.0914 21.6077 19.0345 21.6077H14.1305V22.746H19.1104C19.1483 22.746 19.4424 22.746 19.4993 22.7365C20.5142 22.6416 20.979 21.7974 20.979 21.0576C20.979 20.2987 20.4952 19.483 19.5752 19.3976C19.3949 19.3787 19.2432 19.3787 19.1768 19.3787H15.9233C15.781 19.3787 15.6197 19.3692 15.5628 19.3502C15.3067 19.2838 15.2119 19.0562 15.2119 18.8664C15.2119 18.6957 15.3067 18.4681 15.5723 18.3922C15.6482 18.3732 15.7336 18.3637 15.9138 18.3637H20.6091V17.2444H15.8379C15.6387 17.2444 15.4869 17.2539 15.3636 17.2729C14.5479 17.3867 13.9788 18.0412 13.9788 18.8759C13.9788 19.5589 14.4056 20.3557 15.3447 20.4885C15.5154 20.5074 15.7525 20.5074 15.8569 20.5074H19.025C19.0819 20.5074 19.2242 20.5074 19.2526 20.5169C19.6131 20.5643 19.7364 20.8299 19.7364 21.0671C19.7364 21.2947 19.6036 21.5413 19.2811 21.5982Z" fill="#A09C9C"/>
<path d="M11.5791 17.2065H10.3459V22.7745H11.5791V17.2065Z" fill="#A09C9C"/>
<path d="M7.62357 22.7745V17.2065H6.39046V21.3612L2.28328 17.2065H0.699219V22.7745H1.93232V18.6009L6.06796 22.7745H7.62357Z" fill="#A09C9C"/>
<path d="M47.2821 17.2065V21.3612L43.1749 17.2065H41.5908V22.7745H42.8239V18.6009L46.9501 22.7745H48.5057V17.2065H47.2821Z" fill="#A09C9C"/>
<path d="M35.1692 17.2065L31.6975 22.7745H33.1962L33.8128 21.7785H37.863L38.4796 22.7745H39.9688L36.4971 17.2065H35.1692ZM37.2275 20.7256H34.4483L35.8426 18.4871L37.2275 20.7256Z" fill="#A09C9C"/>
<path d="M7.55714 14.0479C10.0423 6.79155 16.8908 1.91605 24.6119 1.91605C32.333 1.91605 39.191 6.79155 41.6667 14.0479L41.6856 14.1048H47.1208V13.4503L44.8633 13.1847C43.4689 13.0235 43.1749 12.4069 42.7954 11.6291L42.7006 11.4394C39.4376 4.49608 32.333 0 24.6119 0C16.8813 0 9.78621 4.49608 6.52323 11.4584L6.42837 11.6481C6.04896 12.4259 5.75491 13.0424 4.36055 13.2037L2.10303 13.4693V14.1238H7.52868L7.55714 14.0479Z" fill="#A09C9C"/>
<path d="M41.6857 25.8857L41.6667 25.9426C39.1815 33.1989 32.3331 38.0649 24.6119 38.0649C16.8908 38.0649 10.0329 33.1894 7.55717 25.9331L7.5382 25.8762H2.11255V26.5307L4.37008 26.7963C5.76443 26.9575 6.05848 27.5741 6.4379 28.3519L6.53275 28.5416C9.79573 35.5039 16.9003 40 24.6214 40C32.3425 40 39.4471 35.5039 42.7101 28.5511L42.805 28.3614C43.1844 27.5836 43.4784 26.967 44.8728 26.8058L47.1303 26.5402V25.8857H41.6857Z" fill="#A09C9C"/>
</g>
<defs>
<clipPath id="clip0_413_269">
<rect width="47.8063" height="40" fill="white" transform="translate(0.698975)"/>
</clipPath>
</defs>
</svg>
