<svg width="106" height="40" viewBox="0 0 106 40" fill="none" xmlns="http://www.w3.org/2000/svg">
<path fill-rule="evenodd" clip-rule="evenodd" d="M52.7773 39.9762C44.0131 38.6047 26.3963 35.0558 18.6564 33.2207C12.6652 31.7955 11.9635 29.8399 11.2389 26.5068L11.2109 26.3777C10.9886 25.3573 9.10969 15.2277 8.32938 10.9673L0.561035 0H105.309L97.5407 10.9673C96.8011 15.006 94.8818 25.3484 94.6594 26.3766L94.6313 26.5068C93.9067 29.8399 93.2049 31.7955 87.2143 33.2205C79.4961 35.0507 61.8784 38.5982 53.0813 39.9762L52.9292 40L52.7773 39.9762ZM103.41 0.982148L96.6135 10.5768C95.8682 14.6515 93.9205 25.1472 93.6995 26.1688L93.6714 26.2977C93.0497 29.1589 92.6684 30.9134 86.9871 32.2652C79.31 34.0853 61.7502 37.6242 52.9293 39.0059C44.1116 37.6259 26.5602 34.0853 18.8832 32.2652C13.2022 30.9134 12.8208 29.1591 12.1988 26.2983L12.1707 26.1688C11.9497 25.1539 10.0018 14.6515 9.25657 10.5768L2.46055 0.982148H103.41ZM7.82638 2.78585H98.0506L92.7015 10.4379C92.2546 13.0916 91.8637 15.4293 91.5287 17.4328C90.8589 21.4378 90.4125 24.1074 90.1891 25.2963C90.1613 25.4407 90.1347 25.5813 90.1087 25.7182C89.5764 28.5231 89.3383 29.778 86.2821 30.6019C79.9046 32.1143 61.4303 35.9075 52.9411 37.1887C44.4517 35.9075 25.9791 32.1092 19.6051 30.6019C16.5486 29.778 16.3105 28.5232 15.7781 25.7184C15.7522 25.5814 15.7255 25.4408 15.6977 25.2963C15.4727 24.1276 15.0392 21.528 14.3902 17.6358L14.3902 17.6354L14.39 17.6344C14.0486 15.5866 13.6475 13.1811 13.1857 10.4379L7.82638 2.78585ZM24.5169 18.2355H15.8518L15.182 14.2647H52.3882V18.2355H51.3834V15.1958H24.2021L24.5169 18.2355ZM52.3781 13.3586H15.0311L14.547 10.448H52.3781V13.3586ZM38.3906 23.1241H52.3831V21.0392H38.3957L38.3906 23.1241ZM23.0333 9.5217H14.1821L11.4405 5.60277H52.39V9.5099H51.3852V6.60934H21.3585L23.0333 9.5217ZM67.6068 5.60289H53.4903V11.4528H67.6135L67.6068 5.60289ZM19.9333 29.2973C18.5213 28.9138 18.096 28.5084 17.8666 28.1601H17.8633C17.7886 28.047 17.7245 27.9269 17.6723 27.8018H37.4125V29.8667H22.4286L22.1172 29.7974L22.117 29.7973L22.1165 29.7972C21.223 29.5983 20.547 29.4478 19.9333 29.2973ZM17.0107 25.0048H37.4127V19.1716H16.0078L17.0107 25.0048ZM52.3916 35.7401C48.7239 35.1655 43.6159 34.216 38.3906 33.1878V25.9512H52.3916V35.7401ZM68.5748 18.2355H90.0251L91.0049 12.3838H68.5748V18.2355ZM68.5748 9.54016V7.46341H93.0931L91.6461 9.53172L68.5748 9.54016ZM53.4903 23.1241H54.4951V20.1781H81.1874C81.1522 20.4646 80.9027 22.4391 80.7738 23.1323H89.2028L89.8727 19.1716H53.4903V23.1241ZM88.4929 26.9392H53.4903V24.0402H89.0586L88.4929 26.9392ZM67.6135 14.2664H53.4903V16.3547H67.6135V14.2664ZM56.9268 34.1316C58.6089 33.8338 60.5158 33.4962 61.4035 33.3267C62.0026 33.2122 62.5807 33.1018 63.1386 32.9953C75.8121 30.5754 78.0955 30.1394 79.2297 28.8049H54.4952V34.5645C55.0775 34.4591 55.9654 34.3019 56.9268 34.1316ZM53.4903 35.7368V27.8018H88.2115C88.1626 27.928 88.0994 28.048 88.0238 28.1602C87.7944 28.5085 87.3741 28.9373 85.9538 29.2907C79.6668 30.8549 62.3885 34.2814 53.4903 35.7368Z" fill="#A09C9C"/>
</svg>
