<svg width="41" height="40" viewBox="0 0 41 40" fill="none" xmlns="http://www.w3.org/2000/svg">
<path fill-rule="evenodd" clip-rule="evenodd" d="M20.2345 40C31.2801 40 40.2341 31.046 40.2341 19.9996C40.2341 8.95474 31.2801 0 20.2345 0C9.18887 0 0.234131 8.95474 0.234131 20.0004C0.234131 31.046 9.18887 40 20.2345 40ZM20.2345 39.5994C31.0586 39.5994 39.8335 30.8244 39.8335 20.0004C39.8335 9.17555 31.0593 0.400625 20.2345 0.400625C9.40968 0.400625 0.634756 9.17555 0.634756 20.0004C0.634756 30.8237 9.40968 39.5994 20.2345 39.5994ZM34.6419 20.0004C34.6419 27.9575 28.1909 34.4078 20.2345 34.4078C12.2774 34.4078 5.82635 27.9575 5.82635 20.0004C5.82635 12.0432 12.2774 5.59222 20.2345 5.59222C28.1909 5.59222 34.6419 12.0432 34.6419 20.0004ZM5.31136 20.8577L4.62735 20.5628L4.64533 19.0761L5.33582 18.815L5.34948 17.6635L1.37631 19.1797L1.36193 20.3586L5.2977 22.0035L5.31136 20.8577ZM6.18166 12.7057L5.68466 13.9011L2.83712 12.7165L2.42211 13.7133L6.07378 15.2324L6.98579 13.0408L6.18166 12.7057ZM6.90955 7.92117L7.3972 8.36711L8.1963 7.49249L8.83931 8.08012L8.04022 8.95474L9.18671 10.002L8.45811 10.7989L5.53865 8.13119L7.1469 6.37045L7.78992 6.95737L6.90955 7.92117ZM12.3651 6.52221L12.4306 7.26377L11.4157 7.7953L10.9949 3.55097L12.0393 3.00361L15.2601 5.78138L14.2402 6.31579L13.6821 5.83173L12.3651 6.52221ZM21.0063 4.97869L19.6663 5.08514L18.5306 3.64951L18.5198 3.65022L18.6399 5.1657L17.5639 5.25057L17.251 1.30905L18.8593 1.18174C19.6778 1.11628 20.328 1.43851 20.3942 2.28076C20.4373 2.82452 20.1561 3.32081 19.5764 3.46609L21.0063 4.97869ZM27.6709 4.55433C27.2789 5.77347 26.0842 6.33665 24.8147 5.92811C23.5459 5.51885 22.9058 4.36517 23.2978 3.14675C23.6646 2.00816 24.9708 1.54712 26.1087 1.91322C27.2465 2.27932 28.037 3.41647 27.6709 4.55433ZM31.8418 4.96934L32.6158 5.69723L31.78 7.81472L33.8788 6.8876L34.6606 7.62412L32.5604 11.1449L31.7879 10.3918L32.961 8.32827L32.9531 8.32107L30.6659 9.29423L30.353 9.00005L31.2204 6.68908L31.2125 6.68189L29.2568 7.99309L28.4657 7.26593L31.8418 4.96934ZM36.8961 13.0653L36.2854 13.3185L36.7522 14.4427L35.9481 14.7764L35.4813 13.6522L34.8512 13.9133L35.3432 15.0993L34.5391 15.4324L33.6342 13.2501L37.2866 11.7347L38.1922 13.9169L37.388 14.2499L36.8961 13.0653ZM37.3341 21.7381C36.0553 21.7827 35.1202 20.8505 35.0735 19.5177C35.0289 18.1857 35.897 17.1909 37.1766 17.1463C38.3713 17.1061 39.248 18.1778 39.289 19.3724C39.3307 20.5664 38.5295 21.6964 37.3341 21.7381ZM2.59113 19.7954V19.7839L3.85558 19.3581L3.84408 20.2564L2.59113 19.7954ZM12.0745 4.36517L12.0839 4.36013L13.0585 5.26999L12.263 5.68716L12.0745 4.36517ZM18.5716 2.98276L18.4673 2.99139L18.3896 2.00744L18.4939 2.00025C18.8449 1.9722 19.2455 2.00313 19.2793 2.43181C19.3131 2.8612 18.9226 2.95542 18.5716 2.98276ZM24.3059 3.95325C24.2949 3.7985 24.3151 3.64312 24.3652 3.49631C24.5328 2.977 25.1887 2.66413 25.803 2.86192C26.4165 3.05972 26.7668 3.69626 26.5999 4.21556C26.5549 4.36411 26.4804 4.50212 26.3811 4.62139C26.2817 4.74067 26.1595 4.83879 26.0215 4.90995C25.8835 4.98111 25.7327 5.02386 25.5779 5.03567C25.4231 5.04748 25.2676 5.0281 25.1204 4.97869C24.9722 4.93292 24.8346 4.85787 24.7159 4.75799C24.5972 4.6581 24.4998 4.53541 24.4294 4.39718C24.3589 4.25895 24.317 4.10799 24.3059 3.95325ZM36.7597 18.3697C36.9015 18.3069 37.0545 18.2732 37.2097 18.2705C37.7549 18.2511 38.2713 18.7625 38.2936 19.407C38.3159 20.0507 37.8354 20.5959 37.2902 20.6146C37.1353 20.6228 36.9802 20.5998 36.8343 20.547C36.6884 20.4942 36.5546 20.4126 36.4408 20.3071C36.3271 20.2016 36.2356 20.0743 36.172 19.9327C36.1084 19.7912 36.0738 19.6383 36.0704 19.4832C36.0633 19.3282 36.0874 19.1734 36.1413 19.0279C36.1951 18.8824 36.2776 18.7492 36.3838 18.6362C36.49 18.5231 36.6178 18.4325 36.7597 18.3697ZM20.4028 34.0349V34.0352H20.3762L20.4028 34.0349ZM20.4028 34.0349L20.4021 5.96551C28.0622 6.04175 34.2693 12.2964 34.2693 20.0004C34.2693 27.6954 28.0801 33.9438 20.4028 34.0349ZM6.30987 21.7733L6.30969 21.7719V21.7733H6.30987ZM6.30987 21.7733C6.7752 25.4428 8.67229 28.7795 11.5876 31.056L11.5854 21.7733H6.30987ZM11.5854 17.5189L11.579 8.95115C8.91771 11.0384 7.02894 14.0492 6.4147 17.5175L11.5854 17.5189ZM15.8391 17.5182H20.0662V5.96551C18.6307 5.98091 17.2062 6.2172 15.8427 6.66607L15.8391 17.5182ZM15.837 33.3318C17.2021 33.7826 18.6286 34.0199 20.0662 34.0352V21.7726H15.8391L15.837 33.3318ZM24.3458 11.8828H29.4496V11.3513H24.3458V11.8828ZM24.3458 10.9082H29.4496V10.5011H24.3458V10.9082ZM27.9435 10.2717C28.0278 10.2717 28.1103 10.2467 28.1804 10.1998C28.2506 10.153 28.3053 10.0863 28.3375 10.0084C28.3698 9.93046 28.3783 9.84471 28.3618 9.76197C28.3453 9.67923 28.3047 9.60323 28.2451 9.54358C28.1854 9.48393 28.1094 9.44331 28.0267 9.42686C27.944 9.4104 27.8582 9.41885 27.7803 9.45113C27.7023 9.48341 27.6357 9.53808 27.5888 9.60822C27.542 9.67836 27.517 9.76082 27.517 9.84518C27.5172 9.95824 27.5622 10.0666 27.6421 10.1466C27.722 10.2265 27.8304 10.2715 27.9435 10.2717ZM26.0828 31.0481C25.5002 31.0481 25.0291 30.6123 25.0291 30.0304C25.0291 29.4499 25.5002 28.9429 26.0828 28.9429L28.1377 28.9436C28.3599 28.9436 28.539 28.7638 28.539 28.5415C28.5394 28.4343 28.4975 28.3312 28.4223 28.2548C28.3472 28.1783 28.2449 28.1345 28.1377 28.133H24.8413C24.3295 28.1328 23.8386 27.9293 23.4767 27.5673C23.1149 27.2053 22.9116 26.7144 22.9116 26.2025C22.9116 25.1373 23.7754 24.3166 24.8413 24.3166L28.8814 24.3137C29.131 24.3137 29.3331 24.1828 29.3331 23.9347C29.3337 23.8139 29.2866 23.6977 29.202 23.6113C29.1174 23.525 29.0022 23.4755 28.8814 23.4736H24.8061C24.4189 23.4823 24.0338 23.4134 23.6736 23.2712C23.3133 23.129 22.9851 22.9162 22.7082 22.6454C22.4313 22.3746 22.2113 22.0512 22.061 21.6942C21.9108 21.3372 21.8335 20.9537 21.8335 20.5664C21.8335 20.1791 21.9108 19.7957 22.061 19.4387C22.2113 19.0817 22.4313 18.7583 22.7082 18.4874C22.9851 18.2166 23.3133 18.0039 23.6736 17.8616C24.0338 17.7194 24.4189 17.6506 24.8061 17.6592L28.7224 17.6621C29.0267 17.6621 29.2734 17.3974 29.2734 17.0931C29.2734 16.7882 29.0267 16.5594 28.7224 16.5594L24.3091 16.5616C24.522 15.6402 25.1247 15.4978 25.6555 15.4985H27.7112C27.7672 15.4986 27.8227 15.4877 27.8745 15.4663C27.9263 15.4449 27.9733 15.4134 28.013 15.3738C28.0526 15.3342 28.084 15.2871 28.1054 15.2353C28.1268 15.1836 28.1378 15.1281 28.1377 15.072C28.1377 14.8375 27.9471 14.6822 27.7112 14.6822H25.6555C24.7701 14.6822 24.345 13.9025 24.3091 13.4781H26.4359C26.6129 12.9106 26.9675 12.6273 27.3573 12.6273H29.6258C30.4055 12.6273 30.7241 12.131 30.7953 11.9181C31.3269 12.1662 33.2401 13.6903 33.2401 16.2422C33.2401 18.7942 30.9723 20.1054 29.5539 20.1154H24.8046C24.685 20.1154 24.5703 20.163 24.4858 20.2475C24.4012 20.3321 24.3537 20.4468 24.3537 20.5664C24.3537 20.686 24.4012 20.8007 24.4858 20.8853C24.5703 20.9699 24.685 21.0174 24.8046 21.0174L29.2705 21.0138C30.6824 21.0138 31.8267 22.2034 31.8267 23.6146C31.8267 25.0265 30.6824 26.1356 29.2705 26.1356L25.0168 26.1306C24.9038 26.1306 24.7954 26.1755 24.7155 26.2554C24.6356 26.3353 24.5907 26.4437 24.5907 26.5567C24.5907 26.6698 24.6356 26.7782 24.7155 26.8581C24.7954 26.938 24.9038 26.9829 25.0168 26.9829L28.2427 26.9858C29.0037 26.9858 29.6208 27.6029 29.6208 28.3646C29.6208 29.127 29.0037 29.7341 28.2427 29.7341L26.2928 29.7398C26.2064 29.7398 26.1235 29.7741 26.0624 29.8352C26.0013 29.8963 25.967 29.9792 25.967 30.0656C25.967 30.152 26.0013 30.2349 26.0624 30.296C26.1235 30.3571 26.2064 30.3915 26.2928 30.3915H27.7903C28.3132 30.3936 28.8979 31.1639 27.773 31.5897C27.7824 31.3682 27.7464 31.0489 27.2767 31.0489C26.8092 31.0496 26.0828 31.0481 26.0828 31.0481ZM23.6805 17.0579C23.6373 16.6501 23.8408 15.4813 24.6737 15.0914C23.8408 14.7016 23.61 13.4789 23.6805 13.1408L22.5117 12.3345C22.4733 12.2961 22.4277 12.2657 22.3775 12.2449C22.3274 12.2241 22.2736 12.2134 22.2193 12.2134C22.165 12.2134 22.1112 12.2241 22.061 12.2449C22.0109 12.2657 21.9653 12.2961 21.9269 12.3345C21.8885 12.3729 21.8581 12.4185 21.8373 12.4687C21.8165 12.5188 21.8058 12.5726 21.8058 12.6269C21.8058 12.6812 21.8165 12.735 21.8373 12.7851C21.8581 12.8353 21.8885 12.8809 21.9269 12.9193L22.68 13.4422C23.0466 13.6868 22.9832 14.0866 22.9304 14.4204L22.9281 14.4348C22.8756 14.7721 22.5203 14.6124 22.4138 14.488C22.2911 14.3654 22.1347 14.282 21.9646 14.2482C21.7944 14.2145 21.6181 14.2319 21.4578 14.2983C21.2976 14.3648 21.1606 14.4772 21.0642 14.6214C20.9679 14.7657 20.9164 14.9352 20.9163 15.1087C20.9163 15.5935 21.3091 15.9689 21.7938 15.9689C22.0362 15.9689 22.2556 15.8704 22.4138 15.7114C22.521 15.587 22.8756 15.428 22.9281 15.7647L22.9304 15.7793C22.9833 16.113 23.0465 16.5119 22.68 16.7565L21.9269 17.2801C21.886 17.3179 21.8531 17.3636 21.8302 17.4144C21.8074 17.4653 21.795 17.5202 21.7939 17.5759C21.7928 17.6316 21.803 17.687 21.8238 17.7387C21.8446 17.7903 21.8757 17.8373 21.9151 17.8767C21.9546 17.916 22.0015 17.9471 22.0533 17.9678C22.105 17.9886 22.1603 17.9987 22.2161 17.9975C22.2718 17.9964 22.3267 17.9839 22.3775 17.961C22.4283 17.9381 22.4739 17.9052 22.5117 17.8642L23.6805 17.0579Z" fill="#A09C9C"/>
</svg>
