<svg width="57" height="40" viewBox="0 0 57 40" fill="none" xmlns="http://www.w3.org/2000/svg">
<path d="M28.352 40C37.5695 40 45.7497 36.7789 50.8179 31.8198L46.2501 31.838C41.9371 35.4686 35.6223 37.7525 28.4703 37.7525C15.1218 37.7525 4.71237 29.7998 4.71237 19.9909C4.71237 8.67153 15.1309 2.22931 28.4703 2.22931C29.3165 2.22931 29.999 2.62057 29.4894 3.3576C26.7142 6.697 18.8161 17.4431 17.3784 19.7725C14.5395 24.3585 14.6032 30.0091 21.564 30.4095H50.827C52.3193 30.4095 52.7014 29.7088 53.2383 28.9809C55.1946 26.333 56.1955 23.2302 56.1864 20C56.1773 11.5651 50.2447 5.25023 41.5186 2.13831L40.1719 4.15833C47.4239 6.83349 52.2192 12.2475 52.2192 20C52.2192 21.3467 52.019 22.657 51.6459 23.9217C51.3184 25.0137 50.6905 25.9418 49.4894 25.9418H26.1409C23.1473 25.9418 24.3029 22.8571 25.413 21.3558C27.0236 18.4713 35.8225 6.47862 37.9426 4.24022C38.4794 3.4213 39.999 1.71975 37.9062 1.07371C34.9307 0.363975 31.7096 7.85385e-06 28.352 7.85385e-06C12.9744 -0.00909133 0.517649 7.889 0.50855 19.9909C0.499451 32.2111 12.9744 40 28.352 40Z" fill="#A09C9C"/>
</svg>
