<svg width="41" height="41" viewBox="0 0 41 41" fill="none" xmlns="http://www.w3.org/2000/svg">
<path d="M20.5645 8.98275L24.6895 3.93941C24.6895 3.93941 31.7645 4.08941 38.8078 7.36275C37.0045 10.0894 33.4228 11.4261 33.4228 11.4261C33.1795 9.02775 31.4995 8.44275 26.1661 8.44275L20.5645 40.0461L14.9295 8.43608C9.62945 8.43608 7.94945 9.02608 7.70445 11.4227C7.70445 11.4227 4.12779 10.0977 2.32279 7.37275C9.36445 4.09775 16.4395 3.94608 16.4395 3.94608L20.5645 8.98275L20.5578 8.98608H20.5645V8.98275ZM20.5645 2.48441C26.2561 2.43441 32.7745 3.36441 39.4445 6.28441C40.3361 4.67108 40.5645 3.95941 40.5645 3.95941C33.2728 1.06608 26.4445 0.0710815 20.5645 0.0460815C14.6845 0.0710815 7.85612 1.06275 0.564453 3.96108C0.564453 3.96108 0.889453 4.83608 1.68445 6.28775C8.35445 3.36108 14.8728 2.43775 20.5645 2.47941V2.48441Z" fill="#A09C9C"/>
</svg>
