<svg width="100" height="40" viewBox="0 0 100 40" fill="none" xmlns="http://www.w3.org/2000/svg">
<g clip-path="url(#clip0_413_209)">
<path d="M83.0399 21.3537C82.9593 25.8039 83.9204 28.1611 87.5889 28.1611C91.2514 28.1611 91.777 24.1458 91.777 21.0902C91.777 18.0327 91.082 15.0645 87.2341 15.0645C84.8735 15.0645 83.1306 16.8988 83.0399 21.3537ZM75.6182 39.9504V9.82653H83.1306C83.1306 9.82653 83.1306 10.2627 83.1306 11.0485C83.1306 12.6784 83.788 12.0063 84.3176 11.3711C84.4064 11.2649 86.0807 9.21556 89.8514 9.21556C93.6106 9.21556 99.4589 11.8342 99.4589 21.0902C99.4589 28.2498 95.9698 33.4878 89.9441 33.4878C86.6237 33.4878 84.7041 32.1805 84.2652 31.6529C83.8256 31.1326 83.2153 31.0419 83.2153 31.6529C83.2153 32.2652 83.2153 39.9504 83.2153 39.9504H75.6182Z" fill="#A09C9C"/>
<path d="M17.5536 0.0496251H25.6744C25.6744 0.0496251 25.6744 17.6852 25.6744 21.3537C25.6744 25.0182 24.1009 32.7041 12.8392 32.7041C1.5762 32.7041 0.354248 25.5405 0.354248 21.5271V17.5985H8.21288C8.21288 17.5985 8.21288 19.0826 8.21288 21.4384C8.21288 23.7956 9.78501 25.9773 12.7518 25.9773C15.72 25.9773 17.5536 24.3192 17.5536 21.5271C17.5536 18.733 17.5536 0.0496251 17.5536 0.0496251Z" fill="#A09C9C"/>
<path d="M42.6573 18.1221C42.6573 15.9369 41.4373 13.8419 38.6432 13.8419C35.9365 13.8419 34.9754 15.7608 34.9754 18.1221H42.6573ZM37.8602 8.95342C44.2375 8.95342 49.8229 11.3973 49.8229 22.661H34.7193C34.7193 26.2408 36.202 27.7256 38.8214 27.7256C41.4414 27.7256 42.3138 25.6285 42.3138 25.6285H49.7376C49.7376 28.8601 45.284 33.2257 38.5592 33.139C30.878 33.139 27.1228 27.4634 27.1228 21.6131C27.1228 15.7608 30.4385 8.95342 37.8602 8.95342Z" fill="#A09C9C"/>
<path d="M66.8026 18.1221C66.8026 15.9369 65.5813 13.8419 62.7872 13.8419C60.0819 13.8419 59.1187 15.7608 59.1187 18.1221H66.8026ZM62.0055 8.95342C68.3821 8.95342 73.9662 11.3973 73.9662 22.661H58.8633C58.8633 26.2408 60.3474 27.7256 62.9687 27.7256C65.586 27.7256 66.4598 25.6285 66.4598 25.6285H73.8836C73.8836 28.8601 69.4293 33.2257 62.7066 33.139C55.0213 33.139 51.2661 27.4634 51.2661 21.6131C51.2661 15.7608 54.5858 8.95342 62.0055 8.95342Z" fill="#A09C9C"/>
<path d="M94.4866 36.339C94.4866 35.146 95.4578 34.1767 96.6549 34.1767C97.848 34.1767 98.8172 35.146 98.8172 36.339C98.8172 37.53 97.848 38.5053 96.6549 38.5053C95.4578 38.5053 94.4866 37.53 94.4866 36.339ZM94.2366 36.339C94.2366 37.6739 95.3174 38.7574 96.6549 38.7574C97.9837 38.7574 99.0706 37.6739 99.0706 36.339C99.0706 35.0041 97.9837 33.9206 96.6549 33.9206C95.3174 33.9206 94.2366 35.0041 94.2366 36.339Z" fill="#A09C9C"/>
<path d="M97.6234 37.5757L97.1213 36.3901C97.2806 36.335 97.3337 36.296 97.4184 36.2053C97.5286 36.087 97.5979 35.9001 97.5979 35.7307C97.5979 35.3032 97.2692 35.0122 96.7926 35.0122H95.7844V37.5757H96.0835V36.4654H96.8121L97.2907 37.5757H97.6234ZM96.0755 36.2053V35.2911H96.7866C97.0837 35.2911 97.2725 35.4605 97.2725 35.7227C97.2725 36.0204 97.0722 36.2053 96.7449 36.2053H96.0755Z" fill="#A09C9C"/>
</g>
<defs>
<clipPath id="clip0_413_209">
<rect width="99.2039" height="40" fill="white" transform="translate(0.304688)"/>
</clipPath>
</defs>
</svg>
