<svg width="115" height="40" viewBox="0 0 115 40" fill="none" xmlns="http://www.w3.org/2000/svg">
<path d="M93.8923 0C89.3762 0 85.1827 1.48387 81.7633 4.00001C78.3439 1.48387 74.1504 0 69.6343 0C65.1181 0 60.9246 1.48387 57.5052 4.00001C54.0859 1.48387 49.9569 0 45.3762 0C40.8601 0 36.6665 1.48387 33.2472 4.00001C29.8924 1.48387 25.6988 0 21.1181 0C9.95687 0 0.860107 8.96774 0.860107 20C0.860107 31.0323 9.95687 40 21.1181 40C25.6343 40 29.8278 38.5161 33.2472 36C36.6665 38.5161 40.8601 40 45.3762 40C49.8923 40 54.0859 38.5161 57.5052 36C60.8601 38.5161 65.0536 40 69.6343 40C74.1504 40 78.3439 38.5161 81.7633 36C85.1181 38.5161 89.3117 40 93.8923 40C105.054 40 114.15 31.0323 114.15 20C114.15 8.96774 105.054 0 93.8923 0ZM81.7633 30.3226C79.3117 27.5484 77.8278 23.9355 77.8278 20C77.8278 16.0645 79.3117 12.4516 81.7633 9.67742C84.2149 12.4516 85.6988 16.0645 85.6988 20C85.6988 23.9355 84.2149 27.5484 81.7633 30.3226ZM57.5052 30.3226C55.0536 27.5484 53.5697 23.9355 53.5697 20C53.5697 16.0645 55.0536 12.4516 57.5052 9.67742C59.9569 12.4516 61.4407 16.0645 61.4407 20C61.4407 23.9355 59.9569 27.5484 57.5052 30.3226ZM33.2472 30.3226C30.7956 27.5484 29.3117 23.9355 29.3117 20C29.3117 16.0645 30.7956 12.4516 33.2472 9.67742C35.6988 12.4516 37.1827 16.0645 37.1827 20C37.2473 23.9355 35.6988 27.5484 33.2472 30.3226ZM5.05365 20C5.05365 11.2903 12.2794 4.19354 21.1181 4.19354C24.4085 4.19354 27.5053 5.1613 30.0859 6.90322C26.9891 10.3871 25.1182 14.9677 25.1182 20C25.1182 25.0322 26.9891 29.6129 30.0859 33.0968C27.5053 34.7742 24.473 35.8064 21.1181 35.8064C12.2794 35.8064 5.05365 28.7097 5.05365 20ZM36.4085 33.0968C39.5052 29.6129 41.3762 25.0322 41.3762 20C41.3762 14.9677 39.5052 10.3871 36.4085 6.90322C38.9891 5.22579 42.0214 4.19354 45.3762 4.19354C48.7311 4.19354 51.7633 5.1613 54.3439 6.90322C51.2472 10.3871 49.3117 14.9677 49.3117 20C49.3117 25.0322 51.1827 29.6129 54.3439 33.0968C51.7633 34.7742 48.7311 35.8064 45.3762 35.8064C42.0859 35.8064 38.9891 34.7742 36.4085 33.0968ZM60.6665 33.0968C63.7633 29.6129 65.6988 25.0322 65.6988 20C65.6988 14.9677 63.8278 10.3871 60.6665 6.90322C63.2472 5.22579 66.2794 4.19354 69.6343 4.19354C72.9891 4.19354 76.0213 5.1613 78.602 6.90322C75.5052 10.3871 73.5698 14.9677 73.5698 20C73.5698 25.0322 75.4407 29.6129 78.602 33.0968C76.0213 34.7742 72.9891 35.8064 69.6343 35.8064C66.2794 35.8064 63.2472 34.7742 60.6665 33.0968ZM93.8923 35.8064C90.602 35.8064 87.5052 34.8387 84.9246 33.0968C88.0213 29.6129 89.9568 25.0322 89.9568 20C89.9568 14.9677 88.0859 10.3871 84.9246 6.90322C87.5052 5.22579 90.5375 4.19354 93.8923 4.19354C102.731 4.19354 109.957 11.2903 109.957 20C109.957 28.7097 102.731 35.8064 93.8923 35.8064Z" fill="#A09C9C"/>
</svg>
