<svg width="31" height="40" viewBox="0 0 31 40" fill="none" xmlns="http://www.w3.org/2000/svg">
<path fill-rule="evenodd" clip-rule="evenodd" d="M1 34.26V2.59C1 2.59 1.11 0.820002 0.17 0.220002V1.54618e-06H12.37C13.4329 -0.000438992 14.4937 0.0932604 15.54 0.280002C17.0843 0.553719 18.5222 1.25135 19.6929 2.29498C20.8637 3.33861 21.7213 4.68715 22.17 6.19C22.6423 7.7299 22.749 9.3587 22.4816 10.947C22.2143 12.5354 21.5803 14.0395 20.63 15.34C19.7103 16.5272 18.63 17.5806 17.42 18.47C17.15 18.66 16.99 18.76 16.71 18.94C18.3246 21.3791 19.6375 24.0049 20.62 26.76C21.458 29.1654 22.0903 31.6376 22.51 34.15C22.77 36.23 23.39 36.44 23.51 36.48V36.71H16.21V36.48C16.43 36.36 18.41 35.48 18.42 32.41C18.3371 29.8127 17.8095 27.2489 16.86 24.83C16.2613 23.1732 15.5496 21.5594 14.73 20C13.3238 20.5657 11.8673 20.9976 10.38 21.29C9.43 21.47 8.47 21.62 7.28 21.75C6.09 21.88 5.28 21.94 4.63 21.98V34.28C4.63 34.55 4.7 36 5.63 36.5V36.73H0V36.5C0.91 36.02 1 34.55 1 34.28M12.53 2.08H4.6V19.7C6.31744 19.6072 8.02196 19.3493 9.69 18.93C15.47 17.22 18.23 13.19 18.27 8.44C18.27 5.68 17.27 3.99 16.27 3.09C15.6215 2.59084 14.8518 2.2733 14.04 2.17C13.553 2.10229 13.0616 2.0722 12.57 2.08M11.77 21.52V23.38C13.0315 23.3032 14.2872 23.1496 15.53 22.92C15.87 23.7 16.17 24.44 16.38 25.01V25.09C15.75 25.2 15.08 25.29 14.38 25.37C13.38 25.49 12.38 25.55 11.79 25.59V37.59C11.79 37.85 11.85 39.27 12.79 39.76V40H7.26V39.78C8.15 39.31 8.26 37.87 8.26 37.61V22.16C9.44696 22.008 10.6252 21.7944 11.79 21.52M19.06 21.76C20.8891 20.9637 22.4436 19.647 23.53 17.9738C24.6164 16.3006 25.1868 14.3449 25.17 12.35C25.17 9.64 24.24 8 23.17 7.1L22.98 7C22.9 6.68 22.82 6.37 22.72 6.07C22.5167 5.46299 22.2624 4.87423 21.96 4.31C22.15 4.31 22.33 4.37 22.5 4.4C24.0134 4.67126 25.4223 5.35558 26.5711 6.37736C27.72 7.39914 28.564 8.71861 29.01 10.19C29.4768 11.7041 29.5833 13.3063 29.3212 14.8689C29.059 16.4315 28.4354 17.9112 27.5 19.19C26.5969 20.3511 25.5367 21.3809 24.35 22.25C24.09 22.44 23.93 22.54 23.66 22.72C25.2408 25.1081 26.5237 27.6805 27.48 30.38C28.3001 32.7382 28.9256 35.1596 29.35 37.62C29.59 39.62 30.2 39.82 30.35 39.86V40H23.17V39.78C23.39 39.67 25.33 38.87 25.34 35.84C25.2673 33.294 24.7529 30.78 23.82 28.41C23.2123 26.7925 22.5008 25.2159 21.69 23.69C21.33 23.85 20.81 24.03 20.24 24.22C19.87 23.36 19.49 22.58 19.06 21.79M17.44 6.11H11.77V17.55C11.0459 17.8895 10.2971 18.1737 9.53 18.4C9.10561 18.5254 8.67504 18.6289 8.24 18.71V6.61C8.24 6.61 8.34 4.88 7.37 4.29V4.07H16.44C16.9075 4.6607 17.2479 5.34159 17.44 6.07" fill="#A09C9C"/>
</svg>
