<svg width="40" height="41" viewBox="0 0 40 41" fill="none" xmlns="http://www.w3.org/2000/svg">
<path d="M20 38.2061C10.04 38.2061 1.88 30.0061 1.88 20.0461C1.88 17.8061 2.28 15.6861 3.04 13.6861L13.64 35.0061C13.76 35.2861 13.96 35.5261 14.28 35.5261C14.6 35.5261 14.8 35.2861 14.92 35.0061L19.8 24.0861C19.84 23.9661 19.92 23.8461 20.04 23.8461C20.16 23.8461 20.2 23.9661 20.28 24.0861L25.16 35.0061C25.28 35.2861 25.48 35.5261 25.8 35.5261C26.12 35.5261 26.32 35.2861 26.44 35.0061L37.04 13.6861C37.8 15.6861 38.2 17.8061 38.2 20.0461C38.12 30.0061 29.96 38.2061 20 38.2061ZM20 15.9261C19.88 15.9261 19.84 15.8061 19.76 15.6861L14.08 2.88608C15.92 2.20608 17.92 1.84608 20 1.84608C22.08 1.84608 24.08 2.20608 25.92 2.88608L20.24 15.6861C20.16 15.8461 20.12 15.9261 20 15.9261ZM14.2 29.0861C14.08 29.0861 14.04 28.9661 13.96 28.8461L4.76 10.2861C6.4 7.76608 8.6 5.64608 11.28 4.16608L17.92 18.9261C18 19.1661 18.2 19.2461 18.4 19.2461H21.6C21.84 19.2461 22 19.2061 22.12 18.9261L28.76 4.16608C31.4 5.64608 33.64 7.76608 35.28 10.2861L26 28.8461C25.96 28.9661 25.88 29.0861 25.76 29.0861C25.64 29.0861 25.6 28.9661 25.52 28.8461L22.04 20.9261C21.92 20.6461 21.76 20.6061 21.52 20.6061H18.32C18.08 20.6061 17.92 20.6461 17.8 20.9261L14.44 28.8461C14.4 28.9661 14.32 29.0861 14.2 29.0861ZM20 40.0461C31.08 40.0461 40 31.1261 40 20.0461C40 8.96608 31.08 0.0460815 20 0.0460815C8.92 0.0460815 0 8.96608 0 20.0461C0 31.1261 8.92 40.0461 20 40.0461Z" fill="#A09C9C"/>
</svg>
