<svg width="50" height="40" viewBox="0 0 50 40" fill="none" xmlns="http://www.w3.org/2000/svg">
<path d="M48.9648 9.4925C48.2908 2.89855 43.9051 1.51175 40.0458 0.878783C38.108 0.551032 34.6584 0.266298 32.4338 0.18436C30.496 0.0614532 25.9443 0 24.578 0C23.2301 0 18.658 0.0614532 16.7202 0.18436C14.5161 0.266298 11.046 0.55308 9.10816 0.878783C5.25094 1.53224 0.861118 2.91699 0.189227 9.49045C0.0253517 11.2869 -0.0156173 13.6345 0.00486719 16.1438C0.0663206 20.3062 0.414556 23.1229 0.619401 25.0832C0.760744 26.429 1.31178 30.4501 2.02668 32.5314C3.00584 35.3889 3.90306 36.2247 4.94367 37.083C6.86306 38.6337 10.0054 39.1233 10.6588 39.2462C14.2088 39.8791 21.3927 40 24.5575 40C27.7203 40 34.9022 39.8976 38.4542 39.2462C39.1281 39.1233 42.2704 38.6521 44.1694 37.083C45.21 36.2247 46.1072 35.3889 47.0863 32.5314C47.8033 30.4501 48.3728 26.429 48.5162 25.0832C48.721 23.1229 49.0877 20.3062 49.1286 16.1438C49.2106 13.6345 49.1491 11.289 48.9648 9.4925ZM46.5558 20.5521C46.1686 25.8166 45.6995 28.9609 45.0256 31.2449C44.4336 33.2463 43.7207 34.5716 42.6392 35.5323C40.8632 37.1445 38.4132 37.4907 36.9855 37.6955C33.8841 38.1646 28.679 38.308 24.578 38.308C20.475 38.308 15.2699 38.1441 12.1685 37.6934C10.7408 37.4907 8.29083 37.1445 6.51483 35.5323C5.45373 34.5716 4.72039 33.2258 4.14887 31.2449C3.47493 28.9814 3.00584 25.8166 2.61868 20.5521C2.39335 17.3893 2.43432 12.2456 2.78256 9.49045C3.31106 5.36898 5.35336 3.30619 9.72065 2.53188C11.7609 2.16316 14.514 1.89891 17.1073 1.776C19.1886 1.63261 22.6381 1.57116 24.5575 1.59164C26.4749 1.57116 29.9245 1.6531 32.0057 1.776C34.6175 1.89891 37.3521 2.16521 39.3924 2.53188C43.7802 3.30619 45.8225 5.38946 46.3325 9.49045C46.7402 12.2456 46.8016 17.3893 46.5578 20.5521M35.9018 3.36764C34.7793 8.40887 34.3307 10.7154 33.4109 14.3678C32.5342 17.8788 31.8398 21.1236 30.6762 22.6947C29.4738 24.2864 27.8801 24.6346 26.7985 24.7555C26.227 24.8169 25.8194 24.8374 24.6149 24.8579C23.392 24.8579 22.9823 24.8169 22.4108 24.7555C21.3292 24.6326 19.7171 24.2864 18.5351 22.6947C17.3511 21.1236 16.6772 17.8788 15.8004 14.3678C14.8397 10.7359 14.4116 8.40887 13.2686 3.36764C13.2686 3.36764 12.146 3.40861 11.6359 3.44958C10.962 3.49055 10.4315 3.55201 9.85994 3.63394C9.85994 3.63394 10.5154 14.0011 10.8002 18.3889C11.1074 23.002 11.6564 30.7963 12.1665 36.6754C12.1665 36.6754 13.1047 36.8188 14.6779 36.9212C16.331 37.0216 17.0643 37.0216 17.0643 37.0216C17.7383 34.4303 18.5945 30.8373 19.5347 29.3071C20.3091 28.0617 21.5135 27.9203 22.1875 27.8384C23.2486 27.695 24.1458 27.6745 24.576 27.6745C24.9836 27.654 25.8808 27.6745 26.9624 27.8384C27.6364 27.9408 28.8408 28.0637 29.6151 29.3071C30.5759 30.8373 31.4116 34.4282 32.0856 37.0216C32.0856 37.0216 32.8189 37.0011 34.472 36.9191C35.313 36.8827 36.1513 36.8007 36.9834 36.6733C37.4935 30.7963 38.0445 23.0204 38.3497 18.3889C38.6365 14.0011 39.29 3.63394 39.29 3.63394C38.7164 3.55201 38.1879 3.49055 37.514 3.44958C37.0428 3.40861 35.9018 3.36764 35.9018 3.36764Z" fill="#A09C9C"/>
</svg>
