<svg width="70" height="40" viewBox="0 0 70 40" fill="none" xmlns="http://www.w3.org/2000/svg">
<path d="M34.8527 0C43.4147 0 52.5924 1.74434 59.8947 6.38165C64.6403 9.41428 69.0553 14.0145 69.0553 20.0057C69.0553 27.0058 63.0784 32.0963 57.3523 35.0748C50.5374 38.6034 42.4856 40 34.8527 40C26.2935 40 17.1329 38.2756 9.82774 33.6212C5.08497 30.5857 0.650024 25.9883 0.650024 20.0086C0.650024 12.9771 6.61269 7.90651 12.353 4.92233C19.1879 1.39946 27.2226 0 34.8527 0ZM34.7814 2.12627C26.8208 2.12627 18.2444 3.61693 11.3384 7.77825C6.99462 10.3777 2.70218 14.4677 2.70218 19.9002C2.70218 26.2819 8.51663 30.7482 13.7154 33.3134C20.1512 36.4543 27.673 37.6742 34.7814 37.6742C42.7563 37.6742 51.3384 36.1836 58.2444 32.0222C62.5682 29.4057 66.8778 25.3356 66.8778 19.9002C66.8778 13.5072 61.0776 9.03235 55.8645 6.48995C49.4287 3.34331 41.9041 2.12627 34.7814 2.12627ZM4.74009 15.4824L17.8426 13.2478L21.7873 4.68861L25.7149 13.245L38.8145 15.4795L25.7149 17.7369L21.7873 26.3161L17.8426 17.7369L4.74009 15.4824ZM33.5444 22.0066L39.3247 20.9919L41.0491 17.1184L42.7763 20.9919L48.5565 22.0066L42.7763 23.0041L41.0491 26.8804L39.3247 23.0041L33.5444 22.0066ZM45.504 11.6859L51.2842 10.6883L53.0086 6.79778L54.7358 10.6855L60.5161 11.6831L54.7358 12.7006L53.0086 16.5769L51.2813 12.7006L45.504 11.6859ZM39.3275 30.0043L45.085 29.0067L46.8151 25.1161L48.5594 29.0067L54.3368 30.0043L48.5594 31.0218L46.8151 34.8981L45.0878 31.0218L39.3275 30.0043ZM21.5706 31.4037L27.3509 30.4062L29.0952 26.5128L30.8196 30.4062L36.5999 31.4037L30.8196 32.4213L29.0952 36.2947L27.3509 32.4213L21.5706 31.4037ZM50.6315 21.8469L56.3946 20.8294L58.119 16.956L59.8634 20.8294L65.6436 21.8469L59.8634 22.8445L58.119 26.7123L56.3918 22.8445L50.6315 21.8469Z" fill="#A09C9C"/>
</svg>
