<svg width="36" height="40" viewBox="0 0 36 40" fill="none" xmlns="http://www.w3.org/2000/svg">
<path d="M17.4449 9.28443e-05C15.3764 0.0144782 13.3106 0.150826 11.2582 0.408426L10.8049 0.470093L10.2415 0.546759C10.1199 0.561759 9.94153 0.590093 9.8482 0.610093C9.73434 0.633323 9.61985 0.653332 9.50487 0.670093C9.35724 0.691422 9.21 0.715315 9.0632 0.741759L8.62153 0.821759C8.29987 0.878426 7.34987 1.07176 6.86987 1.18009C5.09653 1.57676 3.1282 2.17009 2.31987 2.55343C1.7482 2.82509 1.0332 3.39676 0.769868 3.79176C0.52826 4.18847 0.365821 4.62824 0.291535 5.08676C0.243201 5.35009 0.238201 5.47009 0.234868 6.47342C0.229868 7.68676 0.249868 8.51176 0.308201 9.58176C0.584868 14.6134 1.4682 18.8151 3.1182 22.9151C4.22177 25.7695 5.6985 28.4651 7.50987 30.9318C9.17653 33.2034 11.0432 35.2184 13.1682 37.0484C14.4499 38.1484 16.0632 39.3901 16.6282 39.7067C17.2715 40.0684 17.9949 40.0967 18.6115 39.7851C19.1115 39.5301 20.9149 38.1618 22.1332 37.1118C24.0311 35.4601 25.7714 33.6356 27.3315 31.6618C28.1815 30.5868 29.8999 27.9051 30.6265 26.5201C33.3299 21.3701 34.8749 15.0484 35.0449 8.50009C35.0949 7.43009 35.1199 6.46009 35.0949 5.95176C35.0889 5.82485 35.0795 5.69814 35.0665 5.57176L35.0682 4.91009L34.7932 4.33843C34.6408 4.00329 34.4239 3.70144 34.1549 3.45009C33.8282 3.10843 33.5349 2.91509 32.8499 2.58509C31.1882 1.78509 28.9532 1.15509 26.2532 0.721759C25.3949 0.575129 24.5323 0.455072 23.6665 0.361759L22.9932 0.281759C22.766 0.255106 22.5382 0.234543 22.3099 0.220093C21.2072 0.127137 20.1024 0.0604519 18.9965 0.0200928C18.4795 0.0027348 17.9622 -0.00337775 17.4449 0.00175951V9.28443e-05ZM17.7232 1.38343C23.2899 1.37176 27.9365 2.11009 31.7215 3.60343C33.1215 4.15343 33.3715 4.32509 33.6549 4.92343C33.8682 5.37343 33.8715 5.44009 33.8115 7.74176C33.4832 20.3918 29.1449 29.7734 20.2899 36.9768C19.2165 37.8518 18.0965 38.6484 17.8165 38.7368C17.6782 38.7801 17.4249 38.6818 17.0115 38.4251C16.1915 37.9168 14.1482 36.2534 12.7782 34.9784C10.5249 32.8868 8.26653 30.0834 6.7282 27.4684C3.44487 21.8951 1.73987 15.3951 1.5382 7.69176C1.47987 5.44176 1.48487 5.37176 1.6982 4.92176C1.98153 4.32676 2.23487 4.15176 3.58153 3.62676C7.2982 2.17176 11.2232 1.50009 16.5982 1.39509C16.9782 1.38843 17.3532 1.38343 17.7232 1.38343ZM16.1549 2.56343L16.0799 2.56843C15.7465 2.60843 15.3332 2.91176 15.1349 3.27176C14.6799 4.09676 14.7682 5.92509 15.2949 6.56176C15.4999 6.81176 15.6082 6.85509 15.9965 6.85509C16.2549 6.85509 16.5532 6.78842 16.6749 6.70009C16.7965 6.61342 16.9915 6.35509 17.1082 6.12509C17.4149 5.52509 17.4215 4.01676 17.1199 3.34509C16.9265 2.91676 16.5649 2.60676 16.2232 2.56843L16.1865 2.56509H16.1532L16.1549 2.56343ZM17.9782 2.66343L17.9499 4.71843C17.9378 5.37613 17.9322 6.03394 17.9332 6.69176C17.9412 6.72604 17.9524 6.75951 17.9665 6.79176C18.0082 6.80009 18.1149 6.80676 18.2549 6.80676H18.5582V5.92509C18.5582 5.08176 18.5665 5.04676 18.7682 5.07676C18.9349 5.10176 19.0382 5.28676 19.2799 5.98176L19.5832 6.85509H20.3165L19.9932 5.91509L19.6715 4.97343L19.9349 4.72176C20.2565 4.41176 20.3565 3.96176 20.2182 3.44343C20.0665 2.86509 19.6815 2.66509 18.7332 2.66343H17.9782ZM21.9382 2.76343C21.0965 2.76343 20.7165 3.40176 20.7215 4.81009C20.7215 5.74009 20.8615 6.32676 21.1615 6.66509C21.5082 7.05342 22.2615 7.12176 22.7365 6.80509C22.9932 6.63509 23.1565 6.11176 23.1615 5.45843C23.1615 5.28509 23.1549 5.14842 23.1315 5.05176C23.0765 4.89509 22.9149 4.87509 22.4532 4.83009L22.0615 4.79176C21.9932 4.83176 21.9882 4.92509 21.9882 5.13176V5.19843L21.9899 5.22843C21.9999 5.42509 22.0482 5.45843 22.2332 5.45843C22.4299 5.45843 22.4765 5.50842 22.4765 5.71509C22.4765 6.30676 22.0099 6.56842 21.6599 6.17509C21.1799 5.63509 21.2882 3.57509 21.8049 3.40843C22.0215 3.33843 22.3799 3.60009 22.3799 3.82676C22.3799 3.91343 22.4999 3.96009 22.7215 3.96009C23.1115 3.96009 23.1549 3.82843 22.9182 3.36343C22.8354 3.17553 22.6972 3.01739 22.522 2.91017C22.3469 2.80295 22.1432 2.75175 21.9382 2.76343ZM13.2732 2.82676C13.0912 2.82171 12.9091 2.8295 12.7282 2.85009L12.1399 2.91343L12.1132 4.99509L12.0865 7.07676L12.7999 7.00676C13.1915 6.96676 13.6165 6.88342 13.7482 6.82176C14.1499 6.62509 14.3782 6.21176 14.3865 5.66342C14.3915 5.28009 14.3449 5.11509 14.1815 4.94843C13.9715 4.73509 13.9715 4.73176 14.1565 4.42176C14.2666 4.24945 14.3284 4.05074 14.3354 3.8464C14.3425 3.64205 14.2945 3.43956 14.1965 3.26009C14.0582 2.98843 13.7582 2.84509 13.2732 2.82676ZM23.7515 2.95009V7.13342L24.0932 7.17342L24.4365 7.21509V6.28676C24.4365 5.25843 24.4049 5.29676 25.1482 5.42176L25.5149 5.48509V6.41176C25.5149 7.21176 25.5382 7.34676 25.6865 7.38676C26.1199 7.50176 26.1082 7.55342 26.0799 5.38343L26.0532 3.31176L25.7849 3.28009L25.5149 3.24843V4.86176L25.0982 4.80176C24.4149 4.70509 24.4365 4.73509 24.4365 3.86509C24.4365 3.29009 24.4032 3.06176 24.3149 3.06176C24.1986 3.0528 24.0836 3.03214 23.9715 3.00009L23.8115 2.95509L23.7515 2.95009ZM11.4049 3.00343L11.0715 3.04343C10.7432 3.08176 10.7315 3.10009 10.4765 3.94509C10.3349 4.42009 10.1599 4.98843 10.0899 5.20843L9.96153 5.60842L9.6432 4.56009C9.4682 3.98343 9.28987 3.47343 9.24653 3.42676C9.20487 3.38009 9.0332 3.37176 8.86653 3.41009L8.5632 3.47676V5.51676C8.5632 7.45842 8.57153 7.55509 8.75153 7.55509C8.859 7.55447 8.96577 7.53762 9.0682 7.50509C9.16487 7.46676 9.19153 7.27176 9.1682 6.77676C9.15059 6.41975 9.15059 6.0621 9.1682 5.70509C9.1982 5.33843 9.2282 5.39176 9.58153 6.44842L9.9632 7.59009L10.3165 6.31009L10.6699 5.03176L10.6849 5.63176C10.7101 5.70724 10.7118 5.7886 10.6899 5.86509L10.6982 6.15342C10.7215 7.11676 10.7482 7.26509 10.8765 7.21509C10.9861 7.17764 11.1008 7.1574 11.2165 7.15509C11.3965 7.15509 11.4049 7.05842 11.4049 5.07842V3.00343ZM18.5582 3.23676L18.9715 3.29176C19.5582 3.37343 19.8049 3.78509 19.5132 4.19343C19.3799 4.37676 18.7532 4.52676 18.6299 4.40176C18.5915 4.36176 18.5582 4.08176 18.5582 3.78176V3.23676ZM16.1215 3.27843C16.2599 3.28509 16.3932 3.39509 16.4999 3.61176C16.7199 4.05843 16.7032 5.62842 16.4732 5.98676C16.2515 6.33176 15.9649 6.33176 15.7432 5.98676C15.6165 5.79009 15.5599 5.47176 15.5399 4.81509C15.5149 4.04176 15.5399 3.86343 15.7149 3.58176C15.8415 3.37343 15.9832 3.27343 16.1215 3.27843ZM12.7765 3.46176H13.0999C13.4915 3.46176 13.6582 3.61176 13.6582 3.96843C13.6582 4.28509 13.5249 4.41009 13.0949 4.49343L12.7782 4.55509V4.00843L12.7765 3.46176ZM26.9382 3.47009C26.9182 3.47863 26.9005 3.49176 26.8865 3.50843V7.64176L27.1565 7.68342C27.3049 7.70509 27.4582 7.73176 27.4999 7.73842C27.5399 7.74676 27.5732 6.83676 27.5732 5.71342C27.5732 4.59176 27.5399 3.65509 27.4999 3.63009C27.3887 3.58461 27.2739 3.54892 27.1565 3.52343L26.9382 3.47009ZM6.9732 3.83343C6.89589 3.83968 6.8194 3.85364 6.74487 3.87509C6.44487 3.95843 6.44153 3.97176 6.0782 5.58342C5.8782 6.47676 5.65153 7.46676 5.5782 7.78676L5.4432 8.36676L5.7532 8.30009C5.88042 8.27582 6.00532 8.24069 6.12653 8.19509C6.15987 8.17509 6.2182 7.91176 6.25653 7.60842C6.33153 6.99176 6.32487 7.00176 6.8132 6.90842L7.1682 6.84009L7.28487 7.34342C7.40153 7.83676 7.41153 7.84509 7.71487 7.78676C7.8348 7.76869 7.95225 7.73681 8.06487 7.69176C8.11487 7.65009 7.18487 3.93676 7.1032 3.85176C7.08653 3.83509 7.0382 3.82843 6.9732 3.83343ZM28.2582 3.86343V5.90676C28.2582 7.47676 28.2865 7.95342 28.3815 7.95509C28.4482 7.95509 28.6015 7.98342 28.7215 8.01676C28.9349 8.07509 28.9382 8.06009 28.9665 6.86009L28.9932 5.64342L29.5299 7.00509C29.8232 7.75509 30.1332 8.40842 30.2149 8.45676C30.6049 8.69009 30.6149 8.63342 30.5882 6.49009L30.5615 4.42343L30.2915 4.35176L30.0215 4.27843V5.39176C30.0182 6.67009 30.0082 6.66509 29.4215 5.15843C28.9915 4.05509 28.8532 3.86176 28.4849 3.86176L28.2582 3.86343ZM3.92487 4.76176C3.90487 4.76176 3.74987 4.81176 3.57987 4.87009L3.27153 4.98009V5.49676L3.29987 7.14342C3.3132 7.92676 3.3332 8.55176 3.37653 9.11342C3.39487 9.12009 3.41653 9.11676 3.4432 9.10509C3.5382 9.06676 3.9782 8.90176 4.4232 8.73509C5.1832 8.45342 5.23153 8.41842 5.23153 8.14509C5.23153 7.98676 5.21653 7.85509 5.1982 7.85509C5.17987 7.85509 4.9082 7.94509 4.59487 8.05509C4.39594 8.12818 4.19473 8.19488 3.99153 8.25509C3.9732 8.25509 3.9582 7.46842 3.9582 6.50842C3.9582 5.54676 3.94153 4.76176 3.92487 4.76176ZM31.4282 4.76176C31.4099 4.76176 31.3949 5.69842 31.3949 6.84342V8.92509L31.7115 9.02842C31.8882 9.08676 32.0415 9.13676 32.0549 9.14342C32.0682 9.14842 32.0799 8.21509 32.0799 7.06676V4.97843L31.7715 4.86843C31.6591 4.82613 31.5445 4.78996 31.4282 4.76009V4.76176ZM13.1815 5.10509C13.6199 5.12176 13.8932 5.60009 13.6465 6.05176C13.5415 6.24342 13.4132 6.31676 13.1415 6.34009L12.7765 6.37009V5.77676C12.7765 5.25843 12.8015 5.17676 12.9832 5.12842C13.0478 5.11088 13.1146 5.10302 13.1815 5.10509ZM6.76153 5.11009L6.89153 5.64676C6.9632 5.94676 6.98653 6.08842 6.95987 6.17342C6.95912 6.18551 6.95576 6.19728 6.95 6.20793C6.94424 6.21858 6.93624 6.22785 6.92653 6.23509C6.91407 6.24788 6.90008 6.25907 6.88487 6.26842C6.64987 6.42009 6.4882 6.37342 6.55153 6.16842C6.58487 6.06509 6.64487 5.78509 6.68487 5.54509L6.76153 5.11009ZM18.2265 7.87676C17.3015 7.89842 16.5032 8.16009 16.0499 8.62009C15.6449 9.03176 15.5999 9.47009 15.9365 9.69509C16.3615 9.97676 17.0582 10.0618 19.5499 10.1418C21.8299 10.2151 22.1032 10.2418 22.4999 10.4368C22.9865 10.6784 23.1982 10.9918 23.1832 11.4534C23.1732 11.8368 22.9215 12.2484 22.6949 12.2484C22.3132 12.2484 21.0465 11.9251 20.1515 11.5984C19.7921 11.4609 19.4241 11.3468 19.0499 11.2568L18.9865 11.2518C18.7465 11.2584 18.4565 11.4534 17.6232 12.1701C17.2565 12.4851 16.6065 12.9268 16.1782 13.1534C14.7882 13.8918 14.3599 14.4768 14.1665 15.9018C14.0615 16.6734 13.9332 16.9818 13.3349 17.8801C12.8382 18.6268 12.4882 19.6301 12.4849 20.3084C12.4849 20.6368 12.3682 21.1601 12.1782 21.7068C11.9282 22.4284 11.8715 22.7518 11.8532 23.5768C11.8332 24.4334 11.7949 24.6434 11.5815 25.0418C11.4265 25.3284 11.3049 25.7584 11.2615 26.1651C11.1999 26.7651 11.1499 26.8751 10.7115 27.3984C10.4465 27.7118 10.2299 28.0234 10.2299 28.0901C10.2299 28.1268 10.1882 28.2068 10.1249 28.3034C10.1115 28.3668 10.0815 28.4118 10.0432 28.4168C10.009 28.4648 9.97229 28.511 9.9332 28.5551C9.55987 28.9884 9.37653 29.4868 9.5332 29.6451C9.61487 29.7284 9.68153 29.7018 9.79487 29.5384C10.0099 29.2251 10.1332 29.2634 10.0349 29.6118C9.9782 29.8118 9.9882 29.9218 10.0665 29.9568C10.2132 30.0218 10.7699 29.9334 11.0615 29.7984C11.2149 29.7268 11.3282 29.5434 11.4115 29.2318C11.4782 28.9768 11.6015 28.6868 11.6849 28.5884C11.7765 28.4784 11.8532 28.1468 11.8782 27.7451C11.9149 27.1584 11.9632 27.0268 12.2949 26.5984C12.5115 26.3218 12.7399 25.8701 12.8299 25.5451C12.9182 25.2318 13.0582 24.8401 13.1432 24.6751C13.7715 23.4418 14.1765 22.7284 14.2482 22.7284C14.4649 22.7284 14.6382 23.2018 14.6382 23.7951C14.6382 24.2618 14.6782 24.4384 14.7949 24.5051C14.9365 24.5851 14.9382 24.6268 14.8099 24.8851C14.7206 25.0724 14.6491 25.2677 14.5965 25.4684C14.5015 25.8684 14.1882 26.2968 13.8599 26.4684C13.7099 26.5484 13.3832 26.8151 13.1332 27.0634C12.7732 27.4201 12.6782 27.5801 12.6799 27.8418C12.6815 28.2818 12.8232 28.5118 12.9882 28.3418C13.1849 28.1418 13.2749 28.2001 13.2049 28.4834C13.1415 28.7401 13.1515 28.7468 13.4682 28.6834C13.8732 28.6001 14.2399 28.3618 14.3082 28.1384C14.3365 28.0451 14.3982 27.9018 14.4449 27.8201C14.4932 27.7368 14.6732 27.3634 14.8482 26.9868C15.0649 26.5201 15.3032 26.1901 15.6032 25.9401C15.8432 25.7401 16.1032 25.4184 16.1832 25.2268C16.4149 24.6634 17.0882 24.1801 17.0882 24.5801C17.0882 24.8134 16.7082 25.5201 16.4315 25.8018C16.0832 26.1568 15.8149 26.6334 15.8149 26.8968C15.8149 27.1284 15.9515 27.1968 16.0599 27.0218C16.1665 26.8451 16.2882 26.9151 16.2349 27.1218C16.2299 27.141 16.226 27.1604 16.2232 27.1801C16.2399 27.2301 16.2649 27.2718 16.2982 27.3051C16.3399 27.3168 16.3982 27.3218 16.4849 27.3218C16.9882 27.3218 17.4632 27.0318 17.5349 26.6801C17.5907 26.4613 17.6759 26.251 17.7882 26.0551C17.9115 25.8484 17.9549 25.6518 17.9149 25.4868C17.8482 25.2184 18.0282 24.5251 18.1649 24.5251C18.2649 24.5251 18.6215 25.2701 18.7115 25.6751C18.7609 25.8627 18.8495 26.0376 18.9715 26.1884C19.1515 26.3901 19.2299 26.4018 20.1099 26.3518C21.0215 26.3001 21.0649 26.2851 21.3015 25.9901C21.4782 25.7668 21.5615 25.5151 21.6015 25.0784C21.6715 24.3084 22.0049 23.7851 22.7682 23.2384L23.3382 22.8318L23.4782 23.0551C23.5565 23.1768 23.7232 23.5368 23.8499 23.8534C24.0632 24.3801 24.0715 24.4668 23.9582 24.9201C23.8899 25.1934 23.8632 25.5101 23.8982 25.6251C23.9349 25.7418 23.8865 26.0518 23.7899 26.3251L23.7149 26.5384L23.6999 26.6318C23.6815 26.7149 23.6737 26.8 23.6765 26.8851L23.8482 27.0684C24.1099 27.3551 24.2915 27.3901 24.3749 27.1718C24.4482 26.9718 24.6332 26.9784 24.6332 27.1801C24.6332 27.3918 24.8249 27.3134 25.0465 27.0134C25.2165 26.7801 25.2182 26.7384 25.0732 26.3201C24.9865 26.0734 24.9382 25.7951 24.9615 25.7018C24.9849 25.6068 24.9615 25.3368 24.9082 25.1018C24.7862 24.4989 24.7924 23.8771 24.9265 23.2768C25.0215 22.8134 25.0099 22.7118 24.7882 22.2268C24.6532 21.9318 24.5615 21.6701 24.5832 21.6484C24.6065 21.6251 24.7915 21.6734 24.9965 21.7551C25.9465 22.1351 26.6882 22.0484 27.1399 21.5051L27.3699 21.2268C27.3735 21.2114 27.3757 21.1958 27.3765 21.1801L26.8282 21.1301C26.703 21.1183 26.578 21.1044 26.4532 21.0884C26.1215 21.0334 25.9765 20.9134 25.4465 20.4401C24.9565 20.0034 24.9399 19.9701 24.9915 19.5801C25.0232 19.3484 24.9749 18.8434 24.8799 18.4118C24.7265 17.7084 24.7265 17.6068 24.8699 17.1051C24.9549 16.8051 25.0249 16.4268 25.0249 16.2668C25.0249 15.7834 24.7615 15.0401 24.4499 14.6451C24.2748 14.4128 24.1407 14.1524 24.0532 13.8751C23.9731 13.606 23.8564 13.3492 23.7065 13.1118C23.4799 12.7718 23.4732 12.7301 23.6082 12.4034C23.7028 12.1139 23.7511 11.8113 23.7515 11.5068C23.7515 11.0284 23.7099 10.9084 23.4332 10.5884C22.8332 9.89176 22.5499 9.82676 19.6832 9.74176C16.3749 9.64176 15.8549 9.51509 16.3682 8.93676C16.5782 8.70009 16.9215 8.70676 17.6349 8.96009C18.4165 9.23676 19.3715 9.30509 19.9299 9.12509C20.4099 8.97009 20.4182 8.97842 19.5865 8.80176C19.4532 8.77342 19.3415 8.70176 19.3415 8.64009C19.3415 8.61842 19.3549 8.60342 19.3765 8.59176C19.3915 8.56176 19.4615 8.55509 19.5932 8.57009C19.6532 8.57342 19.7232 8.58009 19.8065 8.59176C21.0882 8.76509 21.3015 8.77842 21.3015 8.68009C21.3015 8.51842 20.4415 8.18509 19.5432 8.00009C19.1103 7.90967 18.6687 7.8683 18.2265 7.87676ZM18.5815 8.69509C18.714 8.70701 18.8441 8.7373 18.9682 8.78509L19.3915 8.93842L19.0882 8.94342L19.0482 8.94509L18.9965 8.94176C18.8467 8.94562 18.6978 8.9172 18.5599 8.85842C18.3882 8.74676 18.4265 8.68676 18.5815 8.69509Z" fill="#A09C9C"/>
</svg>
