<svg width="84" height="40" viewBox="0 0 84 40" fill="none" xmlns="http://www.w3.org/2000/svg">
<path d="M42.2076 0.997265C23.0096 0.997265 7.52804 9.14134 7.52804 18.7932C7.52804 24.2109 13.9188 28.445 23.5617 30.847L40.209 10.8159H42.2078L27.7344 40C12.0863 37.0983 0.7771 29.7872 0.7771 20.802C0.7771 9.30932 19.3271 0 42.2078 0C65.1491 0 83.699 9.30983 83.699 20.802C83.699 29.7877 72.3905 37.0988 56.6896 40L42.2074 10.8159H44.4253L61.0902 30.847C70.5579 28.445 76.9486 24.2109 76.9486 18.7932C76.9486 9.14134 61.4233 0.997265 42.2068 0.997265H42.2076Z" fill="#A09C9C"/>
</svg>
