<svg width="41" height="40" viewBox="0 0 41 40" fill="none" xmlns="http://www.w3.org/2000/svg">
<path fill-rule="evenodd" clip-rule="evenodd" d="M20.2491 9.50243e-05C18.5315 0.00418607 17.8275 0.0689594 16.3006 0.373786C10.5871 1.51448 5.54809 5.25415 2.72137 10.4517C-0.827211 16.9765 -0.443648 24.9941 3.71257 31.1696C5.01977 33.112 7.02396 35.1418 8.96488 36.4892C11.628 38.338 15.0077 39.59 18.163 39.8968C18.5088 39.9306 18.8946 39.968 19.0203 39.9801C19.6322 40.0396 22.0904 39.9566 22.8782 39.8499C26.1636 39.4053 29.1235 38.2561 31.7654 36.3996C35.7113 33.6267 38.5706 29.4742 39.7101 24.8615C40.9943 19.6632 40.1794 14.1932 37.4474 9.6726C34.7091 5.1416 30.2775 1.85059 25.1929 0.572118C23.4457 0.132821 22.2754 -0.00250291 20.2491 9.50243e-05ZM20.0569 0.56162C21.0939 0.567467 22.333 0.612834 22.7924 0.678571C25.1582 1.01713 27.3732 1.71989 29.3179 2.74892C35.4418 5.98941 39.4238 12.2327 39.7194 19.0572L39.756 19.9046L39.3821 19.5482C39.1765 19.3521 38.8788 19.0706 38.7206 18.9226C38.2297 18.4631 37.7214 17.2512 37.431 15.8478L37.3064 15.2458L37.3288 16.5443C37.4109 21.3028 36.3056 26.1559 34.1367 30.5595C33.5302 31.7909 32.9617 32.7106 32.4897 33.2243C31.903 33.8628 30.3482 34.9516 29.1509 35.5623C27.2425 36.5359 25.2467 37.0317 22.5067 37.2131C21.6969 37.2667 18.8096 37.2957 18.7584 37.2507C18.7452 37.239 18.4219 37.2131 18.0396 37.1926C15.7608 37.0709 13.475 36.5127 11.7739 35.6625C10.4798 35.0157 8.72353 33.7842 8.18894 33.1488C8.02159 32.9499 7.73307 32.556 7.54776 32.2732C7.09368 31.5803 6.11093 29.5779 5.648 28.4023C4.14196 24.5781 3.43262 20.9868 3.42177 17.1312C3.41812 15.7987 3.41023 15.6782 3.34738 15.9859C3.10551 17.1709 2.68589 17.9008 1.96677 18.3874C1.53159 18.6819 1.29625 18.9203 1.03665 19.3294L0.874345 19.5853L0.874757 19.217C0.875094 19.0145 0.913609 18.489 0.960249 18.0492C1.36773 14.2084 2.7763 10.791 5.21014 7.73819C5.80118 6.99687 7.39668 5.40974 8.16117 4.80269C10.7395 2.75535 13.7869 1.36843 16.8854 0.832303C17.5203 0.722453 17.6885 0.699719 18.6201 0.597706C18.8849 0.568834 19.4346 0.558332 20.0569 0.56162ZM20.4739 3.37003C19.5293 3.36389 18.5907 3.38693 18.1058 3.44236C14.749 3.82652 11.7224 4.81266 8.87564 6.44982C7.79684 7.07023 7.29381 7.44647 6.6515 8.11299C5.72404 9.07542 5.24123 9.90606 4.7371 11.4066C3.86544 14.001 3.68426 16.9842 4.16525 20.8198C4.55441 23.9232 5.56073 27.3016 6.93417 30.1157C7.32306 30.9125 7.43505 31.0904 7.73072 31.3814C7.91994 31.5676 8.20855 31.7865 8.37212 31.868C8.71181 32.0372 8.99797 32.0586 9.11045 31.9232C9.21543 31.7967 9.25113 30.7352 9.16514 30.2984C9.12848 30.1121 8.98293 29.5804 8.84164 29.117C7.69423 25.3539 6.78861 20.5943 6.53475 16.9925C6.44837 15.767 6.46209 13.4445 6.56114 12.5082C6.74683 10.7534 7.11702 9.40911 7.61308 8.68849C7.81878 8.38965 8.34732 7.96054 8.90423 7.64017C10.77 6.56689 14.1105 5.80569 17.9344 5.58239C19.0886 5.51501 22.5259 5.53646 23.4783 5.61704C27.8359 5.98549 30.927 6.8323 32.602 8.1165C33.1331 8.52376 33.3961 8.91708 33.6676 9.71089C34.135 11.077 34.3291 12.5953 34.3246 14.8504C34.3167 18.7604 33.4563 24.0335 32.0504 28.7888C31.6103 30.2772 31.5672 30.4819 31.5662 31.0899C31.565 31.7852 31.654 32.0163 31.9227 32.0163C32.2014 32.0163 32.6742 31.7591 33.0255 31.4163C33.2794 31.1685 33.409 30.9581 33.7857 30.1816C35.2579 27.147 36.2403 23.8037 36.6204 20.5343C36.7985 19.0028 36.8153 18.6488 36.7988 16.7926C36.7849 15.2272 36.7621 14.7813 36.6643 14.1632C36.3189 11.9783 35.7561 10.3445 34.916 9.08722C34.545 8.53209 33.7898 7.73407 33.2514 7.32809C32.3307 6.63394 30.2842 5.55176 28.754 4.9499C26.8161 4.18768 25.0127 3.73469 22.8781 3.47424C22.3691 3.41209 21.4185 3.37634 20.4739 3.37003ZM20.4492 6.40054C17.7439 6.40054 16.908 6.4475 15.0768 6.71423C12.0488 7.1553 9.71547 7.95666 8.648 8.92219C7.94302 9.55984 7.5169 10.9279 7.32835 13.1596C7.24443 14.1529 7.28942 16.7295 7.41263 17.9922C7.81644 22.13 8.8831 27.0204 10.1719 30.6427C10.6759 32.0593 10.8107 32.2551 11.6728 32.8223C13.3087 33.8986 15.4026 34.4848 18.3631 34.6952C19.3248 34.7635 21.3537 34.7657 22.3067 34.6993C25.3908 34.4849 27.3854 33.94 29.0716 32.8514C29.8444 32.3525 30.0825 32.0769 30.3585 31.3628C31.7204 27.8386 32.8415 22.9255 33.3769 18.1348C33.4531 17.4524 33.4764 16.7453 33.478 15.0501C33.4801 13.0278 33.4696 12.7854 33.3494 12.0393C33.1067 10.5319 32.7267 9.47175 32.2668 9.01918C31.0792 7.85035 28.1579 6.94755 24.2058 6.52788C23.1712 6.41803 22.695 6.40206 20.4492 6.40054ZM19.5182 13.63H24.4292C26.0265 16.3446 26.6045 20.2438 26.4185 27.1423H26.2388H24.6476H24.4461C24.4347 25.5853 24.3878 22.541 24.1963 21.5548H21.76L21.7373 27.1423H21.5047H19.9197H19.7042L19.5182 13.63ZM10.1607 13.6302H15.001L15.0135 15.3956H12.6851L12.6784 19.7925H14.4619V21.5393H12.6784L12.725 27.1428H10.5982L10.1607 13.6302ZM15.8417 13.6302H18.3516L18.307 27.1428H16.1107L15.8417 13.6302ZM26.1375 13.6302H32.106L32.1191 15.3325H30.3985L29.9472 27.1428H27.8225L27.8723 15.3345H26.1375L26.1375 13.6302ZM21.6876 15.2942L21.6635 19.8841H24.1071C23.827 17.6683 23.4698 16.3165 22.9139 15.2942H21.6876ZM12.0815 34.4726C11.8988 34.4726 11.8477 34.494 11.8477 34.5704C11.8477 34.7359 12.5879 35.4015 13.026 35.6298C13.935 36.1037 15.9346 36.537 17.963 36.6998C18.9466 36.7787 22.79 36.7262 23.6497 36.622C25.6786 36.3762 27.2773 35.9472 28.0573 35.4393C28.481 35.1633 28.8792 34.751 28.8792 34.5882C28.8792 34.492 28.8419 34.4726 28.6569 34.4726C28.3785 34.4726 27.5435 34.6431 26.5699 34.8987C25.6413 35.1424 25.134 35.2372 23.9824 35.3824C20.6184 35.8065 16.9335 35.616 14.1052 34.8718C13.2544 34.6479 12.3655 34.4726 12.0815 34.4726Z" fill="#A09C9C"/>
</svg>
